<?xml version="1.0" encoding="UTF-8"?>
<!-- Generator: visioncortex VTracer 0.6.3 -->
<svg version="1.1" xmlns="http://www.w3.org/2000/svg" width="1280" height="1263">
<path d="M0 0 C422.4 0 844.8 0 1280 0 C1280 416.79 1280 833.58 1280 1263 C857.6 1263 435.2 1263 0 1263 C0 846.21 0 429.42 0 0 Z " fill="#FCFCFC" transform="translate(0,0)"/>
<path d="M0 0 C1.2 0.2 2.4 0.4 3.64 0.61 C11.47 1.96 19.28 3.41 27.06 5 C28.22 5.23 28.22 5.23 29.4 5.47 C33.8 6.38 37.88 7.61 42.06 9.25 C45.18 10.45 48.37 11.4 51.56 12.38 C59.42 14.8 67.21 17.38 75 20 C75.7 20.23 76.4 20.46 77.11 20.69 C82.57 22.48 87.95 24.43 93.31 26.5 C94.49 26.94 94.49 26.94 95.69 27.39 C99.57 28.89 102.75 30.35 106 33 C107.67 33.34 109.33 33.67 111 34 C113.79 35.53 116.36 37.24 119 39 C121.32 39.71 123.65 40.38 126 41 C126 41.66 126 42.32 126 43 C126.63 43.16 127.26 43.32 127.91 43.48 C133.29 44.95 137.64 46.7 142.21 49.91 C144.13 51.08 145.81 51.57 148 52 C148 52.66 148 53.32 148 54 C150.42 55.26 152.84 56.34 155.38 57.38 C158.9 58.95 161.81 60.85 165 63 C165.78 63.31 166.57 63.62 167.38 63.94 C171.17 65.47 174.76 67.49 178 70 C178 70.66 178 71.32 178 72 C178.8 72.21 179.61 72.41 180.44 72.62 C184.41 74.16 187.49 76.22 190.95 78.66 C193.05 80.16 193.05 80.16 196 81 C196 81.66 196 82.32 196 83 C196.66 83.21 197.32 83.41 198 83.62 C201.3 85.14 203.84 87.01 206.7 89.23 C209.24 91.19 211.83 93.06 214.44 94.94 C218.04 97.56 221.63 100.19 225.19 102.88 C225.92 103.43 226.66 103.98 227.42 104.55 C228.2 105.27 228.2 105.27 229 106 C229 106.66 229 107.32 229 108 C229.93 108.46 229.93 108.46 230.88 108.94 C232.25 109.62 233.62 110.31 235 111 C235 111.66 235 112.32 235 113 C235.54 113.23 236.07 113.45 236.62 113.69 C243.1 117.27 247.19 122.51 251.76 128.21 C255.26 132.57 258.82 136.95 262.9 140.78 C265.61 143.64 267.67 146.77 269.81 150.06 C270.47 151.06 270.47 151.06 271.14 152.07 C272.43 154.05 273.71 156.02 275 158 C276.02 159.56 276.02 159.56 277.07 161.15 C281.76 168.39 285.48 175.74 288.93 183.64 C290.09 186.19 291.35 188.69 292.62 191.19 C294.43 194.73 295.77 198.22 297 202 C297.47 202.71 297.94 203.41 298.43 204.14 C300.45 207.83 301.18 211.4 302 215.5 C302.31 216.99 302.62 218.48 302.94 219.97 C303.1 220.76 303.27 221.56 303.43 222.37 C304.07 225.34 304.78 228.28 305.49 231.22 C309.86 250.08 312.19 269.65 311 289 C310.67 289.33 310.34 289.66 310 290 C309.92 291.35 309.92 292.71 309.94 294.06 C309.95 295.34 309.95 295.34 309.96 296.64 C309.98 297.57 309.99 298.49 310 299.44 C310.05 306.72 309.96 313.97 309.56 321.25 C309.52 322.02 309.48 322.79 309.44 323.58 C309.13 328.87 309.13 328.87 308 330 C307.92 332.87 307.91 335.72 307.94 338.59 C307.94 339.46 307.95 340.32 307.95 341.21 C307.96 343.97 307.98 346.74 308 349.5 C308.03 353.14 308.05 356.77 308.06 360.41 C308.07 361.25 308.08 362.1 308.09 362.97 C308.1 364.98 308.05 366.99 308 369 C307.67 369.33 307.34 369.66 307 370 C306.91 371.66 306.88 373.32 306.89 374.98 C306.89 376.04 306.89 377.1 306.89 378.19 C306.89 379.35 306.9 380.5 306.9 381.69 C306.9 382.87 306.91 384.04 306.91 385.25 C306.91 389.02 306.92 392.79 306.94 396.56 C306.94 399.11 306.95 401.66 306.95 404.21 C306.96 410.47 306.98 416.74 307 423 C307.82 423.41 308.65 423.81 309.49 424.23 C310.57 424.77 311.65 425.31 312.77 425.86 C313.84 426.39 314.91 426.92 316.01 427.47 C326.27 432.72 332.88 440.22 336.94 451.12 C338.56 456.17 339.74 460.72 340 466 C340.06 467.13 340.06 467.13 340.12 468.28 C340.66 487.42 334.19 507.56 326.83 525.02 C326.04 526.89 325.29 528.79 324.55 530.68 C321.32 538.79 321.32 538.79 318 542 C317.67 543.01 317.34 544.02 317 545.06 C316 548 316 548 313 550 C312.14 551.82 312.14 551.82 311.56 553.88 C310.31 557.51 308.83 559.35 306 562 C304.96 563.98 303.97 565.98 303 568 C298.76 575.24 298.76 575.24 296 578 C295.5 579.28 295.04 580.57 294.62 581.88 C293.35 585.48 291.81 587.37 289 590 C288.31 591.66 287.64 593.32 287 595 C286 596 285 597 284 598 C283.3 599.65 282.63 601.32 282 603 C281.34 603.99 280.68 604.98 280 606 C279.34 606 278.68 606 278 606 C277.92 607.09 277.84 608.19 277.75 609.31 C276.88 613.6 276.35 613.63 273 616 C271.95 618.31 270.95 620.65 270 623 C269.02 624.35 268.02 625.68 267 627 C265.98 628.99 264.98 630.99 264 633 C263.02 634.68 262.02 636.34 261 638 C260.5 638.87 260.01 639.73 259.5 640.62 C258 643 258 643 256.44 644.5 C254.57 646.45 253.98 648.5 253 651 C252 652.33 251 653.67 250 655 C249.67 655.87 249.34 656.73 249 657.62 C248 660 248 660 245 662 C244.14 663.85 244.14 663.85 243.56 665.94 C242.33 669.54 241.17 670.85 238 673 C237.28 674.65 236.62 676.31 236 678 C235 679.33 234 680.67 233 682 C232.69 682.85 232.38 683.69 232.06 684.56 C231 687 231 687 229.06 688.38 C226.04 690.76 225.35 693.43 224 697 C223.34 697 222.68 697 222 697 C221.77 698.05 221.55 699.1 221.31 700.19 C220.18 704.2 218.05 706.17 215 709 C212.85 712.26 211.07 715.7 209.26 719.16 C207.48 721.77 205.27 723.8 203 726 C202.1 726.91 201.21 727.82 200.28 728.75 C198.9 730.14 198.9 730.14 197.5 731.56 C196.58 732.49 195.66 733.42 194.72 734.38 C192.25 736.76 189.7 738.89 187 741 C186.44 741.56 185.89 742.11 185.31 742.69 C184 744 184 744 182 745 C180.81 755.94 180.81 755.94 184.81 765.69 C186.19 767.15 187.59 768.58 189 770 C190.5 771.7 191.97 773.42 193.43 775.15 C194.42 776.33 195.43 777.5 196.44 778.66 C200 782.78 200 782.78 200 785 C200.57 785.25 201.14 785.5 201.73 785.75 C204.35 787.19 206.15 788.88 208.25 791 C208.96 791.7 209.66 792.4 210.39 793.12 C212 795 212 795 212 797 C212.58 797.27 213.15 797.54 213.75 797.81 C216.06 799.03 218.02 800.3 220 802 C220 802.66 220 803.32 220 804 C220.57 804.26 221.15 804.53 221.74 804.8 C224.12 806.06 226.03 807.5 228.12 809.19 C231.45 811.81 234.8 814.35 238.25 816.81 C239.04 817.38 239.83 817.94 240.64 818.52 C242.97 820.08 242.97 820.08 245.64 821.05 C248.84 822.34 250.58 824.58 253 827 C255.75 828.58 255.75 828.58 259 830 C260.76 830.82 262.5 831.66 264.25 832.5 C265.1 832.9 265.95 833.3 266.83 833.72 C269 835 269 835 271 838 C270.17 838.17 269.33 838.34 268.47 838.52 C261.52 840.01 255.38 841.89 249 845 C247.75 845.53 246.5 846.05 245.25 846.56 C235.55 850.85 227.53 857.74 221 866 C220.13 866.97 219.27 867.94 218.38 868.94 C216.11 871.85 214.59 874.56 213.03 877.87 C211.58 880.88 209.94 883.78 208.29 886.69 C207.4 888.28 206.53 889.89 205.68 891.5 C205.25 892.3 204.82 893.11 204.38 893.94 C203.99 894.67 203.61 895.4 203.21 896.15 C202 898 202 898 199 900 C198.88 901.11 198.75 902.23 198.62 903.38 C197.84 907.93 196.52 908.21 193 911 C191.83 913.03 190.97 915.09 190.1 917.27 C189.3 919.25 188.43 921.2 187.52 923.14 C180.03 939.33 178.86 954.86 181.31 972.44 C181.43 973.3 181.55 974.17 181.67 975.06 C182.38 979.73 183.27 983.05 186 987 C186.54 988.34 187.04 989.69 187.5 991.06 C188.33 993.4 188.97 994.96 190.5 996.94 C192.9 1000.24 193.83 1004.11 195 1008 C193.36 1008.9 193.36 1008.9 191.69 1009.81 C189.07 1011.31 187 1012.71 185 1015 C184.4 1015.58 183.8 1016.15 183.19 1016.75 C176.72 1023.4 170.77 1030.04 168 1039 C167.34 1039.33 166.68 1039.66 166 1040 C165.15 1042.57 165.15 1042.57 164.5 1045.62 C162.82 1052.77 162.82 1052.77 161.88 1056 C160.25 1061.57 159.81 1066.33 159.81 1072.12 C159.81 1072.98 159.81 1073.83 159.81 1074.71 C159.84 1084.57 159.84 1084.57 162.98 1093.77 C164.44 1096.95 164.87 1100.26 165.44 1103.69 C166.34 1108.83 167.39 1113.69 169.18 1118.61 C170.28 1121.82 171.14 1125.09 172 1128.38 C172.17 1129.02 172.34 1129.67 172.52 1130.33 C173.3 1133.28 174.06 1136.24 174.78 1139.2 C176.14 1144.61 177.69 1148.43 181 1153 C183.27 1157.23 185.48 1161.44 187 1166 C187.62 1166.3 188.25 1166.59 188.89 1166.9 C191.64 1168.34 192.34 1169.89 193.75 1172.62 C194.18 1173.44 194.61 1174.26 195.05 1175.1 C195.36 1175.73 195.68 1176.35 196 1177 C194.2 1176.76 194.2 1176.76 192.36 1176.51 C185.99 1175.81 179.64 1175.86 173.24 1175.88 C171.85 1175.88 170.46 1175.88 169.07 1175.87 C165.24 1175.87 161.42 1175.87 157.6 1175.88 C153.44 1175.88 149.28 1175.88 145.12 1175.88 C137.83 1175.88 130.54 1175.88 123.25 1175.88 C112.41 1175.89 101.58 1175.89 90.74 1175.89 C72.5 1175.88 54.27 1175.89 36.04 1175.89 C17.99 1175.9 -0.07 1175.9 -18.12 1175.91 C-19.24 1175.91 -20.37 1175.91 -21.52 1175.91 C-27.22 1175.91 -32.92 1175.91 -38.62 1175.91 C-79 1175.91 -119.37 1175.92 -159.75 1175.92 C-198.97 1175.93 -238.2 1175.94 -277.43 1175.95 C-279.24 1175.95 -279.24 1175.95 -281.09 1175.95 C-293.23 1175.95 -305.37 1175.95 -317.51 1175.95 C-342.25 1175.95 -366.98 1175.95 -391.71 1175.96 C-393.42 1175.96 -393.42 1175.96 -395.16 1175.96 C-471.11 1175.97 -547.05 1175.98 -623 1176 C-623.02 1170.29 -623.04 1164.58 -623.05 1158.87 C-623.06 1156.93 -623.07 1154.99 -623.08 1153.05 C-623.09 1150.25 -623.09 1147.45 -623.1 1144.65 C-623.1 1143.79 -623.11 1142.93 -623.11 1142.04 C-623.11 1137.26 -622.79 1132.73 -622 1128 C-621.82 1126.17 -621.65 1124.33 -621.5 1122.5 C-620.94 1115.68 -619.9 1109.23 -618.06 1102.62 C-616.75 1097.84 -615.53 1093.05 -614.5 1088.2 C-613.67 1084.55 -612.62 1080.97 -611.59 1077.38 C-610.88 1074.92 -610.88 1074.92 -611 1072 C-610.67 1071.01 -610.34 1070.02 -610 1069 C-609.34 1069 -608.68 1069 -608 1069 C-607.84 1067.97 -607.84 1067.97 -607.67 1066.92 C-607.51 1066.02 -607.35 1065.12 -607.19 1064.19 C-607.04 1063.29 -606.89 1062.4 -606.73 1061.48 C-605.92 1058.73 -604.99 1057.96 -603 1056 C-602.24 1053.71 -602.24 1053.71 -601.75 1051.12 C-599.98 1044.1 -596.58 1038.24 -593 1032 C-592.08 1030.31 -591.16 1028.63 -590.25 1026.94 C-589.08 1024.79 -587.9 1022.87 -586.42 1020.91 C-584.87 1019.01 -584.87 1019.01 -584.06 1016.5 C-582.84 1013.61 -581.23 1012.16 -579 1010 C-578.67 1009.34 -578.34 1008.68 -578 1008 C-577 1006 -577 1006 -575.15 1004.18 C-572.26 1001.25 -570.15 997.95 -567.88 994.54 C-565.8 991.73 -563.51 989.42 -561 987 C-560.14 986.13 -559.28 985.25 -558.39 984.35 C-549.78 975.65 -540.96 968.12 -531 961 C-529.5 959.9 -528 958.8 -526.5 957.69 C-525.89 957.24 -525.28 956.79 -524.66 956.32 C-522.96 955.02 -522.96 955.02 -521.46 953.43 C-519.3 951.31 -516.71 950.3 -514 949 C-513.25 948.55 -512.5 948.09 -511.72 947.62 C-507.54 945.13 -503.19 942.95 -498.86 940.72 C-495.79 939.15 -495.79 939.15 -494 936 C-491.94 935.41 -491.94 935.41 -489.56 935.06 C-485.4 934.28 -484.47 933.43 -482 930 C-480.06 929.34 -478.15 928.94 -476.13 928.59 C-473.42 927.84 -471.4 926.47 -469 925 C-467.02 924.11 -465.01 923.26 -463 922.44 C-461.48 921.82 -461.48 921.82 -459.94 921.18 C-458.97 920.79 -458 920.4 -457 920 C-456.13 919.64 -455.26 919.28 -454.36 918.91 C-452 918 -452 918 -448.25 917 C-447.18 916.67 -446.11 916.34 -445 916 C-444.67 915.34 -444.34 914.68 -444 914 C-440.83 913.28 -437.67 912.74 -434.46 912.23 C-432.62 911.91 -430.81 911.46 -429 911 C-428.34 910.01 -427.68 909.02 -427 908 C-424.94 907.34 -424.94 907.34 -422.56 906.94 C-419.26 906.37 -417.89 905.93 -415 904 C-413.34 903.66 -411.67 903.33 -410 903 C-408.54 902.51 -407.08 902.01 -405.62 901.5 C-402.67 900.47 -400.28 899.91 -397.12 899.5 C-394.03 899.34 -394.03 899.34 -392.69 897.55 C-390.27 895.33 -388.03 895.2 -384.81 894.62 C-377.92 893.27 -371.36 891.35 -364.69 889.18 C-360.01 887.68 -355.3 886.35 -350.56 885.06 C-347.29 884.09 -344.16 882.95 -340.99 881.68 C-338.68 880.89 -336.4 880.48 -334 880 C-331.01 879.23 -328.04 878.4 -325.06 877.56 C-324.28 877.35 -323.49 877.13 -322.68 876.9 C-318.41 875.71 -314.21 874.41 -310 873 C-307.17 872.23 -304.33 871.5 -301.49 870.78 C-298.79 870.06 -298.79 870.06 -296 868 C-293.34 867.29 -290.68 866.63 -288 866 C-284.11 864.98 -281.35 864.23 -278 862 C-275.02 861.19 -272.02 860.54 -269.01 859.88 C-265.93 858.98 -263.72 857.66 -261 856 C-258.72 855.38 -258.72 855.38 -256.5 855 C-252.74 854.25 -250.26 853.07 -247 851 C-243.71 849.57 -240.36 848.28 -237 847 C-236.25 846.71 -235.49 846.41 -234.71 846.11 C-229.39 844.07 -229.39 844.07 -226.9 843.61 C-224.61 843.09 -224.61 843.09 -223 840 C-220.94 839.41 -220.94 839.41 -218.56 839.06 C-214.95 838.52 -214.95 838.52 -212.5 836 C-210.58 833.44 -209.52 833.55 -206.44 833 C-205.26 832.85 -205.26 832.85 -204.06 832.69 C-201.81 832.2 -201.81 832.2 -200.93 830 C-200.62 829.34 -200.32 828.68 -200 828 C-197.68 827.3 -195.34 826.64 -193 826 C-190.33 824.06 -190.33 824.06 -188 822 C-187.28 821.65 -186.56 821.3 -185.81 820.94 C-183.65 820.01 -183.65 820.01 -182 817 C-181.15 816.59 -180.31 816.17 -179.44 815.75 C-174.79 813.38 -171.02 810.31 -167 807 C-166.49 806.59 -165.99 806.17 -165.47 805.75 C-152.15 794.78 -139.3 783.01 -129.45 768.76 C-128.97 768.18 -128.49 767.6 -128 767 C-127.34 767 -126.68 767 -126 767 C-125.92 765.91 -125.83 764.81 -125.75 763.69 C-125.5 762.47 -125.25 761.25 -125 760 C-124.33 759.56 -123.66 759.12 -122.98 758.67 C-120.68 757.1 -120.68 757.1 -120.54 754 C-120.57 752.87 -120.6 751.73 -120.62 750.56 C-120.64 749.43 -120.65 748.3 -120.66 747.13 C-120.98 744.17 -121.3 742.42 -123 740 C-123.99 739.67 -124.98 739.34 -126 739 C-126 738.34 -126 737.68 -126 737 C-126.64 736.73 -127.28 736.46 -127.94 736.19 C-130 735 -130 735 -131 732 C-132.32 731.3 -133.65 730.63 -135 730 C-136.75 728.5 -136.75 728.5 -138 727 C-138 726.34 -138 725.68 -138 725 C-138.66 725 -139.32 725 -140 725 C-140 724.34 -140 723.68 -140 723 C-140.66 723 -141.32 723 -142 723 C-142.25 722.22 -142.5 721.43 -142.75 720.62 C-144.22 717.53 -145.04 717.43 -148 716 C-151 711.71 -151 711.71 -151 709 C-151.99 708.67 -152.98 708.34 -154 708 C-155.43 705.68 -156.72 703.39 -158 701 C-158.87 699.61 -158.87 699.61 -159.75 698.19 C-161 696 -161 696 -161 694 C-161.66 694 -162.32 694 -163 694 C-163 693.34 -163 692.68 -163 692 C-163.66 692 -164.32 692 -165 692 C-165.8 690.55 -165.8 690.55 -166.62 689.06 C-168.3 686.12 -170.1 683.3 -172 680.5 C-179 670.11 -179 670.11 -179 667 C-179.66 667 -180.32 667 -181 667 C-181.41 666.09 -181.82 665.18 -182.25 664.25 C-183.8 661.01 -183.8 661.01 -186.06 658.94 C-188.26 656.74 -188.92 654.89 -190 652 C-190.99 650.66 -191.99 649.32 -193 648 C-193.7 646.8 -194.39 645.59 -195.06 644.38 C-196.78 641.05 -196.78 641.05 -199 639 C-199.47 637.87 -199.95 636.73 -200.44 635.56 C-201.68 632.13 -201.68 632.13 -203.5 630.5 C-205.87 628.13 -206.7 625.05 -208 622 C-208.66 621.67 -209.32 621.34 -210 621 C-210.43 619.3 -210.43 619.3 -210.88 617.56 C-211.25 616.39 -211.62 615.21 -212 614 C-213.33 613.32 -214.66 612.65 -216 612 C-216.75 608.88 -216.75 608.88 -217 606 C-217.66 606 -218.32 606 -219 606 C-219 605.01 -219 604.02 -219 603 C-219.66 603 -220.32 603 -221 603 C-221.27 602.43 -221.53 601.87 -221.8 601.29 C-222.16 600.55 -222.51 599.82 -222.88 599.06 C-223.22 598.33 -223.57 597.6 -223.93 596.85 C-224.87 594.84 -224.87 594.84 -227 594 C-227.73 592.29 -228.45 590.57 -229.14 588.84 C-230.03 586.74 -230.03 586.74 -232.19 584.31 C-234 582 -234 582 -234 578 C-234.66 578 -235.32 578 -236 578 C-240 571.25 -240 571.25 -240 569 C-240.6 568.81 -241.2 568.63 -241.81 568.44 C-245.02 566.33 -245.59 563.49 -247 560 C-247.98 558.98 -248.98 557.98 -250 557 C-252.6 552.72 -254.86 548.34 -256.97 543.8 C-257.93 541.92 -257.93 541.92 -259.56 540.47 C-261 539 -261 539 -261.94 535.69 C-262.78 532.01 -262.78 532.01 -264.85 529.36 C-267.47 525.27 -268.96 521.2 -270.5 516.62 C-270.8 515.74 -271.1 514.85 -271.41 513.93 C-272.29 511.29 -273.15 508.65 -274 506 C-274.23 505.31 -274.47 504.62 -274.71 503.91 C-278.79 491.66 -279.56 477.81 -278 465 C-277.34 464.01 -276.68 463.02 -276 462 C-276.66 461.67 -277.32 461.34 -278 461 C-277.69 459.12 -277.69 459.12 -277 457 C-276.01 456.34 -275.02 455.68 -274 455 C-273.1 452.95 -273.1 452.95 -272.5 450.62 C-271.44 447.16 -270.31 444.82 -268 442 C-267.63 440.89 -267.63 440.89 -267.25 439.76 C-265.65 436.23 -263.33 433.76 -260.62 431.06 C-260.1 430.54 -259.57 430.01 -259.03 429.47 C-253.67 424.33 -246.69 419 -239 419 C-239.26 413.57 -239.53 408.15 -239.8 402.72 C-239.89 400.88 -239.98 399.03 -240.07 397.19 C-240.2 394.53 -240.33 391.87 -240.46 389.21 C-240.5 388.4 -240.54 387.58 -240.58 386.74 C-240.82 382.11 -241.31 377.59 -242 373 C-242.04 370.73 -242.04 368.46 -242 366.19 C-241.77 361.93 -241.77 361.93 -243 358 C-243.07 355.4 -243.08 352.84 -243.04 350.24 C-243.03 349.44 -243.02 348.64 -243.01 347.81 C-242.99 345.14 -242.95 342.47 -242.91 339.8 C-242.89 337.93 -242.87 336.06 -242.85 334.19 C-242.8 330.25 -242.75 326.31 -242.7 322.37 C-242.64 317.39 -242.58 312.4 -242.52 307.42 C-241.92 253.81 -241.92 253.81 -239.56 235.19 C-239.38 233.58 -239.38 233.58 -239.19 231.94 C-238.25 224.25 -238.25 224.25 -236 222 C-236 221.03 -236 220.06 -236 219.06 C-236 216 -236 216 -234 213 C-233.44 210.73 -233.06 208.46 -232.66 206.16 C-231.9 203.66 -230.82 202.8 -229 201 C-228.39 199.07 -228.39 199.07 -228.12 196.94 C-227.23 192.29 -225.44 188.54 -223.24 184.38 C-221.64 181.32 -220.32 178.19 -219 175 C-218.34 175 -217.68 175 -217 175 C-216.63 173.45 -216.63 173.45 -216.25 171.88 C-215.16 168.06 -213.32 165.23 -211 162 C-210 160.33 -209 158.67 -208 157 C-202.81 148.92 -196.66 141.75 -190.35 134.54 C-189.24 133.28 -188.15 132 -187.06 130.71 C-175.47 117.12 -161.18 102.93 -145 95 C-144.55 94.53 -144.09 94.05 -143.62 93.56 C-141.38 91.41 -138.78 90.36 -136 89 C-135.3 88.46 -134.6 87.93 -133.88 87.38 C-132 86 -132 86 -129.88 85.56 C-129.26 85.38 -128.64 85.19 -128 85 C-127.72 84.35 -127.45 83.7 -127.16 83.03 C-126 81 -126 81 -123.94 80.31 C-123.16 80.21 -122.37 80.11 -121.56 80 C-117.38 79.26 -116.48 78.44 -114 75 C-112.07 74.48 -110.13 73.96 -108.17 73.57 C-105.88 72.97 -104.12 72.09 -102.06 70.94 C-98.32 68.91 -95.11 68.53 -90.88 68.47 C-90.26 68.31 -89.64 68.16 -89 68 C-88.32 66.67 -87.66 65.34 -87 64 C-84.98 63.09 -84.98 63.09 -82.62 62.5 C-78.7 61.33 -76.65 60.22 -74 57 C-73.2 56.26 -72.39 55.52 -71.56 54.75 C-63.38 45.97 -60.02 34.41 -56.44 23.19 C-53.38 14 -50.31 6.53 -42 1 C-38.53 -0.16 -35.32 -0.25 -31.7 -0.35 C-30.99 -0.37 -30.27 -0.4 -29.54 -0.42 C-28.03 -0.47 -26.51 -0.51 -25 -0.56 C-22.71 -0.62 -20.41 -0.7 -18.11 -0.78 C-16.64 -0.83 -15.17 -0.87 -13.7 -0.91 C-13.02 -0.94 -12.34 -0.96 -11.63 -0.99 C-7.62 -1.09 -3.94 -0.78 0 0 Z " fill="#000002" transform="translate(623,4)"/>
<path d="M0 0 C6.69 4.28 10.47 11.66 12.19 19.27 C12.77 22.39 13.27 25.51 13.67 28.66 C14.31 33.64 15.55 37.52 17.69 42.07 C18.02 43.06 18.35 44.05 18.69 45.07 C22.35 46.98 25.84 47.46 29.91 47.85 C31.09 47.97 32.27 48.09 33.48 48.21 C34.71 48.33 35.93 48.45 37.19 48.57 C39.62 48.8 42.05 49.04 44.47 49.29 C45.55 49.39 46.62 49.49 47.72 49.6 C50.65 50.06 52.99 50.88 55.69 52.07 C57.02 52.43 58.35 52.77 59.69 53.07 C64.69 46.43 64.69 46.43 68.44 39.07 C69.69 36.07 69.69 36.07 72.69 34.07 C72.88 32.87 73.06 31.68 73.25 30.45 C74.37 25.1 78.1 22.79 82.28 19.64 C87.41 16.31 92.77 16.27 98.69 17.07 C103.21 18.74 107.45 20.8 111.69 23.07 C111.69 23.73 111.69 24.39 111.69 25.07 C114.66 26.06 117.63 27.05 120.69 28.07 C120.69 28.73 120.69 29.39 120.69 30.07 C121.56 30.31 121.56 30.31 122.45 30.55 C128.05 32.22 131.35 34.21 135.69 38.07 C136.68 38.57 137.67 39.06 138.69 39.57 C143.07 41.76 146.65 43.59 148.58 48.2 C150.27 54.94 149.65 61.44 147.69 68.07 C145.69 70.88 145.69 70.88 143.69 73.07 C143.36 74.27 143.03 75.46 142.69 76.7 C141.69 80.07 141.69 80.07 139.69 81.51 C137.28 83.39 137.28 84.21 136.69 87.13 C135.93 90.9 135.93 90.9 133.57 92.57 C132.95 92.74 132.33 92.9 131.69 93.07 C131.28 95.78 131.36 97.53 132.8 99.89 C133.71 101.12 134.65 102.33 135.6 103.52 C136.69 105.07 136.69 105.07 136.69 107.07 C137.35 107.07 138.01 107.07 138.69 107.07 C139.84 108.68 139.84 108.68 141.07 110.82 C142.56 113.32 143.8 115.18 145.88 117.26 C147.99 119.37 148.63 121.3 149.69 124.07 C150.43 124.81 150.43 124.81 151.19 125.57 C153.13 127.5 153.79 129.51 154.69 132.07 C156.18 131.08 156.18 131.08 157.69 130.07 C159.71 129.51 159.71 129.51 162 129.07 C162.83 128.91 163.66 128.74 164.51 128.57 C165.38 128.41 166.24 128.24 167.13 128.07 C168.84 127.74 170.54 127.41 172.25 127.07 C173.01 126.93 173.76 126.78 174.54 126.63 C176.73 126.14 176.73 126.14 178.71 125.04 C184.25 122.34 192.74 123.04 198.69 124.07 C201.14 125.52 202.13 126.61 203.52 129.05 C204.69 131.3 204.69 131.3 207.22 133.34 C210.29 136.73 210.68 139.09 211.38 143.57 C212.11 148.03 212.89 151.92 214.69 156.07 C216.4 160.65 217.25 165.11 217.82 169.95 C217.9 170.63 217.99 171.32 218.08 172.03 C218.29 173.71 218.49 175.39 218.69 177.07 C219.68 177.4 220.67 177.73 221.69 178.07 C221.69 181.04 221.69 184.01 221.69 187.07 C221.03 187.4 220.37 187.73 219.69 188.07 C219.08 189.64 218.53 191.22 218 192.82 C216.33 197.08 214.88 199.76 210.96 202.18 C206.99 203.74 202.89 204.22 198.68 204.71 C193.87 205.24 193.87 205.24 189.75 207.57 C187.37 209.31 185.71 209.64 182.82 210.07 C178.63 210.7 175.42 212.07 171.69 214.07 C171.71 214.98 171.74 215.89 171.76 216.82 C172.11 241.31 172.11 241.31 168.14 245.84 C167.66 246.25 167.18 246.65 166.69 247.07 C166.24 250.59 166.52 253.21 168.69 256.07 C170.68 256.77 172.68 257.43 174.69 258.07 C178.1 259.95 181.39 262.01 184.69 264.07 C187.51 265.8 190.16 267.28 193.19 268.63 C198.5 271.61 200.65 277.63 202.35 283.23 C202.81 285.73 202.29 287.62 201.69 290.07 C201.57 290.85 201.44 291.64 201.32 292.45 C199.87 298.5 196.84 303.76 193.69 309.07 C193.16 310 192.62 310.93 192.07 311.88 C190.69 314.07 190.69 314.07 188.69 316.07 C188.26 317.77 188.26 317.77 187.82 319.51 C186.56 323.49 185.84 323.71 182.69 326.07 C182.01 328.4 181.34 330.73 180.69 333.07 C179.7 333.4 178.71 333.73 177.69 334.07 C177.35 335.22 177.35 335.22 177 336.38 C175.04 340.4 171.75 341.51 167.69 343.07 C160.39 345.27 154.19 342.25 147.69 339.07 C146.96 338.74 146.23 338.41 145.48 338.07 C143.69 337.07 143.69 337.07 142.69 335.07 C140.58 333.94 140.58 333.94 138.13 332.95 C137.3 332.59 136.48 332.24 135.62 331.88 C134.99 331.61 134.35 331.34 133.69 331.07 C133.69 330.41 133.69 329.75 133.69 329.07 C132.62 328.8 131.55 328.53 130.44 328.26 C127.06 327.19 125.37 326.24 122.69 324.07 C122.11 324.69 121.53 325.3 120.93 325.93 C116.76 330.25 113.28 333.67 107.69 336.07 C107.18 336.59 106.66 337.1 106.13 337.63 C104.69 339.07 104.69 339.07 102.19 340.01 C99.58 340.86 99.58 340.86 98.25 343.07 C96.69 345.07 96.69 345.07 93.63 346.01 C90.52 346.79 90.52 346.79 89.19 349.51 C88.33 352.3 88.33 352.3 90.69 355.07 C91.38 358.34 91.94 361.61 92.46 364.91 C93.07 368.48 93.8 371.31 95.26 374.68 C97.54 380.09 97.49 385.3 96.69 391.07 C95.35 393.85 94.07 394.96 91.69 397.07 C91.01 397.81 90.33 398.56 89.63 399.32 C85.79 402.79 81.61 403.67 76.69 405.07 C76.05 405.4 75.41 405.73 74.75 406.07 C72.55 407.14 70.64 407.6 68.24 408.04 C67.39 408.2 66.54 408.36 65.67 408.52 C63.91 408.84 62.15 409.16 60.4 409.48 C56.13 410.29 52.09 411.21 47.99 412.67 C41.46 414.95 33.92 415.46 27.27 413.27 C24.11 411.58 22.84 410.52 21.69 407.07 C20.7 406.74 19.71 406.41 18.69 406.07 C17.56 403.3 17.56 403.3 16.57 399.82 C16.07 398.11 16.07 398.11 15.56 396.37 C14.69 393.07 14.69 393.07 14.2 390.34 C13.77 387.81 13.77 387.81 11.69 385.07 C11.09 382.58 11.09 382.58 10.63 379.76 C10.47 378.83 10.32 377.91 10.16 376.96 C10 376 9.85 375.05 9.69 374.07 C9.36 372.07 9.03 370.07 8.69 368.07 C7.93 367.96 7.16 367.85 6.37 367.73 C2.85 367.22 -0.67 366.71 -4.18 366.2 C-5.99 365.93 -5.99 365.93 -7.83 365.67 C-24.83 363.17 -24.83 363.17 -30.45 361.39 C-31.06 361.29 -31.68 361.18 -32.31 361.07 C-34.45 362.97 -34.45 362.97 -36.31 365.07 C-36.97 365.07 -37.63 365.07 -38.31 365.07 C-38.37 366.29 -38.43 367.5 -38.5 368.76 C-39.05 373.31 -40.91 375 -44.31 378.07 C-45.34 380.05 -46.34 382.05 -47.31 384.07 C-53.83 394.25 -53.83 394.25 -59.31 396.07 C-71.39 397.64 -79.42 393.67 -89.28 387.09 C-93.81 384.07 -98.54 381.48 -103.32 378.89 C-103.99 378.52 -104.67 378.15 -105.37 377.76 C-106.75 377.01 -108.13 376.26 -109.52 375.51 C-115.38 372.28 -120.3 368.65 -122.8 362.18 C-123.82 357.91 -124.04 353.39 -123.31 349.07 C-122.32 348.41 -121.33 347.75 -120.31 347.07 C-119.41 344.95 -119.41 344.95 -118.81 342.57 C-117.64 338.29 -117.64 338.29 -114.31 336.07 C-113.58 334.44 -112.85 332.81 -112.19 331.15 C-111.18 328.76 -110.03 326.49 -108.81 324.2 C-108.21 323.05 -108.21 323.05 -107.59 321.89 C-106.31 320.07 -106.31 320.07 -103.31 319.07 C-103.74 318.44 -104.17 317.82 -104.62 317.17 C-105.18 316.35 -105.73 315.54 -106.31 314.7 C-106.87 313.88 -107.42 313.07 -108 312.23 C-109.31 310.07 -109.31 310.07 -109.31 308.07 C-109.97 308.07 -110.63 308.07 -111.31 308.07 C-111.31 307.41 -111.31 306.75 -111.31 306.07 C-111.97 306.07 -112.63 306.07 -113.31 306.07 C-114.27 304.7 -115.22 303.32 -116.11 301.91 C-117.41 299.92 -118.84 298.07 -120.31 296.2 C-123.23 292.36 -125.28 288.44 -127.31 284.07 C-135.98 283.24 -135.98 283.24 -143.93 285.95 C-150.77 290.25 -160.34 291.12 -168.31 290.07 C-173.4 288.52 -178.08 286.42 -181.31 282.07 C-183.47 277.81 -184.44 274.8 -184.31 270.07 C-185.3 268.59 -185.3 268.59 -186.31 267.07 C-186.7 265.27 -187.03 263.45 -187.31 261.63 C-187.86 258.01 -188.63 255.31 -190.31 252.07 C-190.31 250.4 -190.31 248.74 -190.31 247.07 C-190.97 246.08 -191.63 245.09 -192.31 244.07 C-192.65 241.98 -192.65 241.98 -192.81 239.7 C-193.13 236.16 -193.74 233.3 -195.31 230.07 C-194.65 230.07 -193.99 230.07 -193.31 230.07 C-193.34 229.36 -193.37 228.64 -193.41 227.91 C-193.31 220.27 -193.31 220.27 -190.48 216.89 C-183.18 211.12 -175.6 208.68 -166.47 207.25 C-164.73 206.95 -163.02 206.52 -161.31 206.07 C-160.65 205.08 -159.99 204.09 -159.31 203.07 C-156.49 202.78 -156.49 202.78 -153.18 202.88 C-151.54 202.92 -151.54 202.92 -149.86 202.96 C-149.02 203 -148.18 203.03 -147.31 203.07 C-147.21 202.01 -147.11 200.96 -147.01 199.87 C-145.69 186.48 -143.66 173.12 -140.31 160.07 C-141.12 159.57 -141.93 159.08 -142.77 158.57 C-149.17 154.64 -155.55 150.67 -161.87 146.61 C-163.57 145.54 -165.31 144.5 -167.05 143.5 C-169.61 141.88 -170.03 140.72 -171.31 138.07 C-171.96 137.78 -172.61 137.5 -173.28 137.2 C-175.31 136.07 -175.31 136.07 -176.21 134.26 C-177.52 128.22 -177.52 122.91 -175.31 117.07 C-172.81 114.32 -172.81 114.32 -170.31 112.07 C-169.59 110.09 -168.92 108.09 -168.31 106.07 C-167.6 105.37 -167.6 105.37 -166.88 104.66 C-165.04 102.8 -164.3 101.11 -163.31 98.7 C-160.9 93.04 -157.72 88.18 -154.31 83.07 C-153.81 82.22 -153.32 81.38 -152.81 80.51 C-152.31 79.7 -151.82 78.9 -151.31 78.07 C-150.79 77.2 -150.28 76.34 -149.75 75.45 C-146.14 71.93 -142.21 70.92 -137.31 70.07 C-131.68 70.27 -126.57 72.17 -121.31 74.07 C-121.31 74.73 -121.31 75.39 -121.31 76.07 C-120.28 76.3 -119.25 76.52 -118.18 76.76 C-114.73 77.73 -112.65 79.34 -109.98 81.77 C-106.79 84.26 -103.07 85.64 -99.31 87.07 C-98.42 87.42 -97.53 87.77 -96.62 88.13 C-92.85 88.03 -91.05 85.56 -88.31 83.07 C-87.65 83.07 -86.99 83.07 -86.31 83.07 C-86.27 82.47 -86.23 81.87 -86.18 81.26 C-84.87 77.96 -82.44 77.51 -79.31 76.07 C-78.79 75.53 -78.28 75 -77.75 74.45 C-76.31 73.07 -76.31 73.07 -73.81 72.63 C-71.16 72.33 -71.16 72.33 -69.87 70.07 C-67.69 67.28 -65.71 67.51 -62.31 67.07 C-62.56 64.51 -62.84 61.94 -63.12 59.38 C-63.19 58.66 -63.26 57.94 -63.33 57.2 C-63.85 52.68 -64.89 49.97 -67.31 46.07 C-68 43.4 -68.58 40.84 -69.06 38.13 C-69.2 37.44 -69.33 36.75 -69.48 36.04 C-70.26 31.75 -70.28 28.31 -69.31 24.07 C-69.04 22.83 -68.77 21.6 -68.5 20.32 C-67.31 17.07 -67.31 17.07 -65.31 15.88 C-64.65 15.61 -63.99 15.35 -63.31 15.07 C-63.05 14.43 -62.8 13.78 -62.54 13.12 C-61.31 11.07 -61.31 11.07 -58.73 10.09 C-57.71 9.88 -56.68 9.67 -55.62 9.45 C-54.53 9.21 -53.45 8.97 -52.32 8.72 C-51.33 8.5 -50.33 8.29 -49.31 8.07 C-47.61 7.58 -47.61 7.58 -45.87 7.07 C-41.58 5.87 -37.25 4.91 -32.91 3.93 C-29.15 3.03 -25.46 1.96 -21.75 0.88 C-14.54 -1.03 -7.18 -2.89 0 0 Z " fill="#000002" transform="translate(1058.30859375,843.9296875)"/>
<path d="M0 0 C1.06 -0.01 2.11 -0.02 3.2 -0.02 C13.16 0 22.73 0.83 31.75 5.25 C32.93 5.68 32.93 5.68 34.12 6.12 C41.35 9.22 47.21 13.24 53.19 18.31 C53.8 18.83 54.42 19.35 55.05 19.88 C58.1 22.53 60 24.59 61.75 28.25 C63.07 28.95 64.4 29.61 65.75 30.25 C69.65 34.4 72.46 39.23 74.79 44.39 C75.72 46.35 75.72 46.35 77.3 48.19 C78.94 50.52 79.32 52.14 79.75 54.94 C80.32 58.26 81.05 61.19 82.31 64.31 C85.75 74.31 85.06 85.7 84 96.06 C83.93 96.82 83.85 97.58 83.78 98.36 C83.27 102.57 82.45 105.03 79.75 108.25 C78.98 110.59 78.98 110.59 78.56 113 C78.4 113.8 78.25 114.6 78.08 115.42 C77.97 116.03 77.86 116.63 77.75 117.25 C77.09 117.25 76.43 117.25 75.75 117.25 C75.6 117.89 75.46 118.53 75.3 119.19 C73.62 125.68 71.37 129.5 66.75 134.25 C65.58 135.62 64.41 137 63.25 138.38 C60.32 141.71 57.26 144.51 53.75 147.25 C53.04 147.82 52.32 148.38 51.59 148.97 C45.26 153.96 39.29 158.26 31.75 161.25 C31.16 161.51 30.56 161.77 29.95 162.03 C15.54 168 -1.47 167.5 -16.62 165 C-17.67 164.84 -17.67 164.84 -18.73 164.67 C-23.25 163.82 -25.83 162.24 -29.25 159.25 C-30.34 158.94 -31.44 158.63 -32.56 158.31 C-48.87 153.61 -63 137.35 -71.25 123.25 C-71.78 122.4 -72.3 121.55 -72.85 120.67 C-74.78 117.33 -75.98 113.88 -77.25 110.25 C-77.6 109.32 -77.95 108.39 -78.31 107.44 C-84.22 87.36 -82.27 62.81 -72.25 44.25 C-68.04 37.17 -63.14 31 -57.25 25.25 C-56.6 24.58 -55.96 23.91 -55.29 23.23 C-54.6 22.51 -53.9 21.8 -53.19 21.06 C-52.54 20.39 -51.89 19.71 -51.21 19.02 C-49.29 17.29 -47.57 16.34 -45.25 15.25 C-44.71 14.65 -44.18 14.05 -43.62 13.44 C-32.43 3.13 -14.63 -0.11 0 0 Z " fill="#FCFCFC" transform="translate(1070.25,967.75)"/>
<path d="M0 0 C0.99 0 1.98 0 3 0 C3 5.28 3 10.56 3 16 C2.01 15.67 1.02 15.34 0 15 C0 10.05 0 5.1 0 0 Z " fill="#7B7B7D" transform="translate(380,347)"/>
</svg>
