<?xml version="1.0" standalone="no"?>
<!DOCTYPE svg PUBLIC "-//W3C//DTD SVG 20010904//EN"
 "http://www.w3.org/TR/2001/REC-SVG-20010904/DTD/svg10.dtd">
<svg version="1.0" xmlns="http://www.w3.org/2000/svg"
 width="225.000000pt" height="225.000000pt" viewBox="0 0 225.000000 225.000000"
 preserveAspectRatio="xMidYMid meet">

<g transform="translate(0.000000,225.000000) scale(0.100000,-0.100000)"
fill="#000000" stroke="none">
<path d="M935 1891 c-201 -91 -142 -390 78 -391 128 0 213 89 205 215 -5 83
-38 133 -109 169 -62 31 -117 33 -174 7z m138 -25 c142 -51 156 -242 24 -317
-48 -27 -133 -23 -175 8 -94 69 -106 189 -27 268 52 52 110 65 178 41z"/>
<path d="M830 1424 c-45 -20 -96 -69 -123 -119 -19 -35 -22 -56 -22 -170 l0
-130 208 -3 c199 -2 207 -3 207 -22 0 -15 7 -20 28 -20 40 0 46 -10 20 -37
l-22 -23 39 -40 c42 -43 56 -48 75 -25 19 23 30 18 30 -15 l0 -30 65 0 65 0 0
30 c0 33 11 38 30 15 19 -23 33 -18 75 25 l39 40 -22 23 c-26 27 -20 37 20 37
28 0 28 1 28 60 l0 60 -35 0 c-41 0 -43 5 -13 37 l22 23 -39 40 c-42 43 -56
48 -75 25 -19 -23 -30 -18 -30 15 0 25 -4 30 -25 30 -19 0 -28 8 -40 37 -25
60 -61 99 -117 127 -49 25 -60 26 -202 26 -112 -1 -160 -5 -186 -16z m370 -36
c45 -24 93 -76 105 -115 5 -19 2 -23 -14 -23 -17 0 -21 -6 -21 -30 0 -33 -11
-38 -30 -15 -19 23 -33 18 -75 -25 l-39 -40 22 -23 c26 -27 20 -37 -20 -37
-21 0 -28 -5 -28 -20 0 -19 -7 -20 -195 -20 l-195 0 0 83 c0 45 5 100 10 121
13 57 58 116 109 143 40 21 57 23 185 23 127 0 146 -2 186 -22z m170 -197 c0
-36 35 -49 62 -24 17 16 20 15 40 -4 19 -19 19 -23 5 -43 -23 -32 -4 -70 35
-70 24 0 28 -4 28 -30 0 -26 -4 -30 -28 -30 -40 0 -61 -43 -36 -72 17 -18 17
-20 -4 -40 -20 -20 -23 -21 -40 -5 -27 25 -62 12 -62 -24 0 -26 -3 -29 -35
-29 -31 0 -35 3 -35 25 0 37 -42 55 -70 30 -20 -18 -21 -18 -42 3 -21 21 -21
22 -3 42 25 28 7 70 -30 70 -21 0 -25 5 -25 30 0 26 3 30 29 30 37 0 52 42 25
71 -16 18 -15 20 7 38 22 18 25 18 42 4 25 -23 67 -3 67 32 0 22 4 25 35 25
32 0 35 -3 35 -29z"/>
<path d="M1273 1134 c-21 -10 -40 -32 -54 -61 -19 -40 -20 -49 -10 -85 15 -49
52 -85 97 -94 49 -9 82 2 121 41 28 28 33 40 33 83 0 101 -96 161 -187 116z
m106 -28 c69 -36 64 -146 -8 -176 -62 -25 -131 20 -131 85 0 46 13 71 48 89
34 19 56 20 91 2z"/>
<path d="M931 399 c-11 -24 -17 -46 -14 -49 3 -3 8 1 10 8 5 14 53 17 53 2 0
-5 5 -10 10 -10 11 0 -14 68 -30 84 -6 6 -17 -8 -29 -35z"/>
<path d="M1017 433 c-4 -3 -7 -24 -7 -45 0 -32 3 -38 21 -38 34 0 59 19 59 45
0 32 -52 60 -73 38z m51 -41 c3 -17 -2 -22 -17 -22 -16 0 -21 6 -21 26 0 33
33 30 38 -4z"/>
<path d="M1110 395 c0 -25 5 -45 10 -45 6 0 10 12 10 28 0 20 3 23 9 13 8 -12
12 -12 25 -2 12 10 15 8 19 -16 3 -18 5 -11 6 20 1 50 -10 61 -26 25 l-10 -23
-12 23 c-19 35 -31 26 -31 -23z"/>
<path d="M1223 395 c0 -27 2 -38 4 -22 2 15 2 37 0 50 -2 12 -4 0 -4 -28z"/>
<path d="M1261 394 c1 -31 4 -39 6 -20 l5 28 29 -28 29 -28 -1 50 c-1 31 -4
39 -6 20 l-5 -28 -29 28 -29 28 1 -50z"/>
<path d="M1066 253 c-6 -14 -5 -15 5 -6 7 7 10 15 7 18 -3 3 -9 -2 -12 -12z"/>
<path d="M1161 254 c0 -11 3 -14 6 -6 3 7 2 16 -1 19 -3 4 -6 -2 -5 -13z"/>
</g>
</svg>
