<?xml version="1.0" encoding="UTF-8"?>
<!-- Generator: visioncortex VTracer 0.6.3 -->
<svg version="1.1" xmlns="http://www.w3.org/2000/svg" width="1280" height="1280">
<path d="M0 0 C422.4 0 844.8 0 1280 0 C1280 422.4 1280 844.8 1280 1280 C857.6 1280 435.2 1280 0 1280 C0 857.6 0 435.2 0 0 Z " fill="#FCFCFC" transform="translate(0,0)"/>
<path d="M0 0 C2.19 -0 4.37 -0.01 6.56 -0.01 C12.45 -0.02 18.34 -0.01 24.23 0 C30.42 0.01 36.62 0.01 42.82 0.01 C53.23 0.01 63.64 0.02 74.05 0.04 C86.03 0.06 98.02 0.06 110 0.05 C121.58 0.05 133.17 0.05 144.75 0.07 C149.66 0.07 154.56 0.07 159.46 0.07 C165.25 0.07 171.05 0.08 176.84 0.09 C178.95 0.1 181.06 0.1 183.17 0.09 C193.59 0.08 203.93 0.3 214.32 1.23 C215.17 1.31 216.03 1.38 216.9 1.46 C224.18 2.19 230.2 4.35 236.86 7.37 C238.46 7.9 238.46 7.9 240.08 8.43 C242.9 9.39 244.53 10.57 246.86 12.37 C247.58 12.61 248.29 12.85 249.03 13.09 C252.99 14.88 255.93 17.52 259.18 20.37 C260.17 21.24 260.17 21.24 261.18 22.12 C266.34 26.71 271.14 31.51 274.86 37.37 C274.86 38.03 274.86 38.69 274.86 39.37 C275.48 39.66 276.1 39.95 276.74 40.25 C278.86 41.37 278.86 41.37 280.86 43.37 C281.26 45.7 281.6 48.03 281.86 50.37 C282.52 50.37 283.18 50.37 283.86 50.37 C285.67 52.93 286.83 55.27 287.8 58.25 C288.68 60.85 289.57 62.64 290.99 64.93 C292.79 68.24 293.31 69.72 292.86 73.37 C293.52 73.37 294.18 73.37 294.86 73.37 C297.52 76.96 298.72 80.79 300.05 84.99 C302.28 91.56 305.52 97.72 308.64 103.9 C310.89 108.45 312.88 113.1 314.89 117.76 C316.27 120.92 317.59 123.94 319.43 126.87 C321.07 129.74 321.98 132.57 322.98 135.71 C325.61 143.66 328.56 151.19 332.86 158.37 C335.4 163.9 337.49 169.59 339.66 175.27 C340.98 178.68 342.41 182.02 343.86 185.37 C345.22 189.44 345.09 193.23 345.11 197.5 C345.14 198.72 345.14 198.72 345.18 199.97 C345.21 205.85 344.35 211.01 341.86 216.37 C341.2 217.03 340.54 217.69 339.86 218.37 C339.59 219.14 339.33 219.9 339.05 220.68 C337.57 224.03 335.53 225.91 332.86 228.37 C332.2 229.03 331.54 229.69 330.86 230.37 C330.1 230.66 329.34 230.95 328.55 231.25 C325.75 232.26 325.75 232.26 323.49 234.43 C320.86 236.37 320.86 236.37 317.24 236.87 C316.12 237.04 315.01 237.2 313.86 237.37 C313.17 238.35 313.17 238.35 312.46 239.34 C310.4 241.96 309.17 241.98 305.93 242.37 C301.46 243.1 299.97 244.07 296.86 247.37 C294.82 248.21 292.75 248.82 290.63 249.46 C287.23 250.58 283.96 251.95 280.68 253.37 C279.53 253.87 278.38 254.36 277.19 254.87 C274.99 255.86 272.81 256.92 270.67 258.03 C267.86 259.37 267.86 259.37 264.11 259.81 C263.04 260 261.97 260.18 260.86 260.37 C260.56 261.02 260.25 261.67 259.94 262.34 C258.86 264.37 258.86 264.37 256.77 265.09 C255.97 265.21 255.18 265.32 254.36 265.43 C251.99 265.72 251.99 265.72 249.86 266.37 C249.2 267.36 248.54 268.35 247.86 269.37 C245.44 270.22 245.44 270.22 242.55 270.87 C238.44 271.9 235.44 273.08 231.86 275.37 C229.28 276.44 226.68 277.43 224.07 278.41 C221.71 279.28 221.71 279.28 219.86 281.37 C217.91 281.83 217.91 281.83 215.61 282.18 C210.76 283.15 208.45 285.05 204.86 288.37 C204.2 288.37 203.54 288.37 202.86 288.37 C203.19 304.54 203.52 320.71 203.86 337.37 C265.57 337.37 327.28 337.37 390.86 337.37 C387.23 334.73 383.6 332.09 379.86 329.37 C374.59 322.35 375.71 314.32 375.72 305.82 C375.71 303.94 375.71 303.94 375.71 302.03 C375.7 298.61 375.7 295.19 375.7 291.77 C375.69 289.63 375.69 287.49 375.69 285.35 C375.68 277.87 375.68 270.39 375.68 262.91 C375.68 255.96 375.67 249.01 375.65 242.06 C375.64 236.07 375.63 230.08 375.63 224.1 C375.63 220.53 375.63 216.96 375.62 213.4 C375.61 209.41 375.61 205.43 375.62 201.44 C375.61 200.28 375.61 199.11 375.6 197.91 C375.67 179.6 375.67 179.6 379.54 175.67 C381.3 174.43 381.3 174.43 383.19 173.36 C385.34 172.09 386.43 170.38 387.86 168.37 C391.47 167.17 394.84 167.14 398.59 167.06 C399.34 167.04 400.09 167.01 400.87 166.99 C403.26 166.93 405.66 166.87 408.05 166.81 C409.67 166.77 411.3 166.72 412.92 166.68 C416.9 166.57 420.88 166.47 424.86 166.37 C425.01 162.74 425.01 162.74 423.86 159.37 C423.81 156.75 423.82 154.17 423.88 151.55 C423.89 150.77 423.91 149.99 423.93 149.19 C423.97 147.53 424.01 145.88 424.05 144.23 C424.11 141.71 424.15 139.2 424.19 136.69 C424.23 135.08 424.27 133.47 424.32 131.86 C424.33 130.74 424.33 130.74 424.34 129.6 C424.55 123.16 426.04 118.47 430.36 113.5 C433.58 110.76 435.92 110.25 440.01 110.23 C440.85 110.23 441.7 110.22 442.57 110.21 C443.49 110.21 444.41 110.21 445.36 110.21 C446.34 110.21 447.31 110.2 448.32 110.2 C451.55 110.18 454.77 110.17 458 110.17 C460.25 110.16 462.49 110.16 464.73 110.15 C469.44 110.14 474.15 110.14 478.86 110.13 C484.88 110.13 490.91 110.1 496.94 110.07 C501.57 110.06 506.21 110.05 510.84 110.05 C513.07 110.05 515.29 110.04 517.51 110.02 C520.62 110.01 523.73 110.01 526.84 110.02 C527.76 110.01 528.67 110 529.62 109.99 C536.2 110.03 541.06 111.01 546.24 115.37 C548.72 118.42 548.99 121.03 549.05 124.83 C549.07 125.73 549.09 126.62 549.1 127.55 C549.12 128.51 549.13 129.48 549.14 130.47 C549.16 131.47 549.18 132.46 549.2 133.48 C549.28 137.73 549.35 141.98 549.41 146.24 C549.47 149.34 549.52 152.44 549.58 155.54 C549.59 156.51 549.61 157.48 549.62 158.48 C549.65 159.81 549.65 159.81 549.67 161.18 C549.69 162.36 549.69 162.36 549.71 163.56 C549.67 165.39 549.67 165.39 550.86 166.37 C553.11 166.47 555.36 166.5 557.61 166.51 C559.02 166.53 560.43 166.55 561.84 166.57 C564.06 166.6 566.27 166.62 568.49 166.62 C586.1 166.65 586.1 166.65 592.86 172.37 C598.57 180.57 599.73 188.25 599.62 198.03 C599.63 199.34 599.64 200.65 599.65 202 C599.67 205.55 599.66 209.1 599.64 212.66 C599.62 216.4 599.63 220.14 599.63 223.88 C599.64 230.16 599.62 236.44 599.59 242.72 C599.55 249.96 599.55 257.19 599.58 264.42 C599.6 271.42 599.59 278.41 599.57 285.4 C599.56 288.36 599.56 291.32 599.57 294.28 C599.59 298.43 599.56 302.57 599.53 306.72 C599.53 307.93 599.54 309.14 599.55 310.38 C599.44 318.35 598.18 325.53 593.86 332.37 C591.1 334.23 589.18 334.7 585.86 335.37 C586.19 336.03 586.52 336.69 586.86 337.37 C588.69 337.36 588.69 337.36 590.55 337.34 C603.29 337.49 603.29 337.49 607.44 339.82 C609.14 341.58 610.46 343.37 611.86 345.37 C612.7 346.09 613.54 346.8 614.41 347.53 C617.55 351.17 617.49 353.04 617.48 357.79 C617.48 358.52 617.49 359.25 617.49 360 C617.51 362.4 617.48 364.8 617.46 367.2 C617.45 368.87 617.45 370.54 617.46 372.21 C617.45 375.7 617.44 379.19 617.4 382.68 C617.36 387.17 617.36 391.65 617.37 396.13 C617.37 399.58 617.36 403.02 617.34 406.46 C617.33 408.12 617.33 409.77 617.33 411.42 C617.33 413.73 617.31 416.03 617.28 418.34 C617.27 419.65 617.27 420.97 617.26 422.32 C617.13 423.33 617 424.33 616.86 425.37 C615.87 426.03 614.88 426.69 613.86 427.37 C613.62 428.53 613.37 429.68 613.11 430.87 C612.7 432.03 612.29 433.18 611.86 434.37 C607.1 436.19 602.68 436.66 597.62 436.79 C596.63 436.82 596.63 436.82 595.63 436.85 C593.56 436.9 591.49 436.95 589.43 437 C588.01 437.04 586.6 437.07 585.18 437.11 C581.74 437.21 578.3 437.29 574.86 437.37 C574.86 437.92 574.86 438.46 574.86 439.02 C574.8 471.22 574.73 503.42 574.63 535.62 C574.62 539.48 574.61 543.35 574.6 547.22 C574.6 547.99 574.6 548.76 574.59 549.55 C574.56 562.01 574.53 574.48 574.51 586.94 C574.49 599.73 574.46 612.51 574.41 625.3 C574.39 633.19 574.37 641.08 574.36 648.98 C574.36 655.03 574.34 661.08 574.31 667.13 C574.3 669.61 574.3 672.09 574.3 674.58 C574.3 677.96 574.28 681.35 574.26 684.74 C574.27 686.21 574.27 686.21 574.28 687.72 C574.22 693.36 573.61 697.41 570.86 702.37 C568.36 704.12 568.36 704.12 565.86 705.37 C565.46 705.88 565.06 706.4 564.65 706.93 C561.84 709.2 559.29 708.76 555.73 708.78 C555.01 708.78 554.29 708.79 553.54 708.8 C551.15 708.82 548.76 708.81 546.37 708.81 C544.71 708.81 543.05 708.82 541.39 708.82 C537.9 708.83 534.41 708.83 530.92 708.82 C526.46 708.81 522 708.83 517.54 708.86 C514.1 708.87 510.66 708.87 507.23 708.87 C505.58 708.87 503.94 708.87 502.29 708.89 C499.99 708.9 497.69 708.89 495.38 708.87 C494.07 708.87 492.76 708.87 491.41 708.87 C485.68 708.06 481.55 704.72 477.86 700.37 C475.18 695.5 475.58 690.47 475.59 685.07 C475.59 684.02 475.58 682.97 475.58 681.89 C475.56 678.37 475.56 674.85 475.56 671.34 C475.55 668.82 475.54 666.3 475.53 663.78 C475.52 658.35 475.5 652.92 475.5 647.49 C475.49 639.64 475.46 631.8 475.44 623.95 C475.4 611.21 475.37 598.47 475.34 585.73 C475.34 584.97 475.34 584.21 475.33 583.42 C475.33 582.66 475.33 581.89 475.33 581.11 C475.31 570.28 475.28 559.45 475.26 548.62 C475.25 547.86 475.25 547.1 475.25 546.31 C475.22 533.62 475.18 520.92 475.14 508.23 C475.12 500.4 475.1 492.56 475.09 484.73 C475.08 478.73 475.06 472.74 475.05 466.75 C475.04 464.28 475.03 461.82 475.03 459.35 C475.03 456 475.02 452.65 475.01 449.3 C475.01 448.31 475.01 447.32 475.01 446.31 C475 445.41 475 444.52 475 443.6 C474.99 442.83 474.99 442.05 474.99 441.26 C474.98 439.28 474.98 439.28 473.86 437.37 C289.39 437.37 104.92 437.37 -85.14 437.37 C-85.47 522.18 -85.8 606.99 -86.14 694.37 C-89.42 703.13 -89.42 703.13 -94.14 705.37 C-94.74 706.14 -94.74 706.14 -95.35 706.92 C-98.16 709.2 -100.71 708.76 -104.27 708.78 C-105.35 708.79 -105.35 708.79 -106.46 708.8 C-108.85 708.82 -111.24 708.81 -113.63 708.81 C-115.29 708.81 -116.95 708.82 -118.61 708.82 C-122.1 708.83 -125.59 708.83 -129.08 708.82 C-133.54 708.81 -138 708.83 -142.46 708.86 C-145.9 708.87 -149.34 708.87 -152.77 708.87 C-154.42 708.87 -156.06 708.87 -157.71 708.89 C-160.01 708.9 -162.31 708.89 -164.62 708.87 C-166.58 708.87 -166.58 708.87 -168.59 708.87 C-174.1 708.09 -177.12 705.44 -180.89 701.5 C-185.39 695.25 -185.43 689.44 -185.41 682.01 C-185.41 680.97 -185.42 679.93 -185.42 678.86 C-185.44 675.37 -185.44 671.88 -185.44 668.39 C-185.45 665.89 -185.46 663.39 -185.47 660.89 C-185.48 655.5 -185.5 650.11 -185.5 644.73 C-185.51 636.94 -185.54 629.15 -185.56 621.37 C-185.6 608.73 -185.63 596.09 -185.66 583.45 C-185.66 582.7 -185.66 581.94 -185.67 581.16 C-185.67 580.41 -185.67 579.65 -185.67 578.87 C-185.69 568.13 -185.72 557.38 -185.74 546.64 C-185.75 545.5 -185.75 545.5 -185.75 544.35 C-185.78 531.75 -185.82 519.15 -185.86 506.56 C-185.88 498.78 -185.9 491.01 -185.91 483.24 C-185.92 477.29 -185.94 471.35 -185.95 465.4 C-185.96 462.96 -185.97 460.51 -185.97 458.06 C-185.97 454.74 -185.98 451.42 -185.99 448.1 C-185.99 446.62 -185.99 446.62 -185.99 445.12 C-186 444.24 -186 443.36 -186 442.45 C-186.01 441.68 -186.01 440.91 -186.01 440.12 C-185.95 438.34 -185.95 438.34 -187.14 437.37 C-188.75 437.28 -190.37 437.24 -191.99 437.23 C-192.98 437.21 -193.98 437.19 -195.01 437.17 C-197.11 437.14 -199.21 437.12 -201.31 437.12 C-209.33 436.92 -214.44 435.07 -220.14 429.37 C-221.27 425.37 -221.27 421.47 -221.28 417.32 C-221.29 416.63 -221.29 415.94 -221.29 415.23 C-221.3 412.96 -221.3 410.69 -221.31 408.42 C-221.31 406.83 -221.31 405.24 -221.32 403.65 C-221.32 400.33 -221.32 397 -221.32 393.67 C-221.32 389.43 -221.34 385.18 -221.35 380.93 C-221.36 377.65 -221.37 374.37 -221.37 371.09 C-221.37 369.53 -221.37 367.96 -221.38 366.4 C-221.45 350.49 -221.45 350.49 -219.14 344.37 C-216.2 342.56 -216.2 342.56 -213.14 341.37 C-212.74 340.86 -212.35 340.35 -211.94 339.82 C-209.05 337.5 -205.78 337.95 -202.22 337.97 C-201.41 337.97 -200.59 337.96 -199.75 337.95 C-197.01 337.93 -194.27 337.94 -191.53 337.94 C-189.57 337.93 -187.61 337.92 -185.65 337.91 C-180.31 337.88 -174.98 337.87 -169.65 337.87 C-164.08 337.86 -158.51 337.83 -152.94 337.81 C-142.39 337.76 -131.84 337.73 -121.29 337.71 C-109.28 337.68 -97.27 337.64 -85.26 337.59 C-60.55 337.5 -35.85 337.43 -11.14 337.37 C-10.33 334.53 -10.02 332.02 -10.03 329.06 C-10.03 328.2 -10.03 327.34 -10.03 326.46 C-10.04 325.05 -10.04 325.05 -10.05 323.61 C-10.05 322.61 -10.05 321.61 -10.06 320.57 C-10.07 317.21 -10.08 313.84 -10.1 310.48 C-10.11 308.07 -10.12 305.66 -10.12 303.25 C-10.14 297.38 -10.17 291.51 -10.2 285.64 C-10.22 280.87 -10.24 276.1 -10.26 271.33 C-10.26 270.65 -10.26 269.97 -10.26 269.27 C-10.27 267.89 -10.27 266.51 -10.28 265.13 C-10.33 252.21 -10.39 239.28 -10.44 226.35 C-10.49 215.25 -10.54 204.15 -10.58 193.05 C-10.63 180.17 -10.68 167.29 -10.73 154.4 C-10.74 153.03 -10.75 151.66 -10.75 150.29 C-10.75 149.61 -10.76 148.93 -10.76 148.24 C-10.78 143.47 -10.8 138.71 -10.82 133.94 C-10.84 127.53 -10.87 121.12 -10.9 114.71 C-10.91 112.35 -10.92 109.99 -10.93 107.63 C-10.94 104.42 -10.95 101.22 -10.97 98.01 C-10.97 97.07 -10.98 96.12 -10.98 95.15 C-10.98 94.3 -10.99 93.44 -11 92.56 C-11 91.45 -11 91.45 -11.01 90.31 C-11.07 88.15 -11.07 88.15 -12.14 85.37 C-13.09 86.22 -14.05 87.06 -15.03 87.93 C-34.68 105.22 -34.68 105.22 -41.14 107.37 C-41.14 108.03 -41.14 108.69 -41.14 109.37 C-42.56 110.36 -43.98 111.33 -45.44 112.26 C-48.1 114.01 -50.47 116.07 -52.89 118.12 C-53.94 119.01 -54.99 119.89 -56.04 120.78 C-56.56 121.22 -57.08 121.65 -57.62 122.1 C-62.59 126.26 -67.65 130.31 -72.89 134.12 C-77.48 137.52 -81.75 141.29 -86.04 145.06 C-89.58 148.14 -93.2 150.8 -97.14 153.37 C-97.86 154.09 -98.58 154.82 -99.32 155.56 C-101.14 157.37 -101.14 157.37 -104.14 158.37 C-105.09 160.97 -105.09 160.97 -105.67 164.17 C-105.92 165.38 -106.18 166.58 -106.44 167.83 C-106.69 169.1 -106.94 170.37 -107.2 171.68 C-107.46 172.92 -107.71 174.15 -107.98 175.41 C-109.17 181.21 -110.26 187.01 -111.2 192.85 C-111.89 197.15 -112.89 201.2 -114.14 205.37 C-114.7 208.1 -115.24 210.82 -115.76 213.56 C-117.69 223.47 -119.87 233.33 -122.07 243.18 C-122.25 243.97 -122.42 244.75 -122.6 245.55 C-123.3 248.65 -123.99 251.76 -124.69 254.86 C-126.71 263.93 -128.68 273 -130.63 282.07 C-130.98 283.65 -131.33 285.22 -131.7 286.79 C-132.62 290.77 -133.34 294.53 -133.51 298.62 C-133.89 303.08 -135.13 305 -138.14 308.37 C-138.45 309.53 -138.76 310.68 -139.07 311.87 C-140.35 316.06 -141.92 317.44 -145.14 320.37 C-146.27 321.76 -147.39 323.16 -148.51 324.56 C-151.85 328.45 -154.18 329.4 -159.14 330.37 C-159.8 331.03 -160.46 331.69 -161.14 332.37 C-172.46 333.91 -186.63 334.37 -196.14 327.37 C-198.99 325.19 -201.58 322.88 -204.14 320.37 C-205.59 319.13 -205.59 319.13 -207.07 317.87 C-209.66 314.74 -209.9 312.37 -210.14 308.37 C-210.8 308.37 -211.46 308.37 -212.14 308.37 C-214.02 305.17 -214.39 302.79 -214.4 299.09 C-214.41 298.08 -214.41 297.08 -214.41 296.04 C-214.4 294.99 -214.4 293.95 -214.39 292.87 C-214.4 291.83 -214.4 290.78 -214.41 289.7 C-214.41 288.19 -214.41 288.19 -214.4 286.65 C-214.4 285.74 -214.4 284.82 -214.4 283.87 C-214.13 281.26 -213.46 279.62 -212.14 277.37 C-211.48 277.37 -210.82 277.37 -210.14 277.37 C-210.47 276.71 -210.8 276.05 -211.14 275.37 C-211.26 272.31 -211.26 272.31 -211.14 269.37 C-210.81 269.04 -210.48 268.71 -210.14 268.37 C-209.83 266.71 -209.57 265.04 -209.32 263.37 C-208.5 258.13 -207.39 253.02 -206.14 247.87 C-204.73 242.1 -203.54 236.37 -202.73 230.47 C-202.19 227.67 -201.5 225.01 -200.73 222.26 C-199.1 216.41 -197.9 210.52 -196.76 204.56 C-194.99 195.48 -193.05 186.45 -190.95 177.44 C-189.25 170.08 -187.81 162.68 -186.48 155.25 C-185.86 151.85 -185.23 148.65 -184.12 145.38 C-182.51 140.44 -181.99 135.32 -181.28 130.18 C-181.16 129.37 -181.04 128.55 -180.92 127.71 C-180.82 126.97 -180.71 126.23 -180.61 125.48 C-180.1 123.2 -179.26 121.41 -178.14 119.37 C-177.15 119.37 -176.16 119.37 -175.14 119.37 C-175.28 118.55 -175.43 117.72 -175.57 116.87 C-174.83 110.88 -171.02 107.68 -166.41 103.99 C-163.03 101.37 -159.58 98.84 -156.13 96.32 C-152.83 93.91 -149.65 91.38 -146.51 88.75 C-141.82 84.84 -136.93 81.29 -131.91 77.82 C-128.67 75.56 -125.89 73.2 -123.14 70.37 C-120.91 68.58 -118.64 66.87 -116.36 65.15 C-114.12 63.36 -112.16 61.4 -110.14 59.37 C-108.15 58.02 -106.15 56.69 -104.14 55.37 C-103.23 54.63 -102.32 53.89 -101.39 53.12 C-99.14 51.37 -99.14 51.37 -97.14 51.37 C-97.14 50.71 -97.14 50.05 -97.14 49.37 C-95.56 48.01 -95.56 48.01 -93.45 46.5 C-92.36 45.7 -92.36 45.7 -91.24 44.89 C-90.55 44.39 -89.85 43.89 -89.14 43.37 C-85.84 40.83 -85.84 40.83 -82.82 37.99 C-80.72 35.97 -78.45 34.37 -76.07 32.68 C-70.61 28.75 -65.37 24.6 -60.14 20.37 C-54.98 16.24 -49.77 12.36 -44.18 8.83 C-42.06 7.44 -42.06 7.44 -40.44 5.39 C-31.32 -2.6 -11.34 -0.04 0 0 Z " fill="#000002" transform="translate(663.137451171875,457.627685546875)"/>
<path d="M0 0 C1.41 -0 1.41 -0 2.86 -0.01 C6 -0.01 9.13 -0.01 12.27 -0.01 C14.53 -0.01 16.79 -0.02 19.05 -0.02 C25.18 -0.03 31.3 -0.03 37.42 -0.03 C41.26 -0.03 45.09 -0.04 48.92 -0.04 C61.62 -0.05 74.32 -0.05 87.02 -0.05 C87.7 -0.05 88.39 -0.05 89.09 -0.05 C89.77 -0.05 90.46 -0.05 91.16 -0.05 C102.24 -0.05 113.31 -0.06 124.38 -0.07 C135.78 -0.09 147.18 -0.1 158.58 -0.1 C164.96 -0.09 171.35 -0.1 177.74 -0.11 C183.75 -0.12 189.77 -0.12 195.78 -0.11 C197.98 -0.11 200.17 -0.11 202.37 -0.12 C225.43 -0.18 247.92 1.01 268.22 13.13 C269.1 13.6 269.1 13.6 269.99 14.08 C274.86 16.84 278.87 20.36 282.97 24.13 C283.53 24.64 284.08 25.15 284.66 25.68 C287.81 28.64 290.57 31.7 293.22 35.13 C293.84 35.73 294.46 36.33 295.1 36.95 C299.51 41.49 303.01 46.18 305.22 52.13 C305.93 52.73 305.93 52.73 306.65 53.34 C308.94 55.95 309.38 58.66 310.22 62.01 C311.41 66.92 311.41 66.92 313.72 71.34 C315.65 74.92 316.04 78.27 316.39 82.25 C316.47 83.11 316.55 83.97 316.63 84.85 C317.76 98.77 317.56 112.78 317.6 126.74 C317.61 131.04 317.63 135.35 317.65 139.65 C317.7 147.85 317.73 156.06 317.76 164.26 C317.81 180.43 317.89 196.6 317.97 212.77 C317.98 215.45 317.99 218.13 318 220.81 C318.12 247.01 318.37 273.2 318.73 299.4 C318.74 300.21 318.75 301.03 318.76 301.86 C318.86 308.86 318.96 315.85 319.05 322.85 C319.5 354.78 319.5 354.78 319.57 369.9 C319.58 373.62 319.61 377.33 319.66 381.04 C320.1 415.86 320.1 415.86 314.22 427.13 C312.14 428.87 312.14 428.87 310.22 430.13 C309.79 431.06 309.36 431.99 308.91 432.95 C306.19 438.09 302.36 441.21 297.04 443.51 C294.22 444.13 294.22 444.13 290.22 444.13 C290.22 444.79 290.22 445.45 290.22 446.13 C280.3 449.44 267.4 447.72 258.22 443.13 C246.65 436.46 241.28 430.06 237.02 417.36 C235.3 410.4 235.08 403.34 235.07 396.21 C235.07 394.93 235.07 394.93 235.06 393.62 C235.05 390.79 235.04 387.95 235.04 385.11 C235.03 383.07 235.02 381.02 235.01 378.97 C234.99 374.56 234.98 370.14 234.96 365.73 C234.94 358.65 234.92 351.56 234.89 344.48 C234.83 330.6 234.78 316.71 234.74 302.83 C234.61 264.07 234.46 225.31 234.24 186.55 C234.22 183.15 234.21 179.75 234.19 176.35 C234.12 163.71 234.04 151.08 233.93 138.45 C233.9 134.65 233.87 130.85 233.85 127.06 C233.83 122.7 233.79 118.34 233.74 113.98 C233.73 112.4 233.72 110.82 233.71 109.25 C233.7 107.12 233.68 104.98 233.65 102.85 C233.64 101.66 233.63 100.48 233.62 99.26 C233.18 95.8 232.34 93.88 230.22 91.13 C227.72 90.53 227.72 90.53 225.04 90.82 C223.69 90.89 223.69 90.89 222.31 90.96 C221.62 91.02 220.93 91.07 220.22 91.13 C215.25 97.75 215.69 104.19 215.78 112.2 C215.78 113.65 215.78 115.1 215.78 116.55 C215.79 120.53 215.81 124.52 215.84 128.5 C215.87 132.82 215.88 137.15 215.89 141.47 C215.91 149.02 215.94 156.58 215.99 164.13 C216.05 175.28 216.09 186.44 216.13 197.59 C216.19 216.18 216.27 234.77 216.35 253.35 C216.47 279.66 216.57 305.96 216.65 332.27 C216.68 341.49 216.71 350.72 216.74 359.95 C216.75 362.27 216.75 364.58 216.76 366.89 C216.82 384.37 216.88 401.84 216.94 419.32 C216.95 421.65 216.96 423.98 216.97 426.31 C216.97 427.46 216.97 428.61 216.98 429.8 C216.98 430.95 216.99 432.1 216.99 433.29 C216.99 434.44 217 435.58 217 436.77 C217.26 507.56 217.48 578.35 217.56 649.14 C217.56 652.53 217.57 655.92 217.57 659.31 C217.57 660.55 217.57 660.55 217.57 661.82 C217.59 675.13 217.62 688.43 217.67 701.74 C217.71 714.97 217.73 728.21 217.74 741.45 C217.74 749.2 217.76 756.95 217.79 764.7 C217.82 770.44 217.82 776.17 217.81 781.91 C217.81 784.22 217.82 786.52 217.83 788.82 C217.95 805.32 217.4 822.41 205.22 835.13 C204.23 835.46 203.24 835.79 202.22 836.13 C201.93 836.74 201.63 837.35 201.32 837.97 C198.82 842.9 192.67 846.12 187.7 848.18 C186.22 848.66 184.73 849.12 183.23 849.53 C181.19 850.07 181.19 850.07 179.39 851.15 C175.53 852.9 171.45 852.46 167.29 852.45 C166.39 852.46 165.5 852.48 164.58 852.5 C159.52 852.5 156.42 852.2 152.22 849.13 C150.86 848.69 149.49 848.3 148.1 847.95 C141.94 846 137.25 842.08 132.22 838.13 C131.59 837.68 130.95 837.22 130.3 836.75 C126.21 833.69 124.97 830.77 123.22 826.13 C122.56 825.47 121.9 824.81 121.22 824.13 C117.7 812.34 116.64 800.92 116.72 788.68 C116.71 787.01 116.71 785.33 116.7 783.65 C116.68 779.1 116.69 774.55 116.7 770 C116.71 765.07 116.7 760.15 116.69 755.22 C116.67 746.7 116.67 738.18 116.68 729.66 C116.69 717.34 116.67 705.02 116.66 692.7 C116.62 672.7 116.61 652.7 116.61 632.71 C116.61 631.51 116.6 630.32 116.6 629.09 C116.6 627.89 116.6 626.69 116.6 625.46 C116.6 608.47 116.59 591.47 116.58 574.48 C116.58 573.28 116.58 572.08 116.58 570.85 C116.57 550.9 116.54 530.96 116.52 511.01 C116.5 498.71 116.5 486.41 116.5 474.11 C116.5 465.7 116.5 457.29 116.49 448.88 C116.48 444.03 116.48 439.17 116.49 434.31 C116.49 429.87 116.49 425.43 116.48 420.99 C116.48 419.38 116.48 417.77 116.48 416.16 C116.49 413.98 116.48 411.8 116.48 409.62 C116.47 407.8 116.47 407.8 116.47 405.95 C116.52 403 116.52 403 114.22 401.13 C112.19 400.86 112.19 400.86 109.87 400.94 C109.02 400.94 108.17 400.95 107.29 400.96 C106.41 400.97 105.52 400.99 104.6 401.01 C103.25 401.02 103.25 401.02 101.88 401.04 C99.66 401.06 97.44 401.09 95.22 401.13 C95.22 402.43 95.22 402.43 95.22 403.76 C95.16 455.07 95.09 506.39 95 557.7 C94.98 563.86 94.97 570.02 94.96 576.18 C94.96 577.41 94.96 578.64 94.96 579.9 C94.92 599.76 94.9 619.62 94.87 639.48 C94.85 659.86 94.82 680.24 94.78 700.62 C94.75 713.2 94.73 725.77 94.73 738.35 C94.72 746.97 94.7 755.59 94.68 764.21 C94.66 769.19 94.66 774.17 94.66 779.14 C94.66 783.7 94.65 788.26 94.63 792.81 C94.63 794.46 94.63 796.11 94.63 797.75 C94.67 811.31 92.98 824.36 83.72 835.01 C81.26 837.1 78.75 839.12 76.22 841.13 C75.48 841.98 74.74 842.82 73.97 843.7 C70.36 846.9 66.81 847.85 62.22 849.13 C61.13 849.5 60.04 849.88 58.91 850.26 C51.32 852.73 41.65 854.09 34.16 850.7 C33.19 850.18 32.22 849.66 31.22 849.13 C30.44 848.99 29.66 848.84 28.85 848.7 C17.38 846.24 7.77 837.64 1.22 828.13 C0.48 825.82 -0.19 823.49 -0.78 821.13 C-1.55 819.71 -1.55 819.71 -2.34 818.26 C-5.73 810.89 -4.92 801.92 -4.91 793.95 C-4.91 792.74 -4.91 791.53 -4.91 790.29 C-4.92 786.94 -4.92 783.6 -4.91 780.25 C-4.91 776.61 -4.92 772.97 -4.92 769.32 C-4.93 762.94 -4.93 756.56 -4.93 750.18 C-4.93 740.69 -4.94 731.2 -4.95 721.71 C-4.96 706.72 -4.97 691.74 -4.97 676.75 C-4.98 652.97 -5 629.19 -5.03 605.42 C-5.03 596.27 -5.04 587.12 -5.05 577.97 C-5.05 576.95 -5.05 575.94 -5.05 574.89 C-5.07 550.7 -5.09 526.52 -5.11 502.33 C-5.11 501.27 -5.12 500.21 -5.12 499.12 C-5.13 474.42 -5.15 449.72 -5.16 425.01 C-5.16 423.95 -5.17 422.89 -5.17 421.79 C-5.17 413.22 -5.17 404.65 -5.18 396.08 C-5.2 360.77 -5.22 325.46 -5.26 290.16 C-5.27 285.18 -5.27 280.19 -5.28 275.21 C-5.28 274.23 -5.28 273.25 -5.28 272.24 C-5.3 256.44 -5.3 240.63 -5.3 224.83 C-5.31 208.96 -5.32 193.1 -5.34 177.23 C-5.35 167.8 -5.36 158.36 -5.35 148.93 C-5.35 142.63 -5.36 136.34 -5.37 130.04 C-5.38 126.45 -5.38 122.86 -5.37 119.27 C-5.36 115.41 -5.38 111.55 -5.39 107.69 C-5.38 106 -5.38 106 -5.37 104.28 C-5.38 103.25 -5.39 102.23 -5.4 101.17 C-5.4 99.85 -5.4 99.85 -5.4 98.5 C-5.86 95.63 -6.81 94.24 -8.78 92.13 C-12.14 91.41 -15.67 91.58 -18.78 93.13 C-20.16 97.23 -19.94 101.45 -19.96 105.72 C-19.98 107.03 -19.98 107.03 -19.99 108.38 C-20.02 111.32 -20.04 114.27 -20.06 117.22 C-20.07 119.33 -20.09 121.44 -20.11 123.56 C-20.15 128.13 -20.19 132.7 -20.22 137.27 C-20.28 144.6 -20.34 151.92 -20.4 159.25 C-20.5 170.94 -20.59 182.64 -20.68 194.33 C-20.87 218.69 -21.07 243.04 -21.28 267.39 C-21.29 268.63 -21.3 269.88 -21.31 271.16 C-21.57 303.32 -21.85 335.49 -22.22 367.66 C-22.26 371.18 -22.29 374.7 -22.33 378.22 C-22.37 382.24 -22.42 386.27 -22.47 390.29 C-22.49 391.73 -22.5 393.17 -22.52 394.61 C-22.78 421.66 -22.78 421.66 -29.34 429.01 C-30.14 429.71 -30.95 430.41 -31.78 431.13 C-32.08 431.81 -32.39 432.49 -32.71 433.2 C-34.34 436.17 -36.94 437.35 -39.78 439.13 C-40.58 439.83 -41.38 440.54 -42.21 441.26 C-45.29 443.51 -48.1 444.2 -51.78 445.13 C-52.35 445.47 -52.93 445.81 -53.52 446.16 C-61.44 449.57 -73.26 447.5 -80.96 444.52 C-90.66 439.74 -99.56 432.36 -103.78 422.13 C-104.02 419.43 -103.87 416.85 -103.78 414.13 C-104.44 414.13 -105.1 414.13 -105.78 414.13 C-105.8 394.54 -105.82 374.94 -105.83 355.35 C-105.83 346.25 -105.84 337.14 -105.85 328.04 C-105.86 320.09 -105.87 312.15 -105.87 304.2 C-105.87 300 -105.87 295.81 -105.88 291.61 C-105.91 275.73 -105.87 259.86 -105.33 243.98 C-105.29 242.8 -105.25 241.62 -105.21 240.41 C-105.17 239.34 -105.13 238.27 -105.09 237.17 C-105.05 236.24 -105.02 235.31 -104.98 234.35 C-104.78 232.13 -104.78 232.13 -103.78 230.13 C-103.68 228.23 -103.65 226.33 -103.65 224.43 C-103.64 223.23 -103.64 222.03 -103.64 220.79 C-103.64 219.48 -103.64 218.17 -103.64 216.82 C-103.64 215.45 -103.64 214.07 -103.64 212.7 C-103.64 209.8 -103.64 206.91 -103.65 204.01 C-103.65 200.38 -103.65 196.75 -103.64 193.11 C-103.62 178.23 -103.73 163.37 -104.51 148.5 C-104.56 147.55 -104.61 146.6 -104.66 145.62 C-104.73 144.39 -104.73 144.39 -104.8 143.13 C-104.78 141.13 -104.78 141.13 -103.78 139.13 C-103.12 139.13 -102.46 139.13 -101.78 139.13 C-101.78 129.89 -101.78 120.65 -101.78 111.13 C-102.44 111.13 -103.1 111.13 -103.78 111.13 C-104.08 100.18 -103.98 89.5 -102.4 78.63 C-102.21 77.32 -102.21 77.32 -102.02 75.98 C-101.36 71.78 -100.6 68.01 -98.78 64.13 C-98.12 64.13 -97.46 64.13 -96.78 64.13 C-96.68 63.46 -96.58 62.78 -96.48 62.09 C-95.57 56.68 -94.91 53.88 -90.78 50.13 C-90.47 49 -90.16 47.86 -89.84 46.7 C-88.57 42.45 -87.02 41.09 -83.78 38.13 C-82.57 36.79 -81.39 35.44 -80.21 34.07 C-75.13 28.23 -75.13 28.23 -72.78 26.13 C-72.12 26.13 -71.46 26.13 -70.78 26.13 C-70.57 25.56 -70.36 24.98 -70.15 24.38 C-68.28 21.33 -65.76 20.04 -62.78 18.13 C-62.45 17.47 -62.12 16.81 -61.78 16.13 C-59.78 15.3 -57.75 14.67 -55.69 14.01 C-53.42 13.17 -53.42 13.17 -51.78 10.13 C-49.22 9.44 -46.7 9.12 -44.09 8.76 C-41.42 8.31 -41.42 8.31 -39.78 5.13 C-37.76 4.44 -37.76 4.44 -35.3 4 C-34.4 3.83 -33.5 3.67 -32.57 3.5 C-31.63 3.34 -30.69 3.17 -29.71 3.01 C-28.8 2.84 -27.88 2.67 -26.93 2.5 C-17.93 0.88 -9.15 -0.02 0 0 Z " fill="#000002" transform="translate(105.7755126953125,313.8662872314453)"/>
<path d="M0 0 C0.85 0.47 1.7 0.94 2.58 1.43 C5.48 3.31 7.62 5.49 10 8 C10.45 8.48 10.91 8.95 11.38 9.45 C12.8 10.95 14.22 12.47 15.62 14 C16.1 14.51 16.58 15.02 17.07 15.54 C24 23.05 24 23.05 24 28 C24.99 28.33 25.98 28.66 27 29 C27.95 31 27.95 31 28.69 33.44 C29.06 34.64 29.06 34.64 29.45 35.87 C30 38 30 38 30 40 C30.66 40 31.32 40 32 40 C34.67 45.54 35.85 50.68 36.69 56.75 C36.81 57.64 36.94 58.53 37.07 59.45 C38.59 70.7 37.91 80.8 36 92 C35.78 93.29 35.78 93.29 35.56 94.61 C34.54 99.93 32.58 104.26 30 109 C29.33 110.35 28.66 111.71 28 113.06 C25.2 118.63 22.6 123.67 18 128 C16.89 129.39 16.89 129.39 15.75 130.81 C12.58 134.68 8.81 137.79 5 141 C4.45 141.49 3.9 141.98 3.33 142.48 C0.35 145.1 -2.32 146.61 -6 148 C-6.46 148.48 -6.92 148.96 -7.4 149.46 C-9.21 151.2 -10.55 151.76 -12.92 152.54 C-13.69 152.79 -14.46 153.04 -15.26 153.3 C-16.08 153.55 -16.9 153.8 -17.75 154.06 C-19.03 154.46 -19.03 154.46 -20.33 154.86 C-27.85 157.1 -35.15 158.44 -43 159 C-44.12 159.08 -45.25 159.16 -46.41 159.25 C-60.44 159.77 -76.06 156.37 -88.16 149.09 C-89.45 148.33 -90.76 147.6 -92.09 146.91 C-101.61 141.94 -109.28 135.35 -116 127 C-116.7 126.15 -117.4 125.31 -118.12 124.44 C-119.05 123.23 -119.05 123.23 -120 122 C-120.78 121.05 -121.57 120.1 -122.38 119.12 C-135.37 100.63 -136.61 75.51 -133 54 C-131.33 44.69 -131.33 44.69 -130 41 C-129.01 40.34 -128.02 39.68 -127 39 C-126.09 36.69 -126.09 36.69 -125.5 34.06 C-124.59 30.38 -123.76 28.58 -121 26 C-120.77 25.09 -120.55 24.19 -120.31 23.25 C-118.7 19.25 -116.63 17.67 -113.34 14.99 C-110.72 12.76 -108.38 10.36 -106 7.88 C-101.91 3.77 -98.14 0.65 -93 -2 C-91.47 -2.83 -91.47 -2.83 -89.91 -3.68 C-60.79 -18.79 -27.82 -17.42 0 0 Z " fill="#000002" transform="translate(261,127)"/>
<path d="M0 0 C0.84 0.32 1.68 0.65 2.55 0.98 C4.99 2 6.74 3.13 8.81 4.75 C10.88 6.36 12.94 7.96 15.08 9.48 C22.47 14.75 27.31 21.21 32.4 28.66 C33.64 30.47 34.93 32.24 36.25 34 C38.26 37.44 39.17 40.73 40.21 44.55 C40.95 46.85 41.82 48.55 43.12 50.56 C47.11 57.88 46.18 67.22 46.19 75.38 C46.2 76.43 46.21 77.49 46.22 78.59 C46.26 96.44 46.26 96.44 41 103 C40.4 105.15 40.4 105.15 40.12 107.38 C39.18 112.24 37.31 114.37 34 118 C32.37 121.06 30.93 124.16 29.5 127.31 C26.4 132.76 20.91 136.28 16 140 C14.9 140.84 14.9 140.84 13.79 141.71 C12 143 12 143 9.94 143.94 C7.84 144.89 7.84 144.89 6.69 147.06 C4.22 149.9 1.63 149.49 -2 150 C-2.51 150.61 -3.02 151.23 -3.55 151.86 C-7.4 155.22 -11.83 155.75 -16.75 156.75 C-18.3 157.07 -18.3 157.07 -19.88 157.4 C-37.99 160.93 -55.27 158.85 -72 151 C-73.31 150.39 -73.31 150.39 -74.65 149.78 C-79.25 147.57 -83.05 145.27 -87 142 C-87.86 141.34 -88.72 140.67 -89.61 139.99 C-95.97 135 -101.52 129.78 -106 123 C-106 122.34 -106 121.68 -106 121 C-106.99 120.67 -107.98 120.34 -109 120 C-109.84 118.26 -109.84 118.26 -110.5 116.12 C-111.26 113.69 -111.73 112.27 -113.56 110.46 C-115.88 108.11 -115.6 105.19 -116 102 C-116.66 101.01 -117.32 100.02 -118 99 C-120.69 90.73 -121.29 82.57 -121.31 73.94 C-121.32 73.03 -121.32 72.13 -121.33 71.2 C-121.28 66.71 -121.12 63.07 -119 59 C-118.34 59 -117.68 59 -117 59 C-117.3 57.72 -117.3 57.72 -117.61 56.41 C-118.05 52.54 -117.49 50.13 -116.31 46.44 C-115.98 45.34 -115.64 44.25 -115.3 43.12 C-113.94 39.86 -112.28 37.67 -110 35 C-109.55 34.07 -109.09 33.14 -108.62 32.19 C-106.56 28.13 -104.07 24.37 -101 21 C-100.34 21 -99.68 21 -99 21 C-98.74 20.4 -98.48 19.8 -98.21 19.18 C-96.93 16.87 -95.74 15.7 -93.69 14.06 C-91.43 12.21 -89.42 10.41 -87.38 8.31 C-85.03 6.03 -82.86 4.57 -80 3 C-79.24 2.5 -78.47 2.01 -77.69 1.5 C-74.79 -0.12 -71.91 -1.19 -68.77 -2.25 C-66.79 -2.96 -66.79 -2.96 -65 -5 C-63.07 -5.5 -63.07 -5.5 -60.7 -5.85 C-59.83 -5.98 -58.97 -6.11 -58.07 -6.24 C-57.14 -6.37 -56.21 -6.5 -55.25 -6.62 C-54.29 -6.75 -53.34 -6.88 -52.36 -7.02 C-34.49 -9.32 -16.15 -8.59 0 0 Z " fill="#000002" transform="translate(797,272)"/>
<path d="M0 0 C0.82 0 1.64 0 2.48 0 C3.33 -0 4.19 -0.01 5.07 -0.01 C7.92 -0.02 10.78 -0.02 13.63 -0.02 C15.6 -0.02 17.58 -0.03 19.56 -0.03 C23.71 -0.04 27.87 -0.04 32.02 -0.04 C37.34 -0.04 42.65 -0.05 47.97 -0.07 C52.06 -0.08 56.15 -0.08 60.24 -0.08 C62.2 -0.08 64.15 -0.09 66.11 -0.1 C68.86 -0.11 71.61 -0.1 74.36 -0.1 C75.16 -0.1 75.97 -0.11 76.8 -0.11 C81.66 -0.09 85.76 0.35 90.31 2.15 C94.37 10.11 94.47 19.66 95.37 28.46 C95.61 30.78 95.85 33.11 96.1 35.43 C96.26 36.87 96.41 38.3 96.55 39.74 C96.93 43.32 97.58 46.01 99.31 49.15 C99.67 51.95 99.95 54.71 100.18 57.52 C100.84 64.73 101.88 71.79 103.24 78.9 C104.92 87.66 106.22 96.43 107.27 105.3 C107.77 109.45 108.34 113.51 109.3 117.59 C110.55 122.91 111.13 128.28 111.74 133.71 C112.59 140.88 113.55 147.95 114.99 155.02 C116.91 165.06 116.66 171.87 113.56 181.58 C113.3 182.38 113.05 183.17 112.79 183.99 C111.32 188.27 110.29 190.72 106.31 193.15 C105.81 194.14 105.32 195.13 104.81 196.15 C103.28 199.2 102.22 200.45 99.31 202.15 C98.65 202.15 97.99 202.15 97.31 202.15 C97.07 202.76 96.83 203.38 96.58 204.01 C94.99 206.68 93.72 207.16 90.87 208.27 C88.03 209.4 85.88 210.43 83.31 212.15 C68.52 216.16 54.43 213.64 41.31 206.15 C30.77 199.11 22.89 189.77 19.83 177.2 C18.76 171.84 18.05 166.43 17.31 161.02 C17.06 159.31 16.81 157.59 16.56 155.87 C16.04 152.37 15.54 148.86 15.05 145.35 C14.01 138.06 12.92 130.78 11.82 123.51 C11.5 121.36 11.18 119.22 10.87 117.08 C10.58 115.15 10.58 115.15 10.29 113.19 C10.12 112.07 9.95 110.94 9.78 109.78 C9.44 107.18 9.44 107.18 8.31 105.15 C8.05 103.52 7.84 101.9 7.66 100.26 C7.54 99.27 7.42 98.28 7.3 97.25 C7.18 96.19 7.06 95.12 6.93 94.02 C6.11 87.14 5.24 80.32 3.87 73.52 C2.03 64.35 0.92 55.07 -0.25 45.79 C-1.01 39.84 -1.85 34 -3.25 28.16 C-4.01 24.73 -4.37 21.26 -4.76 17.77 C-5.35 12.39 -5.35 12.39 -6.69 7.15 C-6.82 4.02 -6.82 4.02 -6.69 1.15 C-4.89 -0.66 -2.41 0.01 0 0 Z " fill="#000002" transform="translate(594.6947174072266,924.8533630371094)"/>
<path d="M0 0 C1.32 0 1.32 0 2.67 0 C4.06 -0 4.06 -0 5.47 -0.01 C8.54 -0.02 11.61 -0.02 14.68 -0.02 C16.8 -0.02 18.92 -0.03 21.05 -0.03 C25.51 -0.04 29.96 -0.04 34.42 -0.04 C40.15 -0.04 45.87 -0.05 51.6 -0.07 C55.99 -0.08 60.37 -0.08 64.76 -0.08 C66.87 -0.08 68.98 -0.09 71.09 -0.1 C74.04 -0.11 76.99 -0.1 79.94 -0.1 C80.82 -0.1 81.7 -0.11 82.6 -0.11 C88.64 -0.08 88.64 -0.08 90.87 2.15 C91.21 6.2 91.17 7.69 88.87 11.15 C88.37 13.7 88.37 13.7 88.12 16.6 C87.95 18.23 87.95 18.23 87.78 19.89 C87.66 21.05 87.55 22.2 87.43 23.4 C86.54 31.78 85.43 39.88 83.62 48.11 C82.51 53.61 81.99 59.2 81.37 64.77 C80.53 72.24 79.49 79.41 77.62 86.7 C76.39 92.36 75.78 98.1 75.07 103.85 C74 112.42 72.67 120.94 71.23 129.46 C70.42 134.34 69.77 139.13 69.44 144.07 C69.11 148.28 68.16 150.58 65.87 154.15 C65.4 157.74 65.4 157.74 65.37 161.65 C64.73 176.6 61 190.49 49.87 201.15 C45.22 205.17 40.66 207.97 34.87 210.15 C34.22 210.41 33.57 210.68 32.9 210.96 C22.11 215.29 11.05 214.83 -0.13 212.15 C-1.62 211.16 -1.62 211.16 -3.13 210.15 C-3.13 209.49 -3.13 208.83 -3.13 208.15 C-3.96 207.94 -4.78 207.73 -5.63 207.52 C-15.69 203.57 -23.47 195.36 -28.09 185.77 C-30.6 179.45 -31.49 173.88 -31.44 167.15 C-31.44 166.29 -31.44 165.44 -31.44 164.56 C-31.29 154.84 -29.93 145.3 -28.49 135.7 C-28.05 132.55 -27.75 129.39 -27.49 126.22 C-27.13 124.15 -27.13 124.15 -26.15 121.78 C-24.98 118.76 -24.64 116.08 -24.31 112.86 C-24.19 111.67 -24.07 110.48 -23.94 109.26 C-23.82 108.02 -23.69 106.79 -23.57 105.52 C-23.32 103.07 -23.07 100.62 -22.81 98.17 C-22.71 97.09 -22.6 96 -22.49 94.89 C-22.13 92.15 -22.13 92.15 -21.13 89.15 C-20.47 89.15 -19.81 89.15 -19.13 89.15 C-19.34 88.38 -19.54 87.62 -19.76 86.83 C-20.18 82.68 -19.56 79.47 -18.74 75.41 C-17.8 70.35 -17.27 65.25 -16.69 60.14 C-16.35 57.37 -15.82 54.72 -15.16 52.02 C-13.46 44.68 -13 37.14 -12.28 29.66 C-12.16 28.49 -12.04 27.33 -11.91 26.13 C-11.81 25.07 -11.71 24.02 -11.6 22.94 C-11.15 20.28 -10.48 18.45 -9.13 16.15 C-8.47 16.15 -7.81 16.15 -7.13 16.15 C-7.38 15 -7.38 15 -7.63 13.83 C-8.45 9.44 -7.86 5.52 -7.13 1.15 C-5.25 -0.74 -2.51 0.01 0 0 Z " fill="#000002" transform="translate(841.1310272216797,924.8533630371094)"/>
<path d="M0 0 C1.46 2.56 2.92 5.12 4.38 7.69 C4.79 8.41 5.2 9.13 5.62 9.87 C7.69 13.52 9.52 17.07 11 21 C11.47 21.78 11.95 22.57 12.44 23.38 C13.7 25.49 14.64 27.43 15.56 29.69 C16.76 33.01 16.76 33.01 19 35 C19.49 37.02 19.49 37.02 19.88 39.38 C20.7 43.54 21.95 45.05 25 48 C25.34 50.33 25.67 52.67 26 55 C26.6 55.74 27.2 56.49 27.81 57.25 C31.08 61.36 32.31 66.07 34 71 C35.79 75.8 37.56 80.43 40.25 84.81 C41.99 87.97 42.6 89.48 42 93 C40 95 40 95 37.38 95.12 C36.59 95.08 35.81 95.04 35 95 C34.76 95.63 34.53 96.26 34.28 96.91 C33 99 33 99 30.97 99.87 C30.15 100.06 29.34 100.24 28.5 100.44 C23.74 101.7 19.67 103.53 15.31 105.8 C9.32 108.91 2.85 112 -4 112 C-4.66 113.32 -5.32 114.64 -6 116 C-6.94 113.17 -7.13 111.42 -7.14 108.48 C-7.15 107.56 -7.15 106.63 -7.16 105.68 C-7.16 104.67 -7.16 103.65 -7.16 102.61 C-7.17 101.01 -7.17 101.01 -7.18 99.37 C-7.19 95.83 -7.2 92.29 -7.2 88.75 C-7.21 86.3 -7.21 83.84 -7.22 81.39 C-7.23 76.24 -7.24 71.09 -7.24 65.94 C-7.25 59.33 -7.27 52.73 -7.3 46.12 C-7.32 41.05 -7.32 35.98 -7.32 30.91 C-7.33 28.47 -7.33 26.03 -7.35 23.6 C-7.36 20.19 -7.36 16.79 -7.36 13.39 C-7.37 12.38 -7.37 11.36 -7.38 10.32 C-7.38 9.4 -7.37 8.47 -7.37 7.52 C-7.37 6.71 -7.37 5.91 -7.37 5.08 C-6.55 0.47 -4.44 0 0 0 Z " fill="#FCFCFC" transform="translate(873,542)"/>
<path d="M0 0 C1.25 -0.01 2.51 -0.01 3.8 -0.02 C5.17 -0.02 6.54 -0.01 7.91 -0.01 C9.32 -0.01 10.72 -0.01 12.12 -0.01 C15.06 -0.02 18 -0.01 20.94 -0 C24.71 0.01 28.48 0 32.26 -0.01 C35.15 -0.02 38.05 -0.01 40.95 -0.01 C42.34 -0.01 43.73 -0.01 45.12 -0.01 C47.06 -0.02 49 -0.01 50.95 0 C52.05 0 53.16 0 54.3 0 C56.91 0.26 56.91 0.26 58.91 2.26 C59.14 4.87 59.14 4.87 59.1 8.14 C59.1 9.31 59.09 10.47 59.08 11.68 C59.06 13.51 59.06 13.51 59.03 15.38 C59.02 16.61 59.01 17.85 59.01 19.11 C58.98 22.16 58.95 25.21 58.91 28.26 C50.48 28.31 42.06 28.34 33.64 28.36 C29.73 28.37 25.82 28.39 21.91 28.41 C18.13 28.43 14.36 28.44 10.58 28.45 C9.14 28.45 7.7 28.46 6.26 28.47 C4.25 28.48 2.23 28.49 0.22 28.49 C-1.51 28.49 -1.51 28.49 -3.26 28.5 C-6.09 28.26 -6.09 28.26 -9.09 26.26 C-9.48 23.86 -9.48 23.86 -9.49 20.88 C-9.49 19.82 -9.5 18.75 -9.5 17.65 C-9.48 15.97 -9.48 15.97 -9.47 14.26 C-9.48 13.14 -9.49 12.02 -9.5 10.87 C-9.5 9.8 -9.49 8.73 -9.49 7.63 C-9.49 6.65 -9.48 5.67 -9.48 4.66 C-9.35 3.87 -9.22 3.07 -9.09 2.26 C-5.58 -0.08 -4.15 0.01 0 0 Z " fill="#F8F9F9" transform="translate(1125.092041015625,596.7412109375)"/>
<path d="M0 0 C3.27 -0.06 6.54 -0.09 9.81 -0.12 C10.74 -0.14 11.67 -0.16 12.63 -0.18 C13.52 -0.18 14.41 -0.19 15.33 -0.2 C16.15 -0.21 16.98 -0.22 17.82 -0.23 C20 0 20 0 23 2 C23.37 4.85 23.37 4.85 23.37 8.57 C23.37 9.6 23.37 9.6 23.38 10.65 C23.39 12.97 23.37 15.29 23.36 17.62 C23.36 19.29 23.36 20.96 23.37 22.63 C23.38 27.25 23.36 31.86 23.35 36.47 C23.34 41.44 23.34 46.41 23.34 51.38 C23.34 59.99 23.33 68.6 23.32 77.22 C23.29 89.67 23.28 102.12 23.28 114.58 C23.27 134.78 23.25 154.98 23.23 175.19 C23.2 194.82 23.18 214.45 23.16 234.08 C23.16 235.28 23.16 236.49 23.16 237.74 C23.16 243.81 23.15 249.87 23.15 255.94 C23.12 306.29 23.07 356.65 23 407 C22.34 407 21.68 407 21 407 C21 406.15 21 405.3 21 404.42 C20.92 353.97 20.82 303.53 20.72 253.08 C20.71 247.03 20.69 240.98 20.68 234.93 C20.68 233.72 20.68 232.52 20.68 231.28 C20.64 211.75 20.6 192.22 20.57 172.69 C20.54 152.66 20.5 132.63 20.46 112.61 C20.43 100.24 20.41 87.88 20.39 75.51 C20.38 67.04 20.36 58.57 20.34 50.1 C20.33 45.21 20.32 40.31 20.32 35.42 C20.31 30.95 20.3 26.47 20.29 22 C20.28 20.38 20.28 18.75 20.28 17.13 C20.28 14.93 20.27 12.74 20.26 10.54 C20.26 9.32 20.26 8.09 20.25 6.83 C20.29 3.87 20.29 3.87 18 2 C16.06 1.72 16.06 1.72 13.87 1.8 C13.06 1.81 12.26 1.82 11.43 1.82 C10.16 1.85 10.16 1.85 8.88 1.88 C8.03 1.88 7.18 1.89 6.3 1.9 C4.2 1.93 2.1 1.96 0 2 C0 1.34 0 0.68 0 0 Z " fill="#1A1A1C" transform="translate(202,713)"/>
<path d="M0 0 C1.25 -0.01 2.51 -0.01 3.8 -0.02 C5.17 -0.02 6.54 -0.01 7.91 -0.01 C9.32 -0.01 10.72 -0.01 12.12 -0.01 C15.06 -0.02 18 -0.01 20.94 -0 C24.71 0.01 28.48 0 32.26 -0.01 C35.15 -0.02 38.05 -0.01 40.95 -0.01 C42.34 -0.01 43.73 -0.01 45.12 -0.01 C47.06 -0.02 49 -0.01 50.95 0 C52.05 0 53.16 0 54.3 0 C56.91 0.26 56.91 0.26 58.91 2.26 C59.03 5.88 59.03 5.88 58.91 9.26 C56.17 10.63 54.01 10.37 50.95 10.36 C49.69 10.35 48.44 10.35 47.15 10.35 C46.48 10.34 45.81 10.34 45.12 10.33 C43.02 10.32 40.93 10.31 38.83 10.31 C33.62 10.3 28.41 10.27 23.2 10.25 C18.8 10.23 14.4 10.21 10 10.2 C7.94 10.2 5.87 10.18 3.8 10.17 C2.55 10.17 1.29 10.16 0 10.16 C-1.11 10.16 -2.21 10.15 -3.35 10.15 C-6.19 10.14 -6.19 10.14 -9.09 11.26 C-9.17 9.8 -9.23 8.34 -9.28 6.88 C-9.31 6.07 -9.35 5.26 -9.39 4.42 C-9.29 3.71 -9.19 2.99 -9.09 2.26 C-5.58 -0.08 -4.15 0.01 0 0 Z " fill="#FBFBFB" transform="translate(1125.092041015625,596.7412109375)"/>
<path d="M0 0 C0.33 0 0.66 0 1 0 C0.67 9.24 0.34 18.48 0 28 C0.66 28 1.32 28 2 28 C2 37.24 2 46.48 2 56 C1.34 56 0.68 56 0 56 C0.03 56.64 0.06 57.28 0.09 57.95 C0.9 76.06 1.16 94.14 1.13 112.27 C1.12 115.91 1.13 119.56 1.13 123.2 C1.14 126.04 1.14 128.88 1.13 131.72 C1.13 133.72 1.14 135.71 1.14 137.71 C1.14 138.9 1.13 140.1 1.13 141.33 C1.13 142.38 1.13 143.43 1.13 144.51 C1 147 1 147 0 149 C-0.15 151.1 -0.25 153.21 -0.32 155.32 C-0.36 156.58 -0.4 157.83 -0.44 159.13 C-0.5 161.11 -0.5 161.11 -0.56 163.12 C-0.61 164.46 -0.65 165.8 -0.69 167.14 C-0.8 170.43 -0.9 173.71 -1 177 C-1.33 177 -1.66 177 -2 177 C-2.05 154.66 -2.08 132.32 -2.1 109.98 C-2.11 99.61 -2.13 89.24 -2.15 78.86 C-2.17 69.82 -2.18 60.78 -2.19 51.74 C-2.19 46.96 -2.2 42.17 -2.21 37.38 C-2.23 32.88 -2.23 28.37 -2.23 23.87 C-2.23 22.21 -2.23 20.56 -2.24 18.9 C-2.25 16.65 -2.25 14.39 -2.24 12.13 C-2.24 10.87 -2.24 9.6 -2.25 8.3 C-2.01 5.1 -1.38 2.88 0 0 Z " fill="#757677" transform="translate(2,397)"/>
<path d="M0 0 C0.33 0 0.66 0 1 0 C1.19 8.79 1.35 17.58 1.5 26.38 C1.51 27.07 1.52 27.76 1.54 28.48 C2.07 60.02 2.08 91.57 2.06 123.12 C2.06 124.34 2.06 125.55 2.06 126.79 C2.05 141.86 2.03 156.93 2 172 C1.34 172 0.68 172 0 172 C-0.13 162.51 -0.26 153.03 -0.39 143.54 C-0.45 139.13 -0.51 134.72 -0.57 130.31 C-1.04 97.4 -1.11 64.51 -0.54 31.6 C-0.47 28.01 -0.41 24.42 -0.36 20.83 C-0.24 13.89 -0.12 6.94 0 0 Z " fill="#CCCCCD" transform="translate(424,477)"/>
<path d="M0 0 C0.03 4.25 0.05 8.5 0.06 12.75 C0.07 13.92 0.08 15.09 0.09 16.29 C0.11 23.32 -0.08 30.3 -0.47 37.32 C-1.21 50.73 -1.35 64.16 -1.55 77.6 C-1.76 90.76 -2.06 103.87 -3 117 C-3.33 117 -3.66 117 -4 117 C-4.02 106.01 -4.04 95.02 -4.05 84.03 C-4.06 78.92 -4.06 73.82 -4.08 68.71 C-4.13 46.12 -4.11 23.57 -3 1 C-1 0 -1 0 0 0 Z " fill="#353537" transform="translate(4,545)"/>
<path d="M0 0 C21.45 0 42.9 0 65 0 C65 0.99 65 1.98 65 3 C56.82 3.07 48.64 3.12 40.46 3.16 C36.66 3.17 32.87 3.19 29.07 3.23 C25.4 3.26 21.74 3.28 18.08 3.28 C16.68 3.29 15.28 3.3 13.88 3.32 C11.92 3.34 9.97 3.34 8.01 3.34 C6.34 3.35 6.34 3.35 4.63 3.36 C3.76 3.24 2.89 3.12 2 3 C1.34 2.01 0.68 1.02 0 0 Z " fill="#BCBDBE" transform="translate(1119,606)"/>
<path d="M0 0 C0.33 0 0.66 0 1 0 C0.67 9.24 0.34 18.48 0 28 C0.66 28 1.32 28 2 28 C2 37.24 2 46.48 2 56 C1.34 56 0.68 56 0 56 C-0.33 56.99 -0.66 57.98 -1 59 C-1.33 59 -1.66 59 -2 59 C-2.05 51.4 -2.09 43.8 -2.11 36.2 C-2.12 33.62 -2.13 31.03 -2.15 28.45 C-2.18 24.73 -2.19 21.02 -2.2 17.3 C-2.21 16.15 -2.22 14.99 -2.23 13.8 C-2.23 12.72 -2.23 11.64 -2.23 10.52 C-2.23 9.58 -2.24 8.63 -2.24 7.65 C-1.98 4.78 -1.2 2.61 0 0 Z " fill="#BCBDBE" transform="translate(2,397)"/>
<path d="M0 0 C0.99 0 1.98 0 3 0 C3 9.24 3 18.48 3 28 C2.01 28 1.02 28 0 28 C0 18.76 0 9.52 0 0 Z " fill="#747576" transform="translate(1,425)"/>
<path d="M0 0 C0.99 0.33 1.98 0.66 3 1 C3 9.58 3 18.16 3 27 C2.01 27 1.02 27 0 27 C-0.2 22.88 -0.38 18.75 -0.56 14.62 C-0.62 13.45 -0.67 12.27 -0.73 11.06 C-0.78 9.94 -0.83 8.82 -0.88 7.66 C-0.93 6.63 -0.97 5.59 -1.02 4.52 C-1 2 -1 2 0 0 Z " fill="#343436" transform="translate(2,453)"/>
<path d="M0 0 C0.66 0 1.32 0 2 0 C2.33 6.6 2.66 13.2 3 20 C2.01 20.33 1.02 20.66 0 21 C0 14.07 0 7.14 0 0 Z " fill="#202022" transform="translate(2,404)"/>
<path d="M0 0 C3.85 0.54 5.32 2.12 7.75 5.06 C8.36 5.8 8.98 6.53 9.61 7.29 C10.07 7.85 10.53 8.42 11 9 C7.26 9 6.55 8.07 3.81 5.62 C3.1 5 2.38 4.37 1.64 3.73 C0 2 0 2 0 0 Z " fill="#BCBDBE" transform="translate(272,130)"/>
<path d="M0 0 C1.32 0 2.64 0 4 0 C4 1.98 4 3.96 4 6 C3.01 6.5 3.01 6.5 2 7 C1.34 7.99 0.68 8.98 0 10 C-1.12 2.25 -1.12 2.25 0 0 Z " fill="#B2B3B4" transform="translate(830,935)"/>
<path d="M0 0 C6.6 0 13.2 0 20 0 C20.66 1.32 21.32 2.64 22 4 C21.43 3.67 20.86 3.35 20.27 3.01 C17.83 1.93 16.32 1.77 13.67 1.8 C12.87 1.81 12.07 1.82 11.25 1.82 C10.43 1.84 9.6 1.86 8.75 1.88 C7.49 1.89 7.49 1.89 6.2 1.9 C4.14 1.93 2.07 1.96 0 2 C0 1.34 0 0.68 0 0 Z " fill="#464648" transform="translate(202,713)"/>
<path d="M0 0 C0.33 0 0.66 0 1 0 C0.89 2.31 0.76 4.63 0.62 6.94 C0.52 8.87 0.52 8.87 0.41 10.84 C0.28 11.88 0.14 12.93 0 14 C-0.99 14.5 -0.99 14.5 -2 15 C-2.37 4.44 -2.37 4.44 0 0 Z " fill="#CFCFD0" transform="translate(2,397)"/>
<path d="M0 0 C2.44 1.25 2.44 1.25 3.44 4.25 C2.12 4.58 0.8 4.91 -0.56 5.25 C-0.56 4.59 -0.56 3.93 -0.56 3.25 C-1.88 3.25 -3.2 3.25 -4.56 3.25 C-4.56 2.26 -4.56 1.27 -4.56 0.25 C-2.56 -0.75 -2.56 -0.75 0 0 Z " fill="#333335" transform="translate(1246.5625,792.75)"/>
</svg>
