<?xml version="1.0" encoding="UTF-8"?>
<!-- Generator: visioncortex VTracer 0.6.3 -->
<svg version="1.1" xmlns="http://www.w3.org/2000/svg" width="1280" height="1280">
<path d="M0 0 C422.4 0 844.8 0 1280 0 C1280 422.4 1280 844.8 1280 1280 C857.6 1280 435.2 1280 0 1280 C0 857.6 0 435.2 0 0 Z " fill="#FCFCFC" transform="translate(0,0)"/>
<path d="M0 0 C1.96 0.33 3.91 0.64 5.88 0.94 C13.55 2.17 20.12 4.4 27 8 C27.89 8.33 28.77 8.66 29.69 9 C32 10 32 10 33.34 11.38 C35.34 13.33 37.45 14.49 39.88 15.88 C49.82 22.12 58.11 30.91 64.51 40.72 C66 43 67.62 45.11 69.31 47.25 C71.69 50.37 72.88 53.21 74 57 C74.7 57.78 74.7 57.78 75.42 58.57 C77.84 62.3 78.28 66.35 79.06 70.69 C79.38 72.42 79.7 74.16 80.04 75.89 C80.17 76.65 80.31 77.42 80.45 78.21 C80.63 78.8 80.81 79.39 81 80 C81.66 80.33 82.32 80.66 83 81 C83 243.36 83 405.72 83 573 C-339.4 573 -761.8 573 -1197 573 C-1197 303 -1197 303 -1189 294 C-1187.35 293.01 -1185.7 292.02 -1184 291 C-1182.47 289.68 -1180.97 288.32 -1179.5 286.94 C-1174.6 282.45 -1169.46 278.42 -1164.18 274.41 C-1157.55 269.38 -1151.09 264.19 -1144.89 258.64 C-1140.76 255.05 -1136.39 251.78 -1132.02 248.48 C-1124.69 242.94 -1117.72 237.27 -1111 231 C-1109.74 229.87 -1108.47 228.74 -1107.19 227.62 C-1106.69 227.18 -1106.18 226.74 -1105.67 226.29 C-1104 225 -1104 225 -1101.7 223.66 C-1098.43 221.65 -1095.58 219.25 -1092.69 216.75 C-1091.82 216.01 -1091.82 216.01 -1090.94 215.26 C-1087.96 212.71 -1085.03 210.13 -1082.12 207.5 C-1078.58 204.36 -1074.78 201.64 -1070.94 198.88 C-1064.83 194.48 -1059.13 189.76 -1053.49 184.77 C-1049.06 180.87 -1044.49 177.22 -1039.77 173.67 C-1035.9 170.74 -1032.18 167.66 -1028.5 164.5 C-1023.81 160.48 -1019.01 156.65 -1014.09 152.91 C-1006.92 147.45 -999.97 141.71 -993 136 C-992.47 135.56 -991.93 135.12 -991.38 134.67 C-989.09 132.79 -986.79 130.91 -984.5 129.03 C-982.08 127.06 -979.63 125.12 -977.19 123.19 C-973.1 119.93 -969.14 116.55 -965.19 113.12 C-959.18 107.93 -952.98 103.05 -946.64 98.25 C-932.87 87.75 -919.32 76.88 -906.25 65.51 C-903.31 62.99 -900.35 60.93 -897 59 C-895.19 57.72 -893.42 56.41 -891.65 55.09 C-890 54 -890 54 -887 53 C-886.22 52.2 -885.43 51.39 -884.62 50.56 C-882.01 48.01 -880.36 47.21 -877 46 C-875.66 45.01 -874.33 44.01 -873 43 C-871 42 -869 41 -867 40 C-866.34 39.34 -865.68 38.68 -865 38 C-863.27 37.25 -861.54 36.5 -859.79 35.79 C-857.83 34.97 -857.83 34.97 -855.5 33.5 C-853.06 32.04 -850.58 30.91 -847.96 29.82 C-845.76 28.9 -843.6 27.92 -841.44 26.94 C-838.81 25.76 -836.31 24.77 -833.56 23.88 C-830.87 23.17 -830.87 23.17 -829 21 C-826.92 20.56 -824.84 20.12 -822.75 19.7 C-819.6 18.9 -816.7 17.77 -813.69 16.56 C-807.54 14.13 -801.43 12.49 -795 11 C-794.09 10.76 -793.18 10.51 -792.25 10.26 C-785.01 8.31 -777.73 7.09 -770.32 6 C-766.03 5.45 -766.03 5.45 -762 4 C-721.72 -2.51 -677.58 1.01 -639 14 C-637.94 14.35 -636.89 14.69 -635.8 15.05 C-633 16 -633 16 -630.69 17 C-628.36 17.87 -626.23 18.42 -623.81 18.94 C-619.8 19.79 -615.92 20.88 -612 22.08 C-608.18 23.25 -604.34 24.38 -600.5 25.5 C-576.81 32.46 -576.81 32.46 -573 35 C-570.68 35.56 -568.34 36.05 -566 36.5 C-559.33 37.78 -559.33 37.78 -556 40 C-553.85 40.55 -551.68 41.05 -549.5 41.5 C-545.66 42.3 -543.28 42.81 -540 45 C-537.34 45.81 -534.69 46.55 -532 47.25 C-522.92 49.69 -513.97 52.49 -505.01 55.36 C-502.46 56.17 -499.89 56.93 -497.31 57.69 C-491.94 59.28 -486.69 60.87 -482 64 C-479.01 64.57 -476.02 64.95 -473.01 65.34 C-469.77 66.05 -467.81 67.29 -465 69 C-462.69 69.69 -460.35 70.31 -458 70.88 C-437.01 76.21 -421.57 87.06 -408 104 C-407.32 105.33 -406.66 106.66 -406 108 C-405.17 108.76 -404.35 109.53 -403.5 110.31 C-400.53 113.5 -400.06 115.81 -399 120 C-398.38 121.22 -397.73 122.43 -397.06 123.62 C-393.12 131.19 -391.53 140.53 -391 149 C-390.92 149.94 -390.85 150.89 -390.77 151.86 C-390.43 159.57 -391.5 166.45 -393.25 173.94 C-393.56 175.27 -393.56 175.27 -393.87 176.63 C-395.22 182.05 -397.09 186.24 -400 191 C-400.84 193.11 -400.84 193.11 -401.25 194.94 C-401.5 195.95 -401.75 196.96 -402 198 C-403.32 198.33 -404.64 198.66 -406 199 C-406.09 199.73 -406.18 200.47 -406.28 201.23 C-408.19 208.58 -416.91 215.7 -423 220 C-424.33 220.35 -425.66 220.69 -427 221 C-427.59 221.93 -427.59 221.93 -428.19 222.88 C-431.41 226.65 -436.55 227.53 -441.31 228.44 C-444 228.97 -444 228.97 -446.59 229.74 C-454.77 232.09 -462.4 232.42 -470.88 232.31 C-472.13 232.32 -473.39 232.32 -474.69 232.32 C-484.95 232.26 -495.44 231.98 -505 228 C-506.05 227.86 -507.1 227.71 -508.19 227.56 C-514.15 226.68 -519.96 225.36 -525 222 C-527.69 221.43 -530.39 221.05 -533.11 220.66 C-536 220 -536 220 -538.86 218.56 C-542.44 216.78 -546.01 215.87 -549.88 215 C-554.66 213.86 -559.29 212.64 -563.87 210.82 C-567.28 209.51 -570.76 208.46 -574.25 207.38 C-574.95 207.16 -575.65 206.94 -576.37 206.71 C-580.24 205.51 -584.09 204.44 -588.04 203.54 C-588.7 203.38 -589.37 203.22 -590.06 203.06 C-590.73 202.91 -591.41 202.76 -592.1 202.6 C-594 202 -594 202 -597 200 C-599.09 199.47 -601.2 198.99 -603.31 198.56 C-608.02 197.53 -611.7 196.15 -616 194 C-617.95 193.51 -619.91 193.05 -621.88 192.62 C-632.51 190.31 -642.86 186.94 -653 183 C-657.27 181.45 -661.5 180.42 -665.95 179.56 C-668 179 -668 179 -671 177 C-677.85 175.6 -685.74 174.31 -692 178 C-693.49 178.99 -693.49 178.99 -695 180 C-695.66 180 -696.32 180 -697 180 C-697.12 180.78 -697.25 181.57 -697.38 182.38 C-698 185 -698 185 -700 187 C-700.67 192.58 -701.08 198.86 -698.5 204 C-693.59 209.89 -688.4 212.2 -680.96 213.54 C-678.47 214.13 -676.99 215.42 -675 217 C-673.01 217.38 -671.01 217.7 -669 218 C-664.39 219.22 -659.91 220.65 -655.46 222.38 C-648.84 224.89 -641.94 226.56 -635.11 228.39 C-626.01 230.88 -626.01 230.88 -622.17 232.62 C-617.65 234.59 -613.04 235.28 -608.21 236.16 C-605.03 236.99 -603.51 237.97 -601 240 C-598.67 240.37 -596.34 240.69 -594 241 C-590.96 241.88 -587.98 242.94 -585 244 C-583.46 244.52 -581.92 245.05 -580.38 245.56 C-579.37 245.9 -579.37 245.9 -578.34 246.25 C-575.24 247.24 -572.12 248.12 -569 249 C-564.33 250.33 -559.67 251.67 -555 253 C-553.76 253.33 -552.52 253.66 -551.25 254 C-548 255 -548 255 -545 257 C-541.5 257.82 -537.98 258.46 -534.45 259.12 C-531.09 259.98 -528.89 261.16 -526 263 C-523.68 263.41 -521.34 263.73 -519 264 C-517.48 264.28 -515.96 264.57 -514.44 264.88 C-513.59 265.05 -512.74 265.22 -511.86 265.39 C-509.8 265.83 -507.75 266.29 -505.7 266.76 C-486.78 271.07 -467.25 270.78 -448 269 C-447.09 268.94 -446.18 268.88 -445.25 268.82 C-441 268.68 -441 268.68 -437.56 266.53 C-435.52 264.53 -433.99 264.38 -431.19 263.94 C-416.51 261.31 -404.44 253.2 -393 244 C-391.45 242.79 -391.45 242.79 -389.88 241.56 C-385.22 237.42 -381.07 233.19 -378.31 227.56 C-377 225 -377 225 -374.81 224.12 C-374.21 224.08 -373.62 224.04 -373 224 C-372.73 222.91 -372.46 221.81 -372.19 220.69 C-371.01 217.05 -370.49 216.49 -368 214 C-367.67 212.85 -367.34 211.69 -367 210.5 C-366 207 -366 207 -364.5 205.56 C-362.35 203.33 -362.12 200.92 -361.53 197.94 C-361 196 -361 196 -359 193 C-358.18 189.86 -357.43 186.72 -356.76 183.54 C-355.61 178.72 -354.07 176.73 -350 174 C-349.26 173.17 -348.51 172.35 -347.75 171.5 C-344.68 168.71 -341.87 167.46 -338.07 165.91 C-335.76 164.89 -333.98 163.56 -332 162 C-330.34 161.31 -328.67 160.65 -327 160 C-324.91 158.96 -322.84 157.89 -320.77 156.8 C-319 156 -319 156 -317 156 C-316.86 155.36 -316.71 154.72 -316.56 154.06 C-316 152 -316 152 -315 151 C-313.89 150.9 -312.77 150.79 -311.62 150.69 C-307.97 150.43 -307.97 150.43 -306.62 148.06 C-304.26 145.07 -301.62 145.12 -297.96 144.59 C-297.31 144.4 -296.67 144.2 -296 144 C-295.67 143.01 -295.34 142.02 -295 141 C-293.07 139.94 -293.07 139.94 -290.69 139 C-287.39 137.63 -284.81 136.23 -282 134 C-280 133 -278 132 -276 131 C-275.34 130.34 -274.68 129.68 -274 129 C-272.33 128.57 -272.33 128.57 -270.62 128.12 C-266.75 126.92 -265.74 125.83 -263 123 C-260.68 121.98 -258.34 120.98 -256 120 C-255.48 119.48 -254.97 118.97 -254.44 118.44 C-252.33 116.33 -249.79 115.93 -247 115 C-246.52 114.52 -246.05 114.03 -245.56 113.53 C-243.78 111.78 -242.42 111.26 -240.06 110.5 C-236.88 109.39 -234.65 108.1 -232 106 C-231.17 105.69 -230.35 105.38 -229.5 105.06 C-226.88 104.15 -226.88 104.15 -225.12 101.94 C-223 100 -223 100 -219.38 99.5 C-218.26 99.34 -217.15 99.17 -216 99 C-215.69 98.37 -215.38 97.74 -215.06 97.1 C-213.68 94.37 -212.44 94.02 -209.62 92.94 C-206.34 91.6 -203.8 90.2 -201 88 C-200.26 87.7 -199.51 87.41 -198.75 87.1 C-195.8 85.92 -193.09 84.52 -190.31 83 C-189.36 82.48 -188.41 81.97 -187.43 81.44 C-184.93 80.09 -184.93 80.09 -183 78 C-180.68 77.6 -178.34 77.26 -176 77 C-175.84 76.22 -175.67 75.43 -175.5 74.62 C-174 72 -174 72 -172.23 71.36 C-170.8 71.07 -169.38 70.8 -167.95 70.52 C-165.18 69.78 -163.93 68.06 -162 66 C-159.69 64.95 -157.35 63.95 -155 63 C-152.65 61.67 -150.38 60.25 -148.12 58.77 C-144.97 56.73 -142.29 55.09 -138.69 53.94 C-135.87 53.26 -135.87 53.26 -134.62 50.94 C-133 49 -133 49 -131.11 48.66 C-130.4 48.61 -129.68 48.55 -128.94 48.5 C-126.99 48.25 -126.99 48.25 -125 48 C-124.32 46.67 -123.66 45.34 -123 44 C-120.98 42.84 -120.98 42.84 -118.62 41.94 C-115.33 40.59 -112.79 39.22 -110 37 C-108.01 35.98 -106.01 34.98 -104 34 C-102.58 33.21 -101.16 32.42 -99.75 31.62 C-95.61 29.29 -91.37 27.22 -87.07 25.21 C-84.7 24.03 -84.7 24.03 -83 21 C-81.16 20.41 -81.16 20.41 -79.06 20.06 C-75.16 19.22 -74.36 18.21 -72 15 C-69.85 13.86 -67.66 12.94 -65.41 12 C-63.14 11.06 -60.95 10.03 -58.75 8.94 C-58.15 8.64 -57.54 8.34 -56.92 8.03 C-54.91 6.99 -54.91 6.99 -52.75 5.52 C-49.78 3.88 -47.36 3.26 -44.04 2.65 C-42.34 2.33 -42.34 2.33 -40.61 2.01 C-39.44 1.8 -38.27 1.59 -37.06 1.38 C-35.31 1.05 -35.31 1.05 -33.53 0.72 C-10.93 -3.45 -10.93 -3.45 0 0 Z " fill="#000000" transform="translate(1197,707)"/>
<path d="M0 0 C1.52 -0.01 1.52 -0.01 3.08 -0.01 C6.49 -0.02 9.91 -0.02 13.32 -0.02 C15.79 -0.02 18.26 -0.03 20.73 -0.04 C26.81 -0.05 32.89 -0.06 38.97 -0.06 C46.25 -0.06 53.54 -0.07 60.82 -0.09 C78.42 -0.12 96.02 -0.13 113.62 -0.14 C121.95 -0.14 130.28 -0.15 138.6 -0.16 C167.11 -0.18 195.61 -0.21 224.12 -0.21 C225.91 -0.21 227.7 -0.21 229.49 -0.21 C231.28 -0.21 233.07 -0.21 234.87 -0.21 C238.46 -0.22 242.06 -0.22 245.66 -0.22 C247 -0.22 247 -0.22 248.36 -0.22 C277.29 -0.23 306.22 -0.26 335.15 -0.3 C365.74 -0.35 396.33 -0.38 426.91 -0.38 C430.27 -0.38 433.63 -0.38 436.99 -0.38 C438.23 -0.38 438.23 -0.38 439.49 -0.38 C452.8 -0.39 466.1 -0.41 479.4 -0.44 C492.78 -0.47 506.15 -0.47 519.52 -0.46 C527.46 -0.45 535.4 -0.46 543.35 -0.49 C549.28 -0.51 555.21 -0.5 561.14 -0.48 C563.54 -0.47 565.94 -0.48 568.34 -0.5 C591.81 -0.66 591.81 -0.66 599.81 6.26 C601.53 7.98 603.07 9.67 604.54 11.61 C605.94 13.52 605.94 13.52 608.56 15.76 C611.3 18.8 611.94 21.31 612.81 25.26 C613.14 26.25 613.47 27.24 613.81 28.26 C613.91 30.47 613.95 32.68 613.96 34.88 C613.96 35.9 613.96 35.9 613.96 36.93 C613.97 39.2 613.97 41.47 613.98 43.74 C613.98 45.37 613.99 47 613.99 48.62 C614 53.05 614.01 57.47 614.01 61.89 C614.02 64.66 614.02 67.43 614.03 70.19 C614.04 78.86 614.05 87.52 614.05 96.19 C614.06 106.17 614.08 116.16 614.1 126.15 C614.13 133.87 614.14 141.6 614.14 149.33 C614.14 153.94 614.14 158.55 614.16 163.16 C614.18 167.5 614.18 171.85 614.17 176.19 C614.17 177.78 614.18 179.36 614.19 180.95 C614.32 204.52 614.32 204.52 606.81 212.26 C606.1 213.62 606.1 213.62 605.38 215.01 C603.81 217.26 603.81 217.26 601.31 217.83 C600.49 217.97 599.66 218.11 598.81 218.26 C598.12 219.23 598.12 219.23 597.41 220.21 C595.05 223.25 592.92 223.33 589.23 223.91 C584.95 224.35 580.74 224.34 576.44 224.31 C575.2 224.3 575.2 224.3 573.92 224.3 C571.89 224.29 569.85 224.28 567.81 224.26 C567.81 225.33 567.81 225.33 567.81 226.41 C567.71 268.49 567.6 310.57 567.48 352.65 C567.47 357.7 567.46 362.75 567.44 367.81 C567.44 368.81 567.44 369.82 567.43 370.85 C567.39 387.14 567.35 403.43 567.31 419.71 C567.27 436.42 567.23 453.14 567.18 469.85 C567.15 480.16 567.12 490.47 567.1 500.78 C567.08 507.85 567.06 514.92 567.04 521.99 C567.03 526.07 567.02 530.15 567.01 534.23 C567 537.97 566.99 541.71 566.98 545.44 C566.97 547.43 566.97 549.42 566.97 551.41 C566.89 568.08 566.89 568.08 563.88 571.39 C563.2 572.01 562.52 572.63 561.81 573.26 C561.57 574.19 561.32 575.12 561.06 576.08 C558.87 581.67 554.52 584.98 549.16 587.52 C540.62 590.75 532.27 592.57 523.15 592.51 C522.32 592.52 521.49 592.52 520.64 592.52 C517.88 592.53 515.12 592.52 512.36 592.52 C510.35 592.52 508.35 592.52 506.34 592.53 C500.84 592.53 495.34 592.53 489.84 592.52 C483.91 592.52 477.97 592.53 472.04 592.53 C461.09 592.54 450.14 592.54 439.18 592.53 C429.07 592.53 418.95 592.53 408.83 592.53 C408.16 592.53 407.49 592.53 406.79 592.53 C404.07 592.53 401.34 592.53 398.62 592.53 C373.05 592.54 347.48 592.53 321.91 592.52 C299.2 592.51 276.5 592.51 253.79 592.52 C228.27 592.53 202.75 592.54 177.23 592.53 C174.51 592.53 171.79 592.53 169.07 592.53 C168.06 592.53 168.06 592.53 167.04 592.53 C156.93 592.53 146.82 592.53 136.71 592.54 C125.21 592.54 113.71 592.54 102.21 592.53 C96.34 592.52 90.48 592.52 84.61 592.53 C79.24 592.53 73.86 592.53 68.49 592.52 C66.55 592.52 64.61 592.52 62.67 592.52 C31.92 592.6 31.92 592.6 20.61 583.49 C18.92 581.8 17.36 580.08 15.81 578.26 C15.3 577.81 14.79 577.35 14.26 576.88 C12.35 574.75 11.64 572.65 10.69 569.95 C10.36 569.03 10.02 568.1 9.68 567.15 C8.2 562.21 7.69 557.47 7.69 552.32 C7.69 551.15 7.69 549.98 7.69 548.77 C7.69 546.86 7.69 546.86 7.69 544.9 C7.69 543.52 7.69 542.14 7.69 540.76 C7.69 536.98 7.69 533.2 7.7 529.41 C7.7 525.33 7.7 521.25 7.7 517.17 C7.7 510.1 7.7 503.03 7.71 495.96 C7.72 485.74 7.72 475.51 7.72 465.29 C7.72 448.71 7.73 432.12 7.74 415.54 C7.75 399.43 7.76 383.32 7.76 367.21 C7.76 366.21 7.76 365.22 7.76 364.2 C7.76 359.21 7.76 354.23 7.76 349.25 C7.77 307.92 7.79 266.59 7.81 225.26 C5.27 225.1 2.72 224.94 0.17 224.78 C-0.91 224.71 -0.91 224.71 -2 224.65 C-2.71 224.6 -3.41 224.56 -4.14 224.51 C-5.17 224.45 -5.17 224.45 -6.23 224.38 C-7.94 224.28 -9.65 224.19 -11.36 224.11 C-20.42 223.53 -27.23 216.61 -33.19 210.26 C-40.06 201.79 -38.33 190.51 -38.31 180.15 C-38.32 178.52 -38.32 176.88 -38.32 175.25 C-38.32 170.83 -38.32 166.41 -38.32 161.99 C-38.32 157.36 -38.32 152.72 -38.32 148.09 C-38.32 140.31 -38.32 132.53 -38.32 124.75 C-38.31 115.76 -38.31 106.78 -38.32 97.8 C-38.32 90.07 -38.32 82.34 -38.32 74.62 C-38.32 70.01 -38.32 65.4 -38.32 60.79 C-38.32 56.46 -38.32 52.12 -38.32 47.79 C-38.32 46.2 -38.32 44.62 -38.32 43.03 C-38.34 22.63 -38.34 22.63 -35.81 19.64 C-35.27 19.18 -34.74 18.73 -34.19 18.26 C-33.6 16.9 -33.6 16.9 -33 15.51 C-28.89 8.15 -21.95 3.92 -14.14 1.21 C-9.45 -0.1 -4.83 -0.02 0 0 Z " fill="#000000" transform="translate(509.1854133605957,44.737144470214844)"/>
<path d="M0 0 C0.33 0 0.66 0 1 0 C1 154.77 1 309.54 1 469 C-421.4 469 -843.8 469 -1279 469 C-1279 383.53 -1279 298.06 -1279 210 C-1276.12 212.88 -1274.23 215.61 -1272 219 C-1270.12 221.61 -1268.19 224.18 -1266.25 226.75 C-1265.45 227.81 -1265.45 227.81 -1264.64 228.89 C-1261.14 233.53 -1257.56 238.09 -1253.91 242.6 C-1250.6 246.75 -1247.45 251.02 -1244.28 255.28 C-1242.89 257.15 -1241.48 259.01 -1240.08 260.86 C-1234.51 268.23 -1229.08 275.65 -1223.94 283.33 C-1222.12 285.83 -1220.21 287.85 -1218 290 C-1217.06 291.17 -1216.14 292.35 -1215.25 293.56 C-1214.48 294.61 -1214.48 294.61 -1213.69 295.68 C-1212.52 297.29 -1211.35 298.9 -1210.19 300.51 C-1206.08 306.18 -1201.88 311.76 -1197.58 317.29 C-1195.14 320.44 -1192.85 323.65 -1190.69 327 C-1189.1 329.46 -1187.71 331.29 -1185.62 333.38 C-1182.31 336.69 -1179.76 340.37 -1177.04 344.17 C-1175.24 346.66 -1173.4 349.09 -1171.5 351.5 C-1165.58 359.05 -1160.03 366.87 -1154.64 374.81 C-1153.05 377.05 -1153.05 377.05 -1151.04 378.96 C-1148.79 381.21 -1147.03 383.59 -1145.19 386.19 C-1142.61 389.79 -1139.99 393.33 -1137.25 396.81 C-1135.31 399.28 -1133.46 401.74 -1131.75 404.38 C-1130.17 406.93 -1130.17 406.93 -1128.44 408.56 C-1127 410 -1127 410 -1125.7 412.35 C-1122.54 417.27 -1117.46 420.77 -1111.95 422.73 C-1106.09 423.38 -1102.06 419.59 -1097.67 416.16 C-1096.79 415.44 -1095.91 414.73 -1095 414 C-1093.61 412.95 -1092.21 411.91 -1090.81 410.88 C-1090.18 410.4 -1089.54 409.92 -1088.89 409.42 C-1087.62 408.47 -1086.35 407.52 -1085.08 406.58 C-1081.3 403.77 -1077.6 400.89 -1073.94 397.94 C-1063.96 389.92 -1063.96 389.92 -1059.88 388 C-1057.08 386.51 -1055.2 384.25 -1053 382 C-1049.5 379.12 -1045.89 376.4 -1042.25 373.69 C-1037.12 369.85 -1032.04 365.95 -1027 362 C-1022.74 358.67 -1018.48 355.34 -1014.12 352.12 C-1010.84 349.68 -1007.66 347.11 -1004.5 344.5 C-992.89 334.96 -992.89 334.96 -987.19 331.88 C-984.1 330.06 -983.01 328.83 -981 326 C-979.34 324.99 -977.67 323.99 -976 323 C-974.37 321.76 -972.77 320.48 -971.19 319.19 C-968.19 316.75 -965.18 314.36 -962.06 312.06 C-958.79 309.64 -955.64 307.09 -952.5 304.5 C-947.22 300.16 -941.94 295.89 -936.19 292.19 C-932.18 289.44 -928.5 286.35 -924.75 283.25 C-919.69 279.11 -914.6 275.36 -909 272 C-907.98 271.02 -906.98 270.02 -906 269 C-899.2 263.07 -892.78 263.46 -884 264 C-879.59 264.74 -875.32 265.84 -871 267 C-868.91 267.54 -866.82 268.07 -864.73 268.59 C-863.37 268.94 -862.01 269.29 -860.64 269.64 C-857.47 270.45 -854.4 271.08 -851.15 271.49 C-848 272 -848 272 -846 274 C-843.28 274.39 -843.28 274.39 -840.19 274.5 C-835.97 274.71 -832.87 275.34 -829 277 C-827.82 277.16 -826.65 277.33 -825.44 277.5 C-822 278 -822 278 -820.08 279 C-817.74 280.13 -815.9 280.36 -813.31 280.56 C-809.1 280.9 -809.1 280.9 -808 282 C-806.47 282.35 -804.92 282.65 -803.38 282.94 C-800.4 283.48 -797.56 284.13 -794.65 284.97 C-789.6 286.39 -784.48 287.27 -779.33 288.22 C-776 289 -776 289 -773 291 C-771.06 291.27 -771.06 291.27 -768.88 291.31 C-763.81 291.71 -759.27 293 -754.44 294.5 C-749.39 296.06 -744.72 297.34 -739.43 297.7 C-731.15 298.73 -722.88 301.45 -714.88 303.75 C-711.88 304.59 -709.78 305 -706.62 305 C-704 305 -704 305 -701.69 306.44 C-698.43 308.33 -695.89 308.48 -692.18 308.69 C-689.76 309.03 -688.17 309.9 -686 311 C-683.97 311.37 -683.97 311.37 -681.94 311.5 C-678 312 -678 312 -675 314 C-672.96 314.31 -672.96 314.31 -670.69 314.38 C-665.08 314.83 -659.99 316.33 -654.61 317.95 C-648.33 319.78 -641.94 321.28 -635.5 322.46 C-633 323 -633 323 -630.12 323.96 C-626.78 325.07 -623.45 325.88 -620 326.62 C-618.82 326.89 -617.65 327.15 -616.44 327.41 C-613.07 328.11 -613.07 328.11 -609.88 327.9 C-607 328 -607 328 -604.71 329.41 C-600.84 331.68 -596.98 331.95 -592.56 332.5 C-586.67 333.24 -582.33 334.26 -577 337 C-566.53 340.09 -555.57 341.36 -544.69 341.38 C-543.84 341.38 -542.98 341.38 -542.11 341.38 C-536.75 341.28 -532.16 340.41 -527 339 C-524.76 338.61 -522.5 338.26 -520.25 337.94 C-513.54 337.38 -513.54 337.38 -508.19 334 C-506 332 -506 332 -502.56 331.56 C-498.12 330.86 -497.07 329.15 -494 326 C-492 325.64 -490 325.31 -488 325 C-487.55 324.38 -487.09 323.76 -486.62 323.12 C-484.47 320.3 -482.27 319.82 -478.94 318.81 C-476.73 317.89 -475.65 316.71 -474 315 C-472.35 314.28 -470.7 313.56 -469.04 312.88 C-464.43 310.89 -459.9 308.46 -455.91 305.4 C-454 304 -454 304 -451.06 303.06 C-447.91 302.17 -447.91 302.17 -445.5 299.94 C-443 298 -443 298 -439.81 297.5 C-438.88 297.34 -437.96 297.17 -437 297 C-436.71 296.38 -436.42 295.76 -436.12 295.12 C-434.72 292.46 -433.85 292.39 -431.06 291.44 C-430.37 291.23 -429.68 291.02 -428.97 290.81 C-426.73 289.89 -425.67 288.72 -424 287 C-421.68 285.97 -419.35 284.97 -417 284 C-415.33 283.01 -413.66 282.01 -412 281 C-411.15 280.69 -410.31 280.38 -409.44 280.06 C-406.88 279.14 -406.88 279.14 -405.12 277 C-402.35 274.39 -399.62 274.01 -396 273 C-395.34 272.01 -394.68 271.02 -394 270 C-391.94 269.32 -389.91 269 -387.78 268.62 C-387.19 268.42 -386.6 268.21 -386 268 C-385.67 267.01 -385.34 266.02 -385 265 C-383.26 264.16 -383.26 264.16 -381.12 263.5 C-377.9 262.5 -376.33 261.4 -374 259 C-371.67 257.98 -369.34 256.99 -367 256 C-366.34 255.51 -365.68 255.01 -365 254.5 C-363 253 -363 253 -359.44 251.5 C-356.1 250.31 -356.1 250.31 -354.5 248.44 C-353 247 -353 247 -349.5 246.06 C-345.97 245.37 -345.97 245.37 -344.5 243 C-342.27 240.03 -339.5 239.94 -336 239 C-334.98 238.02 -333.98 237.02 -333 236 C-321.16 229 -321.16 229 -316 229 C-315.84 228.38 -315.67 227.76 -315.5 227.12 C-313.68 224.55 -312.99 224.6 -310 224 C-309.3 223.9 -308.6 223.79 -307.88 223.69 C-305.8 223.17 -305.8 223.17 -305.03 221.04 C-304 219 -304 219 -301.94 218.06 C-301.16 217.85 -300.37 217.65 -299.56 217.44 C-296.09 216.52 -294.46 215.59 -292 213 C-289.67 211.98 -287.34 210.99 -285 210 C-283.66 209.01 -282.32 208.01 -281 207 C-280.13 206.67 -279.27 206.34 -278.38 206 C-275.68 205.12 -275.68 205.12 -274 202 C-271.73 201.09 -269.45 200.49 -267.09 199.84 C-264.65 199.09 -264.65 199.09 -263 196 C-261.89 195.88 -260.77 195.75 -259.62 195.62 C-255.11 194.85 -254.73 193.49 -252 190 C-249.68 189.28 -247.35 188.61 -245 188 C-244.34 187.01 -243.68 186.02 -243 185 C-241.16 184.16 -241.16 184.16 -239.06 183.5 C-235.87 182.5 -234.32 181.37 -232 179 C-229.67 178 -227.33 177 -225 176 C-224.51 175.48 -224.01 174.97 -223.5 174.44 C-222 173 -222 173 -218.56 172.06 C-214.97 171.3 -214.97 171.3 -212.94 168.94 C-211 167 -211 167 -207.94 166.5 C-204.23 165.87 -204.17 164.92 -202 162 C-199.99 160.85 -197.95 159.88 -195.84 158.93 C-193.82 158.03 -193.82 158.03 -192 156 C-190.33 155.57 -190.33 155.57 -188.62 155.12 C-184.98 154.3 -184.98 154.3 -182.94 151.94 C-181 150 -181 150 -177.88 149.5 C-176.93 149.34 -175.98 149.17 -175 149 C-174.7 148.36 -174.41 147.72 -174.1 147.07 C-173 145 -173 145 -170.91 144.06 C-170.11 143.85 -169.32 143.65 -168.5 143.44 C-164.52 142.42 -164.52 142.42 -162 139 C-160.2 138.16 -160.2 138.16 -158.12 137.5 C-154.91 136.4 -152.67 135.12 -150 133 C-149.15 132.67 -148.31 132.34 -147.44 132 C-144.99 131.19 -144.99 131.19 -143.6 129.53 C-141.33 127.35 -138.89 126.78 -135.94 125.84 C-133.92 125.11 -133.92 125.11 -132.47 123.46 C-131 122 -131 122 -127.5 121.06 C-123.97 120.37 -123.97 120.37 -122.5 118 C-120.27 115.03 -117.5 114.94 -114 114 C-112.98 113.02 -111.98 112.02 -111 111 C-108.67 109.98 -106.34 108.99 -104 108 C-102.66 107.01 -101.32 106.01 -100 105 C-99.2 104.69 -98.39 104.38 -97.56 104.06 C-94.86 103.09 -94.86 103.09 -92.56 100.94 C-90 99 -90 99 -86.81 98.5 C-85.88 98.34 -84.96 98.17 -84 98 C-83.7 97.36 -83.4 96.72 -83.1 96.06 C-82 94 -82 94 -79.98 93.09 C-79.2 92.9 -78.42 92.7 -77.62 92.5 C-73.66 91.34 -71.84 90.03 -69 87 C-67.01 86.3 -65.01 85.63 -63 85 C-61.65 84.02 -60.32 83.02 -59 82 C-58.15 81.67 -57.31 81.34 -56.44 81 C-54 80.19 -54 80.19 -52.62 78.56 C-51 77 -51 77 -47.62 75.56 C-43.32 73.71 -40.44 71.3 -36.98 68.19 C-36.27 67.55 -35.55 66.91 -34.81 66.25 C-34.14 65.64 -33.46 65.02 -32.77 64.39 C-31 63 -31 63 -29 63 C-28.76 62.44 -28.52 61.88 -28.27 61.3 C-26.73 58.51 -24.82 56.5 -22.62 54.19 C-19.04 50.28 -16.43 46.68 -14 42 C-13.53 41.43 -13.07 40.86 -12.59 40.27 C-10.47 37.25 -9.26 34 -8 30.56 C-7.74 29.86 -7.48 29.15 -7.21 28.42 C-3.98 19.46 -2.09 10.44 -1 1 C-0.67 0.67 -0.34 0.34 0 0 Z " fill="#FCFCFC" transform="translate(1279,811)"/>
<path d="M0 0 C1.23 0 1.23 0 2.48 0.01 C3.34 0 4.21 0 5.1 0 C8.03 -0 10.97 -0 13.91 0 C16.02 -0 18.13 -0 20.24 -0.01 C26.07 -0.01 31.9 -0.01 37.73 -0.01 C44 -0.01 50.28 -0.02 56.55 -0.02 C68.86 -0.03 81.16 -0.03 93.47 -0.03 C103.47 -0.03 113.47 -0.03 123.46 -0.04 C126.34 -0.04 129.21 -0.04 132.08 -0.04 C133.16 -0.04 133.16 -0.04 134.25 -0.04 C154.35 -0.05 174.46 -0.05 194.56 -0.05 C195.7 -0.05 195.7 -0.05 196.86 -0.05 C200.71 -0.05 204.55 -0.05 208.4 -0.05 C209.16 -0.05 209.93 -0.05 210.71 -0.05 C212.26 -0.05 213.8 -0.05 215.35 -0.05 C239.38 -0.05 263.41 -0.06 287.45 -0.07 C314.42 -0.09 341.4 -0.09 368.38 -0.09 C371.26 -0.09 374.13 -0.09 377 -0.09 C377.71 -0.09 378.42 -0.09 379.15 -0.09 C390.56 -0.09 401.97 -0.1 413.38 -0.11 C424.84 -0.12 436.31 -0.12 447.77 -0.11 C453.98 -0.11 460.19 -0.11 466.41 -0.12 C472.09 -0.12 477.77 -0.12 483.45 -0.11 C485.51 -0.11 487.58 -0.12 489.64 -0.12 C492.43 -0.13 495.22 -0.12 498.01 -0.11 C498.82 -0.12 499.63 -0.12 500.47 -0.13 C504.3 -0.1 506.1 -0.04 509.37 2.13 C509.65 4.92 509.75 7.47 509.71 10.26 C509.71 11.1 509.71 11.93 509.71 12.8 C509.71 15.58 509.68 18.36 509.66 21.14 C509.66 23.07 509.65 24.99 509.65 26.92 C509.64 31.99 509.61 37.07 509.57 42.14 C509.54 47.31 509.53 52.49 509.51 57.66 C509.48 67.82 509.43 77.98 509.37 88.13 C505.56 89.4 501.99 89.27 498.02 89.26 C496.73 89.27 496.73 89.27 495.4 89.27 C492.47 89.27 489.55 89.27 486.62 89.27 C484.51 89.27 482.4 89.27 480.29 89.28 C474.48 89.28 468.66 89.28 462.85 89.28 C456.58 89.28 450.32 89.29 444.06 89.29 C431.78 89.3 419.5 89.3 407.22 89.3 C397.25 89.3 387.27 89.3 377.3 89.31 C374.43 89.31 371.56 89.31 368.69 89.31 C367.98 89.31 367.27 89.31 366.53 89.31 C346.47 89.32 326.41 89.32 306.35 89.32 C305.59 89.32 304.83 89.32 304.05 89.32 C300.22 89.32 296.38 89.32 292.55 89.32 C291.4 89.32 291.4 89.32 290.24 89.32 C288.7 89.32 287.16 89.32 285.62 89.32 C261.64 89.32 237.66 89.33 213.68 89.34 C186.75 89.36 159.83 89.36 132.91 89.36 C130.04 89.36 127.17 89.36 124.31 89.36 C123.6 89.36 122.89 89.36 122.17 89.36 C110.78 89.36 99.39 89.37 88 89.38 C76.57 89.39 65.14 89.39 53.7 89.38 C47.5 89.38 41.3 89.38 35.1 89.39 C29.44 89.39 23.77 89.39 18.1 89.38 C16.05 89.38 13.99 89.38 11.93 89.39 C9.15 89.4 6.37 89.39 3.59 89.38 C2.77 89.39 1.96 89.39 1.12 89.4 C-4.4 89.36 -4.4 89.36 -6.63 87.13 C-6.83 84.4 -6.89 81.77 -6.88 79.03 C-6.88 78.19 -6.88 77.35 -6.88 76.49 C-6.88 73.71 -6.87 70.94 -6.86 68.16 C-6.86 66.24 -6.86 64.32 -6.86 62.39 C-6.86 58.36 -6.85 54.33 -6.84 50.3 C-6.82 45.11 -6.82 39.93 -6.82 34.75 C-6.82 30.78 -6.81 26.81 -6.8 22.84 C-6.8 20.93 -6.8 19.02 -6.8 17.11 C-6.8 14.44 -6.79 11.78 -6.78 9.11 C-6.78 8.31 -6.78 7.52 -6.78 6.69 C-6.74 0.2 -6.49 0.02 0 0 Z " fill="#FDFDFD" transform="translate(545.6321546435356,112.86513730883598)"/>
<path d="M0 0 C1.27 -0 2.54 -0.01 3.85 -0.01 C5.24 -0.01 6.63 -0 8.02 -0 C9.5 -0 10.97 -0.01 12.45 -0.01 C16.45 -0.01 20.45 -0.01 24.44 -0.01 C28.63 -0 32.83 -0.01 37.02 -0.01 C44.06 -0.01 51.09 -0.01 58.13 -0 C66.26 0 74.38 0 82.51 -0.01 C89.5 -0.01 96.49 -0.01 103.47 -0.01 C107.64 -0.01 111.81 -0.01 115.98 -0.01 C119.9 -0.01 123.82 -0.01 127.74 -0 C129.18 -0 130.61 -0 132.05 -0.01 C134.01 -0.01 135.98 -0 137.95 0 C139.59 0 139.59 0 141.27 0 C149.99 0.34 156.08 2.38 162.09 8.87 C164.74 12.39 166.32 15.84 167.47 20.13 C168.13 20.13 168.79 20.13 169.47 20.13 C169.55 22.73 169.61 25.33 169.66 27.94 C169.69 28.68 169.71 29.42 169.74 30.18 C169.81 35.7 169.81 35.7 168.04 37.93 C167.52 38.32 167.01 38.72 166.47 39.13 C166.04 40.24 165.61 41.35 165.16 42.5 C162.46 48.29 157.89 51.03 152.47 54.13 C152.14 54.46 151.81 54.79 151.47 55.13 C143.75 56.29 136.08 56.27 128.28 56.26 C126.87 56.26 125.45 56.26 124.04 56.26 C120.22 56.27 116.4 56.26 112.58 56.26 C108.57 56.26 104.55 56.26 100.54 56.26 C93.81 56.26 87.07 56.26 80.34 56.26 C72.57 56.25 64.8 56.25 57.03 56.26 C50.34 56.26 43.65 56.26 36.96 56.26 C32.98 56.26 28.99 56.26 25 56.26 C21.25 56.27 17.5 56.26 13.75 56.26 C11.73 56.26 9.71 56.26 7.69 56.26 C-5.44 56.23 -14.2 55.34 -24.45 46.46 C-28.7 42.02 -30.21 37.03 -31.53 31.13 C-31.85 29.81 -31.85 29.81 -32.18 28.46 C-32.67 25.16 -31.31 23.92 -29.53 21.13 C-29.02 19.62 -28.54 18.09 -28.09 16.56 C-26.9 12.8 -25.65 10.66 -22.53 8.13 C-21.82 7.35 -21.82 7.35 -21.09 6.56 C-19.09 4.73 -16.87 3.48 -14.53 2.13 C-14.2 1.8 -13.87 1.47 -13.53 1.13 C-8.99 0.33 -4.61 0 0 0 Z " fill="#FCFCFC" transform="translate(727.5272216796875,295.8730163574219)"/>
<path d="M0 0 C1.43 2.49 2.05 4.31 2.5 7.19 C2.66 8.12 2.83 9.04 3 10 C3.66 10.33 4.32 10.66 5 11 C5 14.3 5 17.6 5 21 C3.68 20.34 2.36 19.68 1 19 C1.2 18.44 1.39 17.88 1.59 17.31 C2.23 13.7 0.81 10.91 -0.41 7.54 C-1.08 4.67 -0.77 2.82 0 0 Z " fill="#575757" transform="translate(1275,777)"/>
</svg>
