<?xml version="1.0" encoding="UTF-8"?>
<!-- Generator: visioncortex VTracer 0.6.3 -->
<svg version="1.1" xmlns="http://www.w3.org/2000/svg" width="1280" height="1280">
<path d="M0 0 C422.4 0 844.8 0 1280 0 C1280 422.4 1280 844.8 1280 1280 C857.6 1280 435.2 1280 0 1280 C0 857.6 0 435.2 0 0 Z " fill="#FCFCFC" transform="translate(0,0)"/>
<path d="M0 0 C1.14 -0 2.29 -0.01 3.46 -0.01 C5.32 -0.01 5.32 -0.01 7.22 -0 C8.53 -0 9.85 -0.01 11.21 -0.01 C14.8 -0.01 18.4 -0.01 22 -0.01 C25.76 -0 29.52 -0.01 33.29 -0.01 C39.6 -0.01 45.92 -0.01 52.24 -0 C59.55 0 66.86 0 74.16 -0.01 C80.44 -0.01 86.72 -0.01 92.99 -0.01 C96.74 -0.01 100.49 -0.01 104.24 -0.01 C108.41 -0.01 112.58 -0.01 116.75 -0 C118.62 -0.01 118.62 -0.01 120.54 -0.01 C121.66 -0.01 122.79 -0 123.96 0 C124.94 0 125.93 0 126.95 0 C129.16 0.13 129.16 0.13 130.16 1.13 C130.26 3.09 130.29 5.05 130.29 7.01 C130.29 8.27 130.3 9.52 130.3 10.82 C130.3 12.2 130.3 13.59 130.29 14.97 C130.29 16.38 130.29 17.79 130.3 19.2 C130.3 22.15 130.3 25.11 130.29 28.06 C130.28 31.86 130.29 35.66 130.29 39.45 C130.3 42.36 130.3 45.27 130.29 48.18 C130.29 49.58 130.29 50.98 130.3 52.38 C130.3 54.34 130.29 56.29 130.29 58.25 C130.29 59.36 130.29 60.47 130.29 61.62 C130.16 64.13 130.16 64.13 129.16 65.13 C127.08 65.25 125 65.29 122.92 65.32 C121.94 65.33 121.94 65.33 120.94 65.34 C119.52 65.36 118.1 65.37 116.67 65.39 C114.42 65.41 112.17 65.44 109.91 65.46 C105.12 65.52 100.33 65.58 95.54 65.63 C90 65.69 84.47 65.75 78.93 65.82 C76.72 65.85 74.51 65.87 72.3 65.89 C70.92 65.9 69.55 65.92 68.18 65.94 C66.4 65.96 66.4 65.96 64.58 65.98 C54.94 66.4 47.16 69.32 40.16 76.13 C32.49 85.56 31.71 97.33 31.79 109.03 C31.78 110.28 31.78 111.53 31.77 112.82 C31.76 116.27 31.77 119.72 31.78 123.17 C31.79 126.93 31.78 130.69 31.77 134.45 C31.76 141.03 31.77 147.61 31.78 154.19 C31.79 163.98 31.79 173.77 31.78 183.56 C31.77 201.04 31.77 218.52 31.78 236 C31.79 251.29 31.8 266.59 31.8 281.88 C31.8 282.9 31.8 283.91 31.8 284.96 C31.8 289.07 31.8 293.19 31.8 297.31 C31.79 335.93 31.8 374.56 31.83 413.18 C31.84 447.51 31.85 481.84 31.84 516.16 C31.84 518.37 31.84 520.57 31.84 522.78 C31.84 524.41 31.84 524.41 31.84 526.08 C31.84 531.57 31.84 537.05 31.84 542.54 C31.84 543.62 31.84 544.71 31.84 545.82 C31.84 574.5 31.84 603.17 31.85 631.85 C31.85 634.93 31.85 638.02 31.85 641.1 C31.85 643.15 31.85 645.2 31.85 647.24 C31.86 661.52 31.86 675.79 31.86 690.07 C31.85 708.46 31.86 726.85 31.87 745.24 C31.88 754.97 31.89 764.7 31.88 774.43 C31.88 780.93 31.88 787.42 31.89 793.91 C31.9 797.62 31.9 801.32 31.89 805.02 C31.89 809.01 31.9 812.99 31.91 816.97 C31.9 818.13 31.9 819.29 31.89 820.48 C31.92 825.77 32.05 830.18 34.16 835.13 C34.3 835.85 34.45 836.57 34.6 837.31 C35.31 839.62 36.39 840.49 38.16 842.13 C38.72 842.89 39.27 843.65 39.85 844.44 C46.07 851.67 52.33 854.58 61.79 855.34 C64.74 855.45 67.69 855.51 70.65 855.54 C71.79 855.56 72.92 855.58 74.09 855.6 C77.88 855.66 81.68 855.7 85.48 855.75 C86.84 855.77 88.19 855.79 89.55 855.8 C125.17 856.3 160.79 856.24 196.42 856.2 C206.17 856.19 215.93 856.18 225.68 856.18 C243.06 856.17 260.44 856.16 277.83 856.15 C278.86 856.15 279.89 856.15 280.95 856.14 C287.22 856.14 293.48 856.13 299.75 856.13 C309.27 856.12 318.8 856.11 328.32 856.11 C329.88 856.11 329.88 856.11 331.48 856.1 C348.9 856.09 366.31 856.08 383.72 856.07 C394.41 856.07 405.1 856.06 415.79 856.05 C423.06 856.04 430.34 856.04 437.62 856.03 C441.82 856.03 446.01 856.03 450.21 856.02 C454.04 856.01 457.88 856.01 461.71 856.01 C463.1 856.01 464.5 856.01 465.89 856.01 C467.77 856 469.65 856 471.53 856.01 C472.57 856.01 473.62 856 474.7 856 C477.16 856.13 477.16 856.13 479.16 857.13 C479.16 859.13 479.16 859.13 477.17 861.21 C476.71 861.65 476.26 862.09 475.79 862.54 C472.4 865.84 469.21 869.32 465.97 872.75 C465.25 873.52 464.52 874.28 463.78 875.06 C463.09 875.8 462.39 876.53 461.68 877.29 C461.05 877.96 460.42 878.62 459.78 879.31 C457.99 881.24 457.99 881.24 456.16 884.13 C455.5 884.13 454.84 884.13 454.16 884.13 C453.89 884.71 453.62 885.29 453.35 885.89 C452.15 888.15 450.82 889.93 449.16 891.88 C448.64 892.49 448.13 893.1 447.6 893.74 C446.16 895.13 446.16 895.13 444.16 895.13 C443.76 896.01 443.76 896.01 443.35 896.92 C442.15 899.15 440.89 900.69 439.15 902.52 C438.55 903.15 437.96 903.77 437.35 904.42 C436.73 905.07 436.11 905.71 435.47 906.38 C434.26 907.65 433.05 908.93 431.84 910.21 C431.03 911.05 431.03 911.05 430.21 911.91 C428.16 913.97 428.16 913.97 427.03 916.06 C424.42 919.97 422.4 921.86 417.72 922.87 C413.2 923.26 408.68 923.18 404.14 923.12 C402.38 923.13 400.62 923.14 398.85 923.15 C394.01 923.18 389.17 923.16 384.32 923.13 C379.1 923.1 373.88 923.13 368.65 923.14 C358.42 923.17 348.18 923.15 337.95 923.11 C326.03 923.08 314.11 923.08 302.19 923.08 C280.92 923.09 259.65 923.06 238.37 923.01 C217.74 922.95 197.1 922.93 176.47 922.94 C154 922.96 131.53 922.95 109.06 922.92 C107.87 922.92 106.68 922.92 105.45 922.92 C103.07 922.91 100.68 922.91 98.29 922.91 C89.99 922.9 81.68 922.9 73.37 922.9 C63.25 922.9 53.12 922.89 42.99 922.85 C37.83 922.83 32.66 922.82 27.49 922.83 C22.76 922.84 18.03 922.83 13.3 922.79 C11.59 922.79 9.88 922.79 8.17 922.8 C-1.49 922.85 -9.31 922.19 -17.84 917.13 C-18.93 916.51 -20.03 915.89 -21.15 915.25 C-29.12 908.95 -33.15 901.12 -34.84 891.13 C-34.93 889.09 -34.97 887.05 -34.97 885 C-34.97 883.76 -34.98 882.52 -34.98 881.24 C-34.98 879.87 -34.98 878.49 -34.98 877.11 C-34.98 875.64 -34.99 874.17 -34.99 872.71 C-35 868.65 -35 864.59 -35 860.54 C-35 856.13 -35.01 851.73 -35.02 847.32 C-35.03 838.58 -35.04 829.83 -35.04 821.08 C-35.05 810.61 -35.06 800.14 -35.07 789.66 C-35.11 763.14 -35.13 736.62 -35.14 710.11 C-35.15 702.92 -35.15 695.74 -35.16 688.56 C-35.19 643.98 -35.22 599.4 -35.23 554.82 C-35.24 544.49 -35.24 534.16 -35.24 523.82 C-35.25 522.54 -35.25 521.26 -35.25 519.94 C-35.26 478.33 -35.3 436.72 -35.35 395.11 C-35.4 352.34 -35.44 309.57 -35.44 266.8 C-35.45 260.76 -35.45 254.72 -35.45 248.67 C-35.45 247.48 -35.45 246.3 -35.45 245.07 C-35.45 225.94 -35.48 206.8 -35.51 187.67 C-35.54 168.44 -35.55 149.2 -35.54 129.97 C-35.53 118.54 -35.54 107.12 -35.58 95.69 C-35.6 88.05 -35.6 80.42 -35.58 72.78 C-35.57 68.43 -35.57 64.08 -35.59 59.73 C-35.82 20.52 -35.82 20.52 -25.34 8.75 C-22.43 6.33 -19.34 4.6 -15.84 3.13 C-15.18 2.76 -14.52 2.38 -13.84 2 C-9.46 0.08 -4.72 0 0 0 Z " fill="#000002" transform="translate(113.83992004394531,174.87301635742188)"/>
<path d="M0 0 C4.47 0.23 6.53 2.02 9.62 5.1 C10.96 6.43 10.96 6.43 12.34 7.78 C13.32 8.77 14.3 9.76 15.28 10.75 C16.32 11.78 17.37 12.82 18.41 13.85 C21.24 16.66 24.06 19.48 26.88 22.31 C29.23 24.67 31.59 27.02 33.95 29.37 C39.51 34.91 45.06 40.47 50.61 46.03 C56.33 51.77 62.07 57.5 67.82 63.21 C72.75 68.12 77.68 73.03 82.59 77.96 C85.53 80.9 88.47 83.84 91.42 86.77 C94.19 89.52 96.95 92.29 99.7 95.06 C100.71 96.08 101.73 97.09 102.75 98.1 C104.14 99.47 105.51 100.87 106.89 102.26 C107.66 103.04 108.44 103.81 109.24 104.61 C111.35 107.47 111.84 109.47 112 113 C110.19 115.27 110.19 115.27 107.56 117.38 C106.64 118.14 105.72 118.91 104.77 119.71 C103.4 120.84 103.4 120.84 102 122 C100.58 123.33 99.19 124.69 97.81 126.06 C97.24 126.63 96.67 127.2 96.08 127.79 C94.29 129.69 92.59 131.63 90.89 133.61 C87.01 138.05 82.9 142.23 78.73 146.39 C77.92 147.19 77.12 148 76.29 148.83 C73.6 151.51 70.92 154.19 68.23 156.87 C66.3 158.79 64.37 160.72 62.44 162.65 C58.29 166.8 54.14 170.94 49.99 175.08 C43.98 181.08 37.97 187.08 31.97 193.09 C22.21 202.84 12.45 212.58 2.69 222.33 C2.11 222.91 1.52 223.5 0.92 224.1 C-3.81 228.82 -8.54 233.55 -13.28 238.27 C-17.41 242.41 -21.55 246.54 -25.69 250.67 C-26.27 251.25 -26.85 251.83 -27.45 252.43 C-37.18 262.14 -46.9 271.86 -56.63 281.57 C-62.62 287.56 -68.61 293.54 -74.6 299.52 C-78.71 303.62 -82.81 307.72 -86.92 311.82 C-89.28 314.19 -91.65 316.55 -94.02 318.91 C-96.59 321.48 -99.16 324.04 -101.73 326.61 C-102.47 327.35 -103.21 328.09 -103.97 328.85 C-107.95 332.84 -111.76 336.91 -115.42 341.19 C-118.16 344.33 -121.12 347.24 -124.07 350.17 C-124.71 350.81 -125.36 351.45 -126.02 352.12 C-128.05 354.14 -130.09 356.16 -132.12 358.19 C-133.5 359.55 -134.87 360.92 -136.24 362.29 C-139.31 365.34 -142.37 368.4 -145.45 371.45 C-146.89 372.89 -148.33 374.33 -149.76 375.78 C-155.05 381.02 -161.02 385.68 -167.12 389.94 C-170.04 391.69 -170.04 391.69 -171 394 C-172.98 394.73 -174.96 395.45 -176.95 396.14 C-179.23 396.98 -179.23 396.98 -181.56 399.12 C-184.65 401.5 -187.19 401.5 -191 402 C-191.66 402.99 -192.32 403.98 -193 405 C-194.88 405.59 -194.88 405.59 -197.12 405.94 C-201.01 406.69 -204.01 407.97 -207.51 409.86 C-212.83 412.29 -218.57 413.76 -224.16 415.44 C-226.48 416.15 -228.77 416.94 -231.06 417.75 C-233.75 418.67 -235.87 419.12 -238.75 419.5 C-241.99 419.77 -241.99 419.77 -244.3 421.47 C-248.31 423.74 -252.32 423.87 -256.84 424.38 C-259.98 424.8 -259.98 424.8 -262.27 426.4 C-266.34 428.78 -270.67 429.54 -275.25 430.56 C-276.61 430.87 -276.61 430.87 -277.99 431.19 C-279.79 431.61 -281.59 432.01 -283.4 432.42 C-285.08 432.79 -286.75 433.18 -288.43 433.57 C-298.1 435.81 -307.9 437.81 -317 433 C-320.52 430.11 -321.8 426.81 -322.3 422.34 C-322.33 415.44 -321.68 408.8 -320.62 402 C-320.44 400.78 -320.44 400.78 -320.24 399.54 C-319.56 395.42 -318.63 391.86 -317 388 C-317 386.97 -317 385.94 -317 384.88 C-317 382 -317 382 -315 379 C-314.61 377.51 -314.28 376.01 -314 374.5 C-313.39 371.25 -312.9 369.85 -311 367 C-310.62 365.34 -310.29 363.67 -310 362 C-308.06 354.83 -305.67 347.77 -303.41 340.69 C-302.01 336.28 -300.65 331.87 -299.35 327.43 C-299.08 326.52 -298.81 325.61 -298.54 324.68 C-298.02 322.92 -297.51 321.17 -297 319.41 C-296.77 318.62 -296.54 317.82 -296.3 317 C-296.09 316.3 -295.89 315.6 -295.68 314.88 C-295 313 -295 313 -293 310 C-292.5 308.64 -292.05 307.26 -291.62 305.88 C-285.85 288.11 -273.91 273.29 -260 261 C-259.34 261 -258.68 261 -258 261 C-257.73 260.41 -257.46 259.81 -257.19 259.2 C-256 256.99 -254.79 255.53 -253.03 253.77 C-252.17 252.91 -252.17 252.91 -251.3 252.03 C-250.41 251.15 -250.41 251.15 -249.5 250.25 C-248.91 249.65 -248.31 249.05 -247.7 248.43 C-247.13 247.86 -246.56 247.29 -245.97 246.7 C-245.45 246.18 -244.93 245.66 -244.39 245.13 C-243 244 -243 244 -241 244 C-240.64 243.15 -240.64 243.15 -240.27 242.28 C-238.75 239.55 -236.93 237.67 -234.72 235.45 C-233.46 234.19 -233.46 234.19 -232.17 232.89 C-231.29 232.02 -230.41 231.15 -229.5 230.25 C-228.62 229.36 -227.74 228.47 -226.83 227.56 C-225.57 226.3 -225.57 226.3 -224.28 225.02 C-223.51 224.25 -222.74 223.47 -221.94 222.68 C-220 221 -220 221 -218 221 C-217.6 220.11 -217.6 220.11 -217.19 219.2 C-216 216.99 -214.79 215.53 -213.03 213.77 C-212.17 212.91 -212.17 212.91 -211.3 212.03 C-210.41 211.15 -210.41 211.15 -209.5 210.25 C-208.91 209.65 -208.31 209.05 -207.7 208.43 C-207.13 207.86 -206.56 207.29 -205.97 206.7 C-205.45 206.18 -204.93 205.66 -204.39 205.13 C-203 204 -203 204 -201 204 C-200.76 203.44 -200.53 202.87 -200.28 202.29 C-198.7 199.47 -196.77 197.56 -194.46 195.3 C-193.09 193.95 -193.09 193.95 -191.7 192.57 C-190.74 191.63 -189.78 190.69 -188.81 189.75 C-186.94 187.91 -185.07 186.08 -183.21 184.23 C-182.38 183.42 -181.55 182.61 -180.69 181.77 C-178.64 179.66 -176.71 177.53 -174.79 175.29 C-170.48 170.33 -165.83 165.73 -161.16 161.1 C-159.76 159.7 -158.35 158.3 -156.95 156.9 C-154.51 154.47 -152.07 152.05 -149.62 149.62 C-146.68 146.71 -143.75 143.78 -140.81 140.86 C-138.99 139.05 -137.16 137.23 -135.34 135.42 C-134.52 134.61 -133.7 133.8 -132.86 132.96 C-132.14 132.24 -131.41 131.52 -130.67 130.78 C-128.93 129.09 -128.93 129.09 -128 127 C-127.34 127 -126.68 127 -126 127 C-125.8 126.46 -125.59 125.91 -125.38 125.35 C-123.46 122.08 -120.75 119.85 -117.94 117.38 C-113.95 113.78 -110.15 110.19 -106.62 106.12 C-103.08 102.06 -99.29 98.42 -95.32 94.78 C-86.42 86.55 -77.86 77.99 -69.3 69.4 C-67.66 67.75 -66.01 66.1 -64.36 64.45 C-60.07 60.16 -55.78 55.86 -51.49 51.56 C-47.12 47.18 -42.74 42.8 -38.37 38.42 C-31.31 31.35 -24.26 24.29 -17.22 17.23 C-13.81 13.82 -10.41 10.41 -7 7 C-6.11 6.11 -5.23 5.23 -4.31 4.31 C-2.88 2.88 -1.44 1.44 0 0 Z " fill="#000002" transform="translate(996,726)"/>
<path d="M0 0 C1.12 -0.01 2.23 -0.01 3.38 -0.02 C4.61 -0.02 5.83 -0.03 7.09 -0.03 C9.03 -0.04 9.03 -0.04 11 -0.05 C15.28 -0.07 19.56 -0.08 23.84 -0.09 C25.32 -0.1 26.8 -0.1 28.27 -0.1 C35.22 -0.12 42.16 -0.14 49.1 -0.15 C57.1 -0.15 65.1 -0.18 73.09 -0.22 C79.28 -0.25 85.47 -0.27 91.66 -0.27 C95.35 -0.27 99.05 -0.28 102.74 -0.31 C106.87 -0.33 111 -0.33 115.12 -0.32 C116.33 -0.34 117.54 -0.35 118.79 -0.36 C128.44 -0.3 136.53 1.77 144.63 7.15 C145.68 8.78 146.68 10.45 147.63 12.15 C148.27 12.73 148.91 13.32 149.58 13.93 C157.54 22.56 156.19 37.89 156.13 48.84 C156.13 50.7 156.14 52.56 156.14 54.42 C156.16 59.5 156.15 64.58 156.13 69.66 C156.12 75.15 156.14 80.64 156.14 86.13 C156.16 96.86 156.15 107.6 156.14 118.34 C156.12 130.84 156.12 143.35 156.13 155.85 C156.13 178.83 156.12 201.81 156.09 224.78 C156.07 245.76 156.06 266.73 156.07 287.71 C156.07 293.08 156.08 298.46 156.08 303.83 C156.08 304.5 156.08 305.16 156.08 305.84 C156.09 323.38 156.08 340.91 156.07 358.45 C156.07 360.96 156.07 363.48 156.07 365.99 C156.07 367.22 156.06 368.46 156.06 369.73 C156.06 378.45 156.06 387.17 156.07 395.89 C156.07 406.51 156.06 417.13 156.04 427.74 C156.03 433.16 156.03 438.58 156.04 444 C156.04 448.95 156.04 453.91 156.02 458.87 C156.02 460.66 156.02 462.46 156.02 464.25 C156.03 466.69 156.02 469.12 156.01 471.56 C156.01 472.26 156.02 472.97 156.03 473.69 C155.94 481.02 152.19 484.87 147.38 489.96 C146.38 491.03 145.39 492.09 144.4 493.16 C143.92 493.68 143.44 494.19 142.94 494.72 C141.28 496.52 139.67 498.36 138.06 500.21 C134.46 504.37 130.75 508.42 127.04 512.48 C125.01 514.72 123.03 516.98 121.06 519.27 C117.82 523.01 114.34 526.45 110.82 529.92 C107.59 533.19 104.61 536.65 101.63 540.15 C100.38 541.59 99.13 543.02 97.88 544.46 C97.05 545.41 97.05 545.41 96.2 546.39 C94.73 548.03 93.21 549.6 91.63 551.15 C91.63 550.49 91.63 549.83 91.63 549.15 C90.97 549.15 90.31 549.15 89.63 549.15 C89.62 547.7 89.62 547.7 89.62 546.22 C89.54 489.06 89.45 431.9 89.35 374.75 C89.33 367.89 89.32 361.03 89.31 354.17 C89.31 353.49 89.31 352.81 89.3 352.1 C89.27 329.97 89.23 307.84 89.2 285.71 C89.17 262.33 89.13 238.95 89.08 215.57 C89.06 201.55 89.03 187.54 89.02 173.53 C89.01 163.93 88.99 154.33 88.97 144.74 C88.95 139.19 88.94 133.65 88.94 128.1 C88.94 123.03 88.93 117.96 88.91 112.89 C88.91 111.05 88.91 109.21 88.91 107.37 C88.91 104.88 88.9 102.39 88.89 99.9 C88.89 99.18 88.9 98.46 88.9 97.72 C88.86 93.7 88.16 90.82 86.63 87.15 C87.12 85.66 87.12 85.66 87.63 84.15 C86.97 84.15 86.31 84.15 85.63 84.15 C84.03 81.98 82.67 79.7 81.26 77.41 C79.59 75.1 77.89 73.82 75.63 72.15 C75.63 71.49 75.63 70.83 75.63 70.15 C75 69.94 74.37 69.74 73.73 69.53 C72.91 69.26 72.09 68.99 71.25 68.71 C70.44 68.44 69.63 68.18 68.79 67.9 C66.63 67.15 66.63 67.15 64.63 66.15 C62.35 66.03 60.08 65.98 57.81 65.96 C57.1 65.95 56.4 65.94 55.68 65.93 C54.16 65.92 52.63 65.9 51.11 65.89 C48.7 65.87 46.3 65.84 43.89 65.81 C37.91 65.74 31.93 65.68 25.95 65.62 C20.9 65.57 15.85 65.52 10.8 65.46 C8.42 65.43 6.04 65.41 3.67 65.39 C2.22 65.37 0.77 65.35 -0.68 65.34 C-1.95 65.32 -3.22 65.31 -4.53 65.3 C-7.37 65.15 -7.37 65.15 -8.37 64.15 C-8.47 62.18 -8.49 60.22 -8.49 58.25 C-8.49 56.99 -8.49 55.73 -8.49 54.43 C-8.48 53.04 -8.48 51.66 -8.47 50.27 C-8.47 48.86 -8.47 47.45 -8.47 46.04 C-8.46 42.31 -8.45 38.59 -8.44 34.87 C-8.43 31.08 -8.43 27.29 -8.42 23.49 C-8.41 16.04 -8.39 8.6 -8.37 1.15 C-5.31 0.13 -3.21 0.01 0 0 Z " fill="#000002" transform="translate(780.3739013671875,174.8528289794922)"/>
<path d="M0 0 C1.26 -0 1.26 -0 2.54 -0.01 C5.36 -0.01 8.19 -0.01 11.01 -0.01 C13.05 -0.02 15.09 -0.02 17.12 -0.02 C22.74 -0.03 28.35 -0.04 33.96 -0.04 C40.01 -0.04 46.06 -0.05 52.11 -0.06 C66.02 -0.08 79.94 -0.09 93.86 -0.1 C100.74 -0.1 107.62 -0.11 114.5 -0.11 C138.05 -0.13 161.6 -0.15 185.15 -0.16 C186.63 -0.16 188.11 -0.16 189.59 -0.16 C190.32 -0.16 191.05 -0.16 191.81 -0.16 C195.52 -0.16 199.24 -0.16 202.95 -0.16 C203.69 -0.16 204.42 -0.16 205.18 -0.16 C229.08 -0.17 252.98 -0.19 276.88 -0.23 C302.15 -0.26 327.42 -0.28 352.69 -0.28 C355.47 -0.28 358.24 -0.28 361.01 -0.28 C362.04 -0.28 362.04 -0.28 363.08 -0.28 C374.07 -0.29 385.06 -0.3 396.05 -0.32 C407.1 -0.34 418.15 -0.35 429.2 -0.34 C435.18 -0.33 441.16 -0.34 447.15 -0.36 C452.63 -0.37 458.1 -0.37 463.58 -0.36 C465.56 -0.35 467.55 -0.36 469.53 -0.37 C489.91 -0.49 489.91 -0.49 496.56 4.13 C503.43 11.87 502.22 22.58 502.05 32.3 C502 35.16 501.98 38.01 501.98 40.87 C501.96 42.69 501.95 44.51 501.93 46.32 C501.92 47.18 501.92 48.03 501.91 48.91 C501.79 54.9 501.79 54.9 499.56 57.13 C499.35 58.1 499.15 59.07 498.93 60.07 C497.56 63.13 497.56 63.13 494.02 64.8 C489.55 66.33 485.45 66.55 480.76 66.51 C479.9 66.52 479.05 66.52 478.17 66.53 C475.31 66.54 472.45 66.53 469.59 66.52 C467.52 66.53 465.45 66.53 463.38 66.54 C457.69 66.55 452 66.55 446.31 66.54 C440.17 66.54 434.03 66.55 427.89 66.56 C416.57 66.58 405.24 66.58 393.91 66.57 C383.45 66.57 372.98 66.57 362.52 66.57 C361.11 66.58 359.71 66.58 358.3 66.58 C356.19 66.58 354.07 66.58 351.96 66.58 C332.29 66.59 312.62 66.6 292.96 66.59 C292.22 66.59 291.48 66.59 290.71 66.59 C284.69 66.58 278.67 66.58 272.65 66.58 C249.17 66.57 225.68 66.58 202.2 66.6 C175.81 66.63 149.43 66.64 123.04 66.63 C120.23 66.63 117.41 66.63 114.6 66.63 C113.91 66.63 113.22 66.63 112.5 66.63 C102.04 66.63 91.59 66.64 81.13 66.65 C69.24 66.66 57.35 66.66 45.45 66.65 C39.38 66.64 33.32 66.64 27.25 66.65 C21.69 66.67 16.14 66.66 10.59 66.64 C8.58 66.64 6.56 66.64 4.55 66.65 C1.82 66.66 -0.91 66.65 -3.64 66.63 C-4.42 66.64 -5.2 66.65 -6.01 66.66 C-12.29 66.58 -17.73 64.79 -22.29 60.33 C-25.43 55.06 -26.2 50.75 -26.18 44.67 C-26.18 43.79 -26.19 42.91 -26.2 42 C-26.22 40.15 -26.22 38.3 -26.2 36.45 C-26.19 33.64 -26.24 30.83 -26.3 28.02 C-26.41 13.03 -26.41 13.03 -22.02 8.01 C-20.86 7.01 -19.67 6.05 -18.44 5.13 C-17.76 4.33 -17.08 3.53 -16.38 2.7 C-11.96 -0.87 -5.44 -0.01 0 0 Z " fill="#010103" transform="translate(269.4409523010254,766.8657789230347)"/>
<path d="M0 0 C0.86 -0 1.72 -0.01 2.6 -0.01 C5.48 -0.02 8.36 -0.02 11.24 -0.01 C13.33 -0.02 15.41 -0.02 17.5 -0.03 C23.23 -0.04 28.96 -0.05 34.69 -0.05 C40.87 -0.05 47.05 -0.06 53.23 -0.07 C66.05 -0.09 78.86 -0.1 91.67 -0.11 C92.36 -0.11 93.06 -0.11 93.78 -0.11 C94.47 -0.11 95.17 -0.11 95.89 -0.11 C103.62 -0.11 111.35 -0.12 119.08 -0.12 C142.42 -0.14 165.76 -0.16 189.11 -0.16 C189.85 -0.16 190.6 -0.16 191.37 -0.16 C194.39 -0.16 197.42 -0.16 200.44 -0.16 C202.72 -0.16 205 -0.17 207.27 -0.17 C208.03 -0.17 208.78 -0.17 209.55 -0.17 C233.21 -0.17 256.86 -0.19 280.51 -0.23 C307.08 -0.27 333.64 -0.29 360.21 -0.29 C363.04 -0.29 365.87 -0.29 368.7 -0.29 C369.4 -0.29 370.1 -0.29 370.82 -0.29 C382.05 -0.29 393.27 -0.31 404.5 -0.33 C415.78 -0.36 427.06 -0.36 438.34 -0.35 C444.46 -0.34 450.57 -0.34 456.68 -0.36 C462.27 -0.38 467.87 -0.38 473.46 -0.36 C475.49 -0.36 477.51 -0.36 479.54 -0.38 C482.29 -0.39 485.03 -0.38 487.78 -0.36 C488.58 -0.37 489.37 -0.39 490.19 -0.4 C495.92 -0.31 498.37 1.16 502.39 5.26 C506.4 10.78 506.96 14.87 506.82 21.59 C506.81 22.46 506.81 23.33 506.81 24.23 C506.8 26.06 506.78 27.88 506.75 29.71 C506.7 32.52 506.69 35.32 506.67 38.12 C506.66 39.9 506.65 41.68 506.63 43.46 C506.62 44.3 506.62 45.14 506.61 46 C506.55 49.32 506.45 52.09 505.39 55.26 C504.73 55.26 504.07 55.26 503.39 55.26 C503.31 55.84 503.23 56.42 503.14 57.01 C502.17 59.93 500.72 61.28 498.39 63.26 C494.75 64.47 491.42 64.41 487.63 64.4 C486.82 64.4 486.02 64.41 485.19 64.41 C482.48 64.42 479.77 64.42 477.05 64.43 C475.1 64.43 473.14 64.44 471.18 64.44 C465.79 64.46 460.39 64.47 455 64.48 C449.19 64.49 443.37 64.5 437.56 64.52 C426.16 64.54 414.76 64.57 403.36 64.59 C394.09 64.61 384.81 64.63 375.54 64.65 C373.56 64.65 373.56 64.65 371.54 64.65 C369.53 64.66 367.52 64.66 365.52 64.67 C340.4 64.72 315.28 64.77 290.16 64.82 C267.89 64.86 245.61 64.91 223.34 64.96 C198.3 65.02 173.26 65.08 148.22 65.13 C145.54 65.13 142.87 65.14 140.19 65.14 C138.87 65.14 137.56 65.15 136.2 65.15 C126.96 65.17 117.71 65.19 108.47 65.21 C97.17 65.24 85.88 65.26 74.58 65.28 C68.83 65.29 63.07 65.3 57.32 65.32 C17.66 65.42 17.66 65.42 2.47 64.95 C1.53 64.92 0.58 64.9 -0.4 64.88 C-6.53 64.63 -12.59 63.79 -17.46 59.71 C-21.96 52.08 -21.36 43.46 -21.26 34.88 C-21.23 32.13 -21.26 29.4 -21.29 26.65 C-21.29 24.9 -21.28 23.14 -21.27 21.38 C-21.28 20.57 -21.29 19.76 -21.3 18.92 C-21.2 13.72 -20.13 10.77 -16.78 6.76 C-15.39 5.14 -15.39 5.14 -14.61 2.26 C-9.84 0.05 -5.16 -0.02 0 0 Z " fill="#000002" transform="translate(264.6082992553711,504.7399377822876)"/>
<path d="M0 0 C0.77 -0 1.53 -0.01 2.32 -0.01 C3.94 -0.02 5.56 -0.02 7.17 -0.02 C9.62 -0.02 12.06 -0.04 14.51 -0.06 C27.42 -0.1 38.61 0.63 49.33 8.54 C52.22 11.51 52.7 13.09 52.89 17.17 C53.55 17.17 54.21 17.17 54.89 17.17 C55.39 19.15 55.39 19.15 55.89 21.17 C56.55 21.17 57.21 21.17 57.89 21.17 C59 28.32 59.04 35.36 59.04 42.59 C59.04 43.93 59.04 45.27 59.05 46.62 C59.05 50.25 59.06 53.88 59.06 57.52 C59.06 59.79 59.06 62.06 59.06 64.34 C59.07 72.29 59.08 80.23 59.08 88.18 C59.08 95.57 59.09 102.96 59.1 110.34 C59.11 116.7 59.12 123.06 59.12 129.43 C59.12 133.22 59.12 137.01 59.13 140.8 C59.14 144.37 59.14 147.93 59.14 151.5 C59.13 153.42 59.14 155.34 59.15 157.25 C59.09 174.57 59.09 174.57 53.89 181.17 C53.59 182 53.28 182.83 52.97 183.69 C51.66 186.7 50.19 187.9 47.58 189.86 C46.82 190.44 46.06 191.02 45.28 191.62 C42.82 193.21 40.65 194.19 37.89 195.17 C37.34 195.42 36.78 195.68 36.21 195.94 C28.85 198.97 21.1 198.69 13.28 198.67 C10.86 198.67 8.43 198.71 6.01 198.75 C-6.9 198.85 -19.62 197.41 -29.86 188.79 C-36.33 182.26 -39.22 176.37 -39.25 167.16 C-39.26 165.93 -39.26 164.7 -39.27 163.43 C-39.27 162.07 -39.27 160.71 -39.27 159.35 C-39.28 157.91 -39.28 156.47 -39.29 155.04 C-39.3 151.14 -39.31 147.24 -39.31 143.34 C-39.31 140.9 -39.32 138.47 -39.32 136.03 C-39.33 128.4 -39.34 120.77 -39.35 113.13 C-39.35 104.33 -39.37 95.53 -39.4 86.73 C-39.42 79.92 -39.43 73.11 -39.43 66.31 C-39.43 62.24 -39.44 58.18 -39.46 54.12 C-39.47 50.29 -39.48 46.47 -39.47 42.64 C-39.47 41.24 -39.47 39.84 -39.48 38.44 C-39.55 27.54 -38.06 18.89 -31.11 10.17 C-22.47 1.8 -11.65 0.02 0 0 Z " fill="#000002" transform="translate(317.109375,108.83203125)"/>
<path d="M0 0 C2.18 -0 4.36 -0.02 6.54 -0.04 C31.19 -0.14 31.19 -0.14 39.94 8.13 C47.06 15.63 50.99 23.6 51.03 33.98 C51.04 35.17 51.04 36.35 51.05 37.57 C51.05 38.87 51.06 40.16 51.06 41.5 C51.06 42.88 51.07 44.26 51.08 45.65 C51.1 50.18 51.11 54.72 51.12 59.25 C51.12 60.82 51.13 62.38 51.13 63.95 C51.15 71.3 51.17 78.66 51.17 86.01 C51.18 94.49 51.21 102.96 51.25 111.43 C51.28 117.99 51.29 124.55 51.3 131.11 C51.3 135.02 51.31 138.93 51.33 142.85 C51.36 146.53 51.36 150.22 51.35 153.91 C51.35 155.89 51.37 157.87 51.39 159.85 C51.33 170.6 49.36 179.55 41.74 187.46 C34.67 194.02 34.67 194.02 29.44 194.5 C28.18 194.34 28.18 194.34 26.88 194.19 C26.55 195.18 26.22 196.17 25.88 197.19 C22.14 198.43 18.63 198.39 14.73 198.42 C13.92 198.43 13.12 198.44 12.28 198.45 C10.57 198.46 8.85 198.47 7.13 198.48 C5.4 198.49 3.67 198.51 1.93 198.54 C-12.37 198.79 -26.67 198.02 -37.69 187.8 C-47.2 178.08 -47.42 169.5 -47.39 156.41 C-47.4 155.04 -47.4 153.67 -47.41 152.3 C-47.42 148.6 -47.42 144.9 -47.42 141.2 C-47.42 138.09 -47.42 134.99 -47.43 131.89 C-47.44 124.57 -47.44 117.25 -47.43 109.92 C-47.43 102.4 -47.44 94.87 -47.46 87.34 C-47.48 80.86 -47.49 74.37 -47.48 67.88 C-47.48 64.02 -47.48 60.16 -47.5 56.29 C-47.51 52.65 -47.51 49.02 -47.49 45.38 C-47.49 43.43 -47.5 41.48 -47.51 39.53 C-47.45 28.77 -46.75 18.78 -38.87 10.86 C-38.29 10.31 -37.71 9.76 -37.12 9.19 C-36.34 8.26 -35.55 7.33 -34.74 6.37 C-25.46 -1.37 -11.41 -0 0 0 Z " fill="#000002" transform="translate(687.118896484375,108.814697265625)"/>
<path d="M0 0 C0 0.66 0 1.32 0 2 C0.53 2.12 1.07 2.25 1.62 2.38 C18.52 7.06 35.72 27.46 45 42 C45.88 45 45.88 45 46 47 C46.66 47 47.32 47 48 47 C48.95 48.9 49.9 50.81 50.85 52.71 C51.58 54.17 52.33 55.62 53.09 57.07 C53.6 58.05 53.6 58.05 54.12 59.06 C54.44 59.65 54.75 60.24 55.07 60.85 C60.5 73.41 63.46 89.74 58.81 102.75 C56.74 107.72 54.74 111.17 51 115 C49.89 116.29 48.79 117.58 47.69 118.88 C44.56 122.45 41.25 125.78 37.86 129.1 C36.16 130.83 34.64 132.61 33.12 134.5 C32.42 135.33 31.72 136.15 31 137 C30.34 137 29.68 137 29 137 C28.75 137.62 28.51 138.24 28.25 138.88 C27 141 27 141 24.94 142 C22.79 142.83 22.79 142.83 22.25 145.12 C22.17 145.74 22.09 146.36 22 147 C20.23 147.65 20.23 147.65 18 148 C6.94 142.44 -2.41 130.72 -11.09 121.98 C-12.88 120.19 -14.66 118.39 -16.45 116.6 C-20.24 112.8 -24.03 108.99 -27.81 105.19 C-32.22 100.76 -36.63 96.33 -41.04 91.9 C-42.8 90.14 -44.55 88.37 -46.3 86.61 C-47.38 85.53 -48.46 84.44 -49.54 83.36 C-50.02 82.87 -50.5 82.39 -51 81.89 C-53.15 79.74 -55.31 77.75 -57.68 75.85 C-60.56 73.55 -62.65 70.82 -65 68 C-65.83 67.34 -66.65 66.68 -67.5 66 C-70 64 -70 64 -72.44 61.06 C-75.06 57.93 -77.84 55.57 -81 53 C-82.69 51.35 -84.35 49.69 -86 48 C-86.85 47.17 -87.69 46.35 -88.56 45.5 C-95 38.9 -95 38.9 -95 35 C-93.61 34.05 -92.21 33.11 -90.77 32.22 C-88.14 30.4 -86.05 28.13 -83.83 25.84 C-80.71 22.71 -77.36 19.87 -74 17 C-72.98 16.12 -71.97 15.24 -70.95 14.36 C-50.1 -3.63 -26.73 -13.36 0 0 Z " fill="#000002" transform="translate(1138,643)"/>
<path d="M0 0 C64.68 0 129.36 0 196 0 C197.77 4.43 198.25 6.33 198.26 10.86 C198.27 12.01 198.27 13.17 198.28 14.36 C198.27 16.21 198.27 16.21 198.27 18.11 C198.27 19.38 198.27 20.66 198.27 21.97 C198.27 24.66 198.27 27.36 198.26 30.05 C198.25 33.5 198.26 36.95 198.27 40.41 C198.28 43.7 198.27 47 198.27 50.29 C198.27 51.54 198.27 52.78 198.28 54.06 C198.27 55.78 198.27 55.78 198.26 57.53 C198.26 58.54 198.26 59.55 198.25 60.59 C198 63 198 63 196 65 C193.43 65.2 190.98 65.27 188.41 65.25 C187.62 65.26 186.82 65.26 186.01 65.26 C183.34 65.27 180.67 65.27 178 65.26 C176.09 65.26 174.18 65.27 172.27 65.27 C167.08 65.28 161.88 65.27 156.69 65.27 C151.26 65.26 145.84 65.27 140.41 65.27 C131.3 65.28 122.19 65.27 113.07 65.26 C102.52 65.25 91.98 65.25 81.43 65.26 C72.38 65.27 63.34 65.27 54.3 65.27 C48.89 65.27 43.49 65.27 38.08 65.27 C33 65.28 27.91 65.27 22.83 65.26 C20.96 65.26 19.09 65.26 17.22 65.27 C14.68 65.27 12.14 65.26 9.59 65.25 C8.47 65.26 8.47 65.26 7.33 65.27 C2.23 65.23 2.23 65.23 0 63 C0 42.21 0 21.42 0 0 Z " fill="#010103" transform="translate(409,175)"/>
<path d="M0 0 C0.99 0 1.98 0 3 0 C3 138.27 3 276.54 3 419 C2.01 419 1.02 419 0 419 C0 280.73 0 142.46 0 0 Z " fill="#D5D5D5" transform="translate(935,227)"/>
<path d="M0 0 C0.66 0 1.32 0 2 0 C1.91 1.42 1.8 2.83 1.69 4.25 C1.63 5.04 1.57 5.83 1.51 6.64 C0.92 9.39 -0.19 10.88 -2 13 C-2.05 11.4 -2.09 9.79 -2.12 8.19 C-2.15 7.29 -2.17 6.4 -2.2 5.48 C-2 3 -2 3 0 0 Z " fill="#19191A" transform="translate(681,1105)"/>
</svg>
