<?xml version="1.0" encoding="UTF-8"?>
<!-- Generator: visioncortex VTracer 0.6.3 -->
<svg version="1.1" xmlns="http://www.w3.org/2000/svg" width="1280" height="1280">
<path d="M0 0 C422.4 0 844.8 0 1280 0 C1280 422.4 1280 844.8 1280 1280 C857.6 1280 435.2 1280 0 1280 C0 857.6 0 435.2 0 0 Z " fill="#FCFCFC" transform="translate(0,0)"/>
<path d="M0 0 C1.18 -0 2.35 -0 3.56 -0 C6.79 -0.01 10.02 -0.01 13.25 -0 C16.74 -0 20.24 -0 23.73 -0.01 C30.56 -0.01 37.39 -0.01 44.23 -0.01 C49.78 -0.01 55.33 -0.01 60.89 -0.01 C61.68 -0.01 62.47 -0.01 63.29 -0.01 C64.9 -0.01 66.51 -0.01 68.12 -0.01 C83.19 -0.01 98.26 -0.01 113.33 -0 C126.24 0 139.16 0 152.08 -0 C167.11 -0.01 182.13 -0.01 197.15 -0.01 C198.75 -0.01 200.36 -0.01 201.96 -0.01 C202.75 -0.01 203.54 -0.01 204.35 -0.01 C209.89 -0.01 215.44 -0.01 220.99 -0.01 C227.75 -0.01 234.51 -0.01 241.27 -0.01 C244.71 -0 248.16 -0 251.6 -0.01 C255.34 -0.01 259.08 -0 262.82 0 C263.91 -0 264.99 -0 266.1 -0.01 C282.69 0.04 282.69 0.04 287.72 4.13 C289.09 4.57 290.46 4.99 291.85 5.38 C300.12 7.99 306.58 13.27 311.72 20.13 C312.18 20.54 312.63 20.94 313.1 21.37 C324.21 33.44 326.48 50.15 326.08 65.82 C325.72 72.97 325.04 83.39 320.15 88.9 C319.68 89.31 319.21 89.71 318.72 90.13 C318.39 90.95 318.06 91.78 317.72 92.63 C316.68 95.22 315.65 96.19 313.72 98.13 C313.43 98.99 313.14 99.86 312.85 100.75 C312.48 101.54 312.1 102.32 311.72 103.13 C309.1 103.94 309.1 103.94 306.72 104.13 C308.03 106.98 309.45 109.09 311.6 111.38 C314.24 114.4 316.05 117.33 317.72 120.97 C318.43 122.5 319.2 124 320.01 125.47 C327.14 138.62 328.03 155.88 323.82 170.22 C320.45 179.12 316.02 186.55 309.13 193.13 C307.49 195.05 307.49 195.05 307.69 197.56 C309.04 200.91 311.17 202.58 313.72 205.13 C319.58 214.03 325.32 224.32 325.72 235.13 C325.79 236.44 325.85 237.76 325.92 239.11 C326.35 251.78 324.85 263.35 317.72 274.13 C316.86 275.47 316.86 275.47 315.98 276.83 C310.9 284.46 310.9 284.46 306.72 286.13 C306.38 289.16 306.38 289.16 308.35 290.81 C309.13 291.58 309.91 292.34 310.72 293.13 C323 307.1 326.7 322.97 325.87 341.12 C324.95 353.96 318.32 366.65 309.72 376.13 C308.73 376.62 308.73 376.62 307.72 377.13 C308.24 381.37 309.52 383.41 312.35 386.56 C324.33 401.04 326.97 416.81 325.72 435.13 C324.18 447.22 318.2 458.45 309.72 467.13 C308.73 467.62 308.73 467.62 307.72 468.13 C308.24 472.37 309.52 474.41 312.35 477.56 C324.85 492.68 326.95 509.07 325.72 528.13 C324.9 535.69 323.52 541.18 318.72 547.13 C318.4 548.13 318.09 549.13 317.76 550.16 C316.51 553.74 314.98 555.14 312.1 557.56 C311.19 558.33 310.29 559.1 309.36 559.89 C308.49 560.63 307.62 561.37 306.72 562.13 C306.07 562.76 305.41 563.4 304.74 564.05 C293.28 575.09 278.79 577.44 263.51 577.39 C262.32 577.39 261.13 577.4 259.9 577.4 C256.62 577.41 253.33 577.41 250.05 577.4 C246.5 577.4 242.95 577.41 239.4 577.42 C232.45 577.43 225.5 577.43 218.55 577.43 C212.9 577.43 207.25 577.43 201.6 577.43 C200.8 577.43 199.99 577.43 199.16 577.44 C197.53 577.44 195.89 577.44 194.25 577.44 C178.92 577.45 163.58 577.45 148.25 577.44 C134.24 577.44 120.23 577.45 106.22 577.47 C91.81 577.49 77.41 577.49 63 577.49 C54.92 577.49 46.84 577.49 38.76 577.51 C31.88 577.52 25.01 577.52 18.13 577.51 C14.62 577.5 11.12 577.5 7.61 577.51 C3.8 577.52 -0.01 577.51 -3.82 577.5 C-4.91 577.51 -6.01 577.52 -7.13 577.52 C-17.55 577.45 -27.1 575.4 -36.15 570.19 C-36.76 569.85 -37.38 569.52 -38 569.18 C-43.58 566.09 -48.86 563.03 -52.97 558.06 C-55.33 555.22 -55.33 555.22 -57.9 552.56 C-66.09 544.08 -67.43 526.67 -67.37 515.35 C-67.01 506.96 -65.9 498.25 -61.28 491.13 C-60.93 489.93 -60.58 488.73 -60.22 487.5 C-58.35 482.16 -54.32 478.51 -50.46 474.54 C-48.1 472.25 -48.1 472.25 -47.28 469.13 C-47.94 469.13 -48.6 469.13 -49.28 469.13 C-50.65 467.77 -50.65 467.77 -52.15 465.94 C-52.89 465.05 -52.89 465.05 -53.65 464.15 C-55.28 462.13 -55.28 462.13 -56.81 459.53 C-59.95 456.47 -61.59 456.56 -65.83 456.56 C-67.11 456.6 -67.11 456.6 -68.42 456.64 C-69.3 456.65 -70.18 456.65 -71.09 456.66 C-73.9 456.69 -76.72 456.75 -79.53 456.81 C-81.44 456.84 -83.35 456.86 -85.25 456.88 C-89.93 456.94 -94.6 457.02 -99.28 457.13 C-99.58 457.73 -99.88 458.34 -100.19 458.96 C-103.67 465.9 -103.67 465.9 -106.47 466.94 C-107.36 467.03 -107.36 467.03 -108.28 467.13 C-106.48 470.51 -104.36 473.2 -101.78 476 C-98.57 479.58 -96.97 482.65 -95.28 487.13 C-94.76 487.93 -94.25 488.74 -93.72 489.56 C-86.57 502.3 -88.29 521.2 -91.31 534.72 C-92.65 539.43 -94.51 543.12 -97.28 547.13 C-97.87 548.03 -98.46 548.94 -99.06 549.87 C-103.75 556.74 -109.14 563.42 -117.28 566.13 C-117.84 566.75 -118.39 567.38 -118.97 568.02 C-130.25 578.31 -152.84 575.84 -166.81 575.75 C-170.33 575.74 -173.85 575.75 -177.37 575.76 C-184.23 575.77 -191.1 575.76 -197.96 575.74 C-205.97 575.72 -213.98 575.72 -222 575.72 C-236.3 575.72 -250.6 575.7 -264.9 575.67 C-278.75 575.64 -292.59 575.62 -306.44 575.63 C-321.56 575.63 -336.69 575.63 -351.81 575.61 C-352.61 575.61 -353.41 575.61 -354.23 575.61 C-355.84 575.61 -357.45 575.61 -359.06 575.6 C-364.63 575.6 -370.2 575.6 -375.78 575.6 C-382.57 575.6 -389.37 575.59 -396.16 575.57 C-399.62 575.55 -403.08 575.55 -406.55 575.55 C-410.31 575.56 -414.07 575.54 -417.83 575.52 C-418.91 575.53 -419.99 575.53 -421.1 575.54 C-437.83 575.39 -450.24 570.18 -463.28 560.13 C-464.35 559.36 -465.42 558.6 -466.53 557.81 C-476.76 547.81 -482.24 532.91 -482.57 518.74 C-482.68 505.83 -481.11 494.34 -474.28 483.13 C-473.78 482.28 -473.29 481.44 -472.78 480.56 C-467.67 472.26 -467.67 472.26 -464.28 471.13 C-463.95 470.47 -463.62 469.81 -463.28 469.13 C-463.94 469.13 -464.6 469.13 -465.28 469.13 C-477.74 454.21 -483.79 437.78 -482.53 418.24 C-481.01 405.33 -474.79 392.83 -466.28 383.13 C-465.29 382.47 -464.3 381.81 -463.28 381.13 C-464.27 377.96 -465.22 376.19 -467.59 373.81 C-477.5 363.91 -482.48 348.85 -482.6 335.02 C-482.6 334.23 -482.59 333.44 -482.59 332.63 C-482.61 331.84 -482.62 331.05 -482.64 330.23 C-482.64 324.36 -481.45 319.56 -479.28 314.13 C-479.02 313.47 -478.76 312.82 -478.49 312.14 C-475.18 304.18 -471.67 297.09 -465.28 291.13 C-464.39 290.3 -464.39 290.3 -463.49 289.46 C-455.42 282.27 -446.67 277.88 -436.28 275.13 C-435.62 274.8 -434.96 274.47 -434.28 274.13 C-431.8 274.02 -429.34 273.97 -426.86 273.97 C-426.09 273.96 -425.32 273.96 -424.52 273.95 C-421.91 273.94 -419.31 273.93 -416.7 273.92 C-414.84 273.91 -412.98 273.9 -411.11 273.89 C-406.05 273.86 -400.98 273.84 -395.91 273.82 C-390.62 273.8 -385.33 273.77 -380.04 273.75 C-370.01 273.7 -359.98 273.65 -349.96 273.61 C-338.54 273.56 -327.13 273.51 -315.72 273.45 C-292.24 273.34 -268.76 273.23 -245.28 273.13 C-245.29 271.89 -245.3 270.65 -245.31 269.37 C-245.35 265.25 -244.76 261.43 -243.97 257.38 C-243.83 256.69 -243.7 256.01 -243.56 255.3 C-242.35 249.19 -240.89 243.15 -239.28 237.13 C-238.62 237.13 -237.96 237.13 -237.28 237.13 C-237.61 235.48 -237.94 233.83 -238.28 232.13 C-237.62 232.13 -236.96 232.13 -236.28 232.13 C-236.17 231.52 -236.06 230.92 -235.95 230.3 C-235.04 225.72 -234.17 222.83 -231.28 219.13 C-230.47 216.85 -229.78 214.57 -229.12 212.25 C-228.18 209.89 -227.07 208.88 -225.28 207.13 C-224.18 204.97 -224.18 204.97 -223.28 202.63 C-221.99 199.42 -220.77 197.5 -218.28 195.13 C-216.83 192.65 -216.83 192.65 -215.44 190.14 C-212.32 184.72 -208.75 180.28 -204.37 175.88 C-203.8 175.31 -203.23 174.73 -202.65 174.14 C-201.45 172.93 -200.25 171.73 -199.04 170.52 C-197.23 168.71 -195.44 166.88 -193.65 165.05 C-187.68 159.02 -181.92 153.73 -174.51 149.45 C-172.46 148.24 -170.8 146.96 -169.03 145.38 C-165.95 142.86 -162.95 141.62 -159.28 140.13 C-158.64 139.61 -158 139.1 -157.34 138.56 C-154.7 136.73 -152.22 136.32 -149.08 135.75 C-146.89 135.2 -146.89 135.2 -145.28 132.13 C-142.92 131.28 -142.92 131.28 -140.09 130.63 C-136.9 129.88 -134.12 129.06 -131.13 127.69 C-126.25 125.54 -121.11 124.61 -115.9 123.56 C-114.83 123.35 -113.76 123.13 -112.65 122.91 C-101.45 120.7 -90.6 119.02 -79.15 119.19 C-77.88 119.21 -76.62 119.22 -75.32 119.24 C-72.78 119.29 -70.25 119.36 -67.72 119.46 C-66.56 119.49 -65.39 119.52 -64.2 119.54 C-62.63 119.6 -62.63 119.6 -61.03 119.66 C-57.27 118.93 -56.38 117.24 -54.28 114.13 C-51.65 111.31 -51.65 111.31 -49.28 109.13 C-48.62 109.13 -47.96 109.13 -47.28 109.13 C-47.47 106.68 -47.47 106.68 -48.28 104.13 C-48.88 103.84 -49.48 103.55 -50.11 103.25 C-57.79 99.27 -62.44 87.05 -64.97 79.13 C-69.78 61.99 -67.26 44.64 -59.16 28.96 C-53.53 19.22 -45.46 10.99 -35.28 6.13 C-32.47 5.39 -30.2 5.18 -27.28 5.13 C-26.95 4.14 -26.62 3.15 -26.28 2.13 C-19.05 -1.49 -7.94 -0.02 0 0 Z " fill="#010103" transform="translate(507.2781219482422,595.8730163574219)"/>
<path d="M0 0 C1.18 -0 2.35 -0 3.56 -0.01 C6.81 -0.01 10.05 -0.01 13.29 -0.01 C16.8 -0.01 20.31 -0.02 23.81 -0.02 C30.67 -0.03 37.54 -0.03 44.4 -0.03 C49.98 -0.03 55.56 -0.04 61.14 -0.04 C76.97 -0.05 92.81 -0.05 108.64 -0.05 C109.49 -0.05 110.35 -0.05 111.22 -0.05 C112.08 -0.05 112.93 -0.05 113.81 -0.05 C127.65 -0.05 141.49 -0.06 155.32 -0.07 C169.54 -0.09 183.77 -0.1 197.99 -0.1 C205.97 -0.09 213.94 -0.1 221.92 -0.11 C228.72 -0.12 235.51 -0.12 242.3 -0.11 C245.77 -0.11 249.23 -0.11 252.69 -0.12 C256.45 -0.13 260.21 -0.12 263.98 -0.11 C265.06 -0.12 266.14 -0.12 267.26 -0.13 C283.74 -0.05 297.85 3.87 310.17 15.07 C323.65 28.92 328.55 45.16 328.48 64.09 C328.31 70.84 327.63 77.82 325.18 84.13 C323.1 85.27 323.1 85.27 321.18 86.13 C320.95 88.15 320.73 90.16 320.58 92.18 C319.93 95.35 317.77 96.39 315.18 98.13 C312.75 100.45 312.75 100.45 311.18 103.13 C311.48 107.53 313.33 110.03 315.99 113.45 C327.14 128.31 329.87 144.22 327.93 162.49 C326.2 174.5 326.2 174.5 322.18 178.13 C321.37 180 321.37 180 320.8 182.01 C319.09 186.88 316.39 189.88 311.87 192.45 C311.31 192.67 310.75 192.9 310.18 193.13 C311.44 197.57 313.06 200.6 315.93 204.2 C324.37 215.46 328.58 227.28 328.49 241.26 C328.49 242.18 328.48 243.09 328.48 244.04 C328.18 262.92 328.18 262.92 323.66 267.76 C323.17 268.21 322.68 268.67 322.18 269.13 C321.37 271 321.37 271 320.8 273.01 C319.09 277.88 316.39 280.88 311.87 283.45 C311.31 283.67 310.75 283.9 310.18 284.13 C311.44 288.57 313.06 291.6 315.93 295.2 C324.51 306.66 328.58 318.61 328.49 332.82 C328.49 333.69 328.48 334.55 328.48 335.44 C328.17 353.93 328.17 353.93 323.66 358.76 C323.17 359.22 322.68 359.67 322.18 360.13 C321.37 362 321.37 362 320.8 364.01 C319.39 368.05 317.42 370.28 314.18 373.13 C313.42 373.9 312.65 374.66 311.87 375.45 C311.31 376 310.75 376.56 310.18 377.13 C312.24 380.95 314.33 384.39 317.05 387.76 C325.1 398.25 328.57 410.24 328.49 423.26 C328.49 424.17 328.48 425.09 328.48 426.03 C328.36 433.45 328.06 441.21 325.18 448.13 C323.87 448.84 322.53 449.51 321.18 450.13 C320.95 452.15 320.73 454.16 320.57 456.18 C319.93 459.36 317.77 460.37 315.18 462.13 C313.41 464.06 311.81 466.08 310.18 468.13 C310.78 469.23 311.37 470.32 311.99 471.45 C312.33 472.06 312.66 472.68 313.01 473.31 C314.08 475.15 314.08 475.15 315.57 476.43 C325.74 487.19 328.8 502.68 328.41 516.9 C328.06 524.75 327.21 532.82 324.18 540.13 C323.19 540.46 322.2 540.79 321.18 541.13 C321.09 542.96 321.09 542.96 320.99 544.82 C320.42 549.36 318.74 551.22 315.18 554.13 C314.25 554.9 313.32 555.66 312.37 556.45 C311.28 557.28 311.28 557.28 310.18 558.13 C311.21 561.31 312.31 563.29 314.5 565.86 C326.64 580.14 329.45 596.95 328.18 615.13 C327.37 622.77 326.34 629.17 321.18 635.13 C320.85 636.02 320.52 636.91 320.18 637.82 C318.94 640.69 317.88 640.78 315.18 642.13 C314.46 643.78 313.8 645.45 313.18 647.13 C311.55 648.95 311.55 648.95 310.18 650.13 C311.04 651.74 311.04 651.74 311.93 653.38 C312.25 653.99 312.58 654.59 312.91 655.21 C314.13 657.23 314.13 657.23 316.06 658.85 C318.99 662 320.53 665.5 322.3 669.38 C322.65 670.11 323 670.84 323.35 671.58 C327.1 679.64 328.55 686.82 328.49 695.7 C328.49 696.56 328.48 697.43 328.48 698.32 C328.35 705.95 327.9 713.93 325.18 721.13 C323.08 722.31 323.08 722.31 321.18 723.13 C321.12 724.9 321.12 724.9 321.05 726.7 C320.72 731.08 318.91 732.77 315.68 735.63 C313.85 737.14 312.02 738.64 310.18 740.13 C308.65 741.57 307.13 743 305.62 744.45 C301.46 748.13 297.38 750.29 292.18 752.13 C291.39 752.42 290.6 752.71 289.79 753 C284.19 754.95 279 756.26 273.04 756.27 C272.02 756.27 271 756.27 269.95 756.28 C268.84 756.28 267.73 756.28 266.58 756.27 C265.39 756.28 264.2 756.28 262.98 756.28 C259.69 756.29 256.39 756.29 253.1 756.29 C249.55 756.3 246 756.3 242.44 756.31 C234.67 756.32 226.91 756.33 219.14 756.33 C214.28 756.34 209.43 756.34 204.57 756.35 C191.12 756.36 177.67 756.37 164.23 756.37 C163.36 756.37 162.5 756.37 161.62 756.37 C160.32 756.37 160.32 756.37 159 756.37 C157.26 756.37 155.51 756.37 153.76 756.37 C152.89 756.37 152.03 756.37 151.13 756.37 C137.1 756.38 123.06 756.4 109.02 756.42 C94.6 756.44 80.18 756.46 65.76 756.46 C57.66 756.46 49.57 756.46 41.48 756.48 C34.58 756.5 27.69 756.5 20.79 756.49 C17.28 756.49 13.77 756.49 10.25 756.5 C6.43 756.52 2.61 756.51 -1.21 756.5 C-2.3 756.51 -3.4 756.52 -4.52 756.53 C-15.22 756.46 -25.5 754.6 -34.82 749.2 C-35.44 748.86 -36.05 748.53 -36.68 748.18 C-42.09 745.18 -46.47 741.79 -50.45 737.07 C-52.83 734.25 -52.83 734.25 -55.46 731.65 C-57.89 728.95 -58.08 725.62 -58.82 722.13 C-59.48 722.13 -60.14 722.13 -60.82 722.13 C-66.11 705.89 -67.37 687.31 -60.6 671.24 C-57.31 664.85 -53.07 659.22 -48.68 653.57 C-46.82 651.29 -46.82 651.29 -45.82 649.13 C-46.48 649.13 -47.14 649.13 -47.82 649.13 C-52.82 643.66 -52.82 643.66 -52.82 641.13 C-53.44 640.91 -54.06 640.68 -54.7 640.45 C-57.48 638.73 -57.92 637.22 -58.82 634.13 C-58.82 633.14 -58.82 632.15 -58.82 631.13 C-59.48 631.13 -60.14 631.13 -60.82 631.13 C-62.76 625.18 -64.48 619.41 -64.82 613.13 C-64.89 611.98 -64.95 610.83 -65.02 609.64 C-65.6 593.95 -62.39 578.95 -51.78 566.79 C-50.55 565.48 -49.3 564.2 -48.01 562.95 C-46.53 561.11 -46.53 561.11 -47.13 558.41 C-47.36 557.66 -47.59 556.91 -47.82 556.13 C-48.81 555.8 -49.8 555.47 -50.82 555.13 C-55.78 550.78 -57.7 546.54 -58.82 540.13 C-59.48 540.13 -60.14 540.13 -60.82 540.13 C-62.76 534.18 -64.48 528.41 -64.82 522.13 C-64.89 520.99 -64.95 519.85 -65.02 518.68 C-65.46 503.67 -63.15 490.27 -53.82 478.13 C-52.83 476.81 -52.83 476.81 -51.81 475.47 C-50.18 473.33 -48.52 471.22 -46.82 469.13 C-48.27 465.74 -50.11 463.74 -52.82 461.26 C-56.15 458.03 -57.68 455.7 -58.82 451.13 C-59.3 450.57 -59.77 450 -60.26 449.41 C-66.79 439.88 -66.11 421.82 -64.13 410.96 C-61.73 399.63 -57.3 390.19 -49.24 381.79 C-47.59 380.08 -47.59 380.08 -46.82 377.13 C-47.15 376.14 -47.48 375.15 -47.82 374.13 C-48.81 373.8 -49.8 373.47 -50.82 373.13 C-55.23 369.07 -57.69 364.67 -59.82 359.13 C-60.81 357.65 -60.81 357.65 -61.82 356.13 C-66.6 338.02 -66.73 319.18 -58.07 302.2 C-54.97 296.94 -51.07 292.5 -46.82 288.13 C-48.68 283.01 -51.44 280.1 -55.63 276.63 C-57.33 274.49 -57.04 272.78 -56.82 270.13 C-57.48 270.13 -58.14 270.13 -58.82 270.13 C-66.2 260.05 -66.25 242.99 -64.51 231 C-62.24 218.42 -57.52 208.17 -48.26 199.2 C-46.54 197.18 -46.54 197.18 -46.99 194.43 C-48.07 191.45 -49.01 191.46 -51.82 190.13 C-55.74 186.03 -57.74 182.38 -59.82 177.13 C-60.48 176.14 -61.14 175.15 -61.82 174.13 C-65.91 160.89 -66.15 147.46 -63.07 134.01 C-62.84 132.98 -62.84 132.98 -62.6 131.93 C-61.37 127.13 -59.41 123.35 -56.82 119.13 C-56.35 118.27 -55.87 117.4 -55.38 116.51 C-53.52 113.67 -51.22 111.53 -48.82 109.13 C-47.77 107.5 -46.75 105.84 -45.82 104.13 C-46.48 104.13 -47.14 104.13 -47.82 104.13 C-47.82 103.14 -47.82 102.15 -47.82 101.13 C-48.38 100.93 -48.94 100.72 -49.51 100.51 C-55.19 97.13 -57.49 92.01 -59.82 86.13 C-60.48 85.14 -61.14 84.15 -61.82 83.13 C-66.42 66.68 -67.19 47.51 -58.82 32.13 C-58.36 31.29 -57.91 30.45 -57.43 29.58 C-57.01 28.81 -56.58 28.05 -56.13 27.26 C-55.7 26.48 -55.26 25.7 -54.81 24.89 C-54.48 24.31 -54.16 23.73 -53.82 23.13 C-53.16 23.13 -52.5 23.13 -51.82 23.13 C-51.58 22.4 -51.34 21.67 -51.09 20.91 C-46.75 11.42 -36.03 6.69 -26.82 3.13 C-18.14 -0.06 -9.12 -0.01 0 0 Z " fill="#010103" transform="translate(925.8216094970703,416.8662872314453)"/>
<path d="M0 0 C5.3 -0.1 10.59 -0.06 15.9 0.04 C17.15 0.06 18.41 0.08 19.71 0.09 C29.4 0.46 38.31 2.64 47.57 5.36 C49.16 5.83 50.76 6.28 52.36 6.71 C58.43 8.4 63.8 10.74 69.33 13.73 C70.16 14.17 70.98 14.61 71.83 15.06 C78.28 18.56 84.18 22.42 89.9 27.04 C90.46 27.49 91.02 27.94 91.61 28.4 C93.06 29.59 94.48 30.81 95.9 32.04 C96.52 32.56 97.14 33.08 97.79 33.62 C102.65 37.74 106.79 42.18 110.9 47.04 C111.48 47.69 112.07 48.34 112.68 49.01 C116.94 53.73 120.52 58.65 123.9 64.04 C124.4 64.85 124.91 65.65 125.43 66.48 C130.26 74.36 134.59 82.24 137.22 91.13 C137.91 93.33 137.91 93.33 139.9 96.04 C140.63 98.5 141.29 100.93 141.9 103.42 C142.06 104.06 142.23 104.7 142.4 105.36 C145.09 116.24 146.26 127.03 146.21 138.23 C146.2 139.4 146.2 140.58 146.2 141.78 C146.09 150.76 145.21 159.29 143.31 168.06 C142.89 170.09 142.52 172.13 142.17 174.18 C140.84 181.42 140.84 181.42 139.9 184.04 C138.58 184.74 137.25 185.41 135.9 186.04 C135.31 188.1 135.31 188.1 135.33 190.42 C135.07 194.33 134.5 196.04 131.9 199.04 C131.18 200.71 131.18 200.71 130.46 202.42 C128.92 205.99 127.09 208.85 124.9 212.04 C124.32 213.11 123.74 214.17 123.15 215.27 C120.81 219.39 117.9 222.82 114.77 226.35 C114.2 227.01 113.62 227.66 113.03 228.33 C103.26 239.35 92.97 250 79.9 257.04 C78.74 257.88 77.59 258.74 76.46 259.6 C72.84 262.28 69.12 263.54 64.9 265.04 C64.24 265.7 63.58 266.36 62.9 267.04 C60.64 267.62 58.38 267.99 56.09 268.38 C53.83 268.86 53.83 268.86 52.52 270.54 C50.07 272.81 47.66 272.73 44.4 273.1 C39.34 273.67 39.34 273.67 34.9 276.04 C32 276.52 29.18 276.89 26.27 277.17 C25.42 277.25 24.57 277.33 23.7 277.42 C11.87 278.5 0.33 278.33 -11.48 277.17 C-12.29 277.09 -13.11 277.01 -13.95 276.93 C-17.69 276.52 -19.93 276.16 -23.1 274.04 C-26.64 273.22 -30.19 272.58 -33.76 271.92 C-37.1 271.04 -37.1 271.04 -39.05 269.57 C-41.55 267.71 -44 267.28 -47.01 266.6 C-50.39 265.7 -53.31 264.11 -56.35 262.42 C-57 262.06 -57.64 261.71 -58.31 261.35 C-68.56 255.66 -77.68 249.2 -86.1 241.04 C-86.83 240.34 -87.56 239.65 -88.31 238.93 C-90.86 236.48 -93.39 234.01 -95.92 231.54 C-97.15 230.35 -97.15 230.35 -98.42 229.13 C-104.23 223.38 -108.35 217.72 -111.23 210.04 C-111.52 209.38 -111.81 208.72 -112.1 208.04 C-113.09 207.71 -114.08 207.38 -115.1 207.04 C-116.38 204.84 -117.45 202.73 -118.48 200.42 C-118.78 199.74 -119.09 199.07 -119.4 198.38 C-127.86 179.29 -131.88 160.57 -131.67 139.79 C-131.66 138.89 -131.66 137.99 -131.66 137.06 C-131.57 123.47 -130.59 110.97 -126.1 98.04 C-125.62 96.5 -125.13 94.95 -124.65 93.41 C-121.96 85.11 -118.59 77.54 -114.1 70.04 C-113.48 68.92 -112.86 67.8 -112.23 66.64 C-110.18 63.06 -107.83 59.8 -105.29 56.54 C-104.85 55.98 -104.42 55.41 -103.97 54.83 C-100.62 50.57 -97.07 46.73 -93.1 43.04 C-92.3 42.24 -91.5 41.43 -90.67 40.6 C-89.82 39.76 -88.98 38.91 -88.1 38.04 C-87.54 37.45 -86.98 36.85 -86.41 36.24 C-66.74 15.74 -34.12 1.25 -5.69 0.09 C-3.79 0.07 -1.9 0.04 0 0 Z " fill="#FCFCFC" transform="translate(422.1044921875,744.95849609375)"/>
<path d="M0 0 C0.85 0.01 1.7 0.02 2.58 0.02 C13.54 0.25 24.47 1.34 35.39 2.3 C47.04 3.33 58.7 4.19 70.38 5 C71.26 5.06 72.14 5.12 73.04 5.19 C83.35 5.91 93.66 6.56 103.98 7.02 C109.42 7.27 114.83 7.68 120.25 8.19 C120.93 8.24 121.61 8.3 122.31 8.36 C127.96 9 131.83 11.19 135.69 15.31 C139.07 21.18 137.87 28.44 137.62 34.94 C137.58 36.19 137.53 37.43 137.49 38.72 C137.13 47.11 136.42 55.41 135.44 63.75 C134.14 74.77 133.4 85.74 132.88 96.81 C132.27 109.3 131.61 121.79 130.68 134.26 C130.56 135.86 130.45 137.46 130.34 139.06 C129.18 156.55 129.18 156.55 124.88 162.38 C122.53 163.98 120.67 164.56 117.88 165.38 C116.88 165.71 115.89 166.03 114.88 166.38 C111.73 165.36 108.83 163.84 105.88 162.38 C105.01 161.96 104.14 161.55 103.25 161.12 C100.32 158.96 98.17 156.46 95.82 153.68 C93.75 151.23 91.6 148.87 89.44 146.5 C86.48 143.23 83.66 139.9 80.94 136.44 C77.28 131.79 73.34 127.47 69.34 123.12 C66.29 119.72 63.46 116.18 60.66 112.57 C58.85 110.34 57.01 108.3 54.88 106.38 C54.22 106.38 53.55 106.38 52.88 106.38 C51.78 107.5 50.69 108.63 49.61 109.76 C46.57 112.58 43.13 114.87 39.77 117.27 C36.24 119.83 32.87 122.55 29.49 125.29 C25.61 128.38 21.62 131.34 17.64 134.3 C15.77 135.7 13.94 137.15 12.14 138.64 C9.88 140.38 9.88 140.38 7.88 140.38 C7.88 141.03 7.88 141.69 7.88 142.38 C5.8 143.98 3.72 145.47 1.56 146.94 C-6.34 152.44 -13.75 158.42 -21 164.75 C-23.57 166.97 -26.2 168.64 -29.12 170.38 C-32.17 172.65 -35.14 175.02 -38.12 177.38 C-41.12 179.71 -44.12 182.05 -47.12 184.38 C-47.9 184.98 -47.9 184.98 -48.69 185.59 C-50.4 186.92 -52.1 188.24 -53.81 189.56 C-54.61 190.19 -54.61 190.19 -55.43 190.82 C-58.9 193.5 -62.47 195.96 -66.12 198.38 C-68.99 200.57 -71.67 202.91 -74.19 205.5 C-76.35 207.59 -78.54 208.85 -81.12 210.38 C-86.42 214.05 -91.22 218.16 -95.95 222.54 C-98.22 224.46 -100.56 225.87 -103.12 227.38 C-104.54 228.41 -105.94 229.48 -107.31 230.56 C-108.48 231.48 -108.48 231.48 -109.66 232.41 C-112.18 234.42 -114.68 236.43 -117.19 238.44 C-120.7 241.25 -124.25 243.99 -127.85 246.68 C-130.85 248.92 -133.83 251.17 -136.81 253.44 C-137.63 254.06 -137.63 254.06 -138.47 254.69 C-141.06 256.66 -143.39 258.65 -145.64 261 C-148.32 263.56 -150.8 264.78 -154.12 266.38 C-155.9 267.7 -157.62 269.07 -159.31 270.5 C-160.26 271.29 -161.2 272.08 -162.18 272.89 C-163.64 274.12 -163.64 274.12 -165.12 275.38 C-180.76 288.38 -180.76 288.38 -184.12 288.38 C-184.46 289.37 -184.78 290.36 -185.12 291.38 C-187.09 292.76 -189.1 294.09 -191.12 295.38 C-192.49 296.49 -192.49 296.49 -193.88 297.62 C-196.12 299.38 -196.12 299.38 -198.12 299.38 C-198.46 300.37 -198.78 301.36 -199.12 302.38 C-201.02 303.88 -201.02 303.88 -203.5 305.5 C-207.36 308.11 -210.99 310.83 -214.56 313.81 C-219.91 318.26 -225.48 322.32 -231.12 326.38 C-238.61 331.89 -245.94 337.61 -253.19 343.44 C-256.7 346.26 -260.25 349 -263.87 351.68 C-266.78 353.87 -269.67 356.09 -272.56 358.31 C-273.12 358.74 -273.68 359.17 -274.26 359.62 C-277.56 362.16 -280.85 364.73 -284.12 367.31 C-286.39 369.09 -288.51 370.6 -291 372.06 C-293.23 373.24 -293.23 373.24 -294.44 375.36 C-297.15 378.6 -300.11 378.79 -304.17 379.34 C-309.58 379.4 -312.94 377.73 -317.12 374.38 C-321.84 369.71 -325.98 364.54 -330.12 359.38 C-330.97 358.34 -331.82 357.3 -332.67 356.27 C-334.14 354.47 -335.61 352.67 -337.06 350.87 C-339.13 348.37 -341.26 345.96 -343.44 343.56 C-346.35 340.34 -348.73 337 -351.12 333.38 C-352.77 331.69 -354.44 330.02 -356.12 328.38 C-361.54 322.42 -366.7 316.22 -371.93 310.11 C-374.05 307.62 -376.18 305.15 -378.32 302.68 C-387.01 292.62 -387.01 292.62 -390.75 287.69 C-393.29 284.35 -396.02 281.27 -398.88 278.19 C-402.66 274.08 -406.16 269.86 -409.56 265.44 C-413.07 260.89 -416.69 256.56 -420.62 252.38 C-425.15 247.57 -429.24 242.53 -433.28 237.31 C-436.19 233.55 -439.19 229.92 -442.37 226.38 C-445.36 222.97 -448.17 219.42 -451.01 215.89 C-453.07 213.35 -453.07 213.35 -455.39 211.17 C-457.12 209.38 -457.12 209.38 -457.12 207.38 C-460.72 209.47 -464.09 211.73 -467.44 214.19 C-468.4 214.89 -469.35 215.59 -470.34 216.31 C-472.74 218.09 -475.12 219.88 -477.5 221.69 C-480.28 223.78 -483.11 225.63 -486.12 227.38 C-490.35 229.94 -490.35 229.94 -493.69 233.5 C-495.54 235.92 -497.3 236.3 -500.12 237.38 C-500.99 238.08 -501.86 238.78 -502.75 239.5 C-505.12 241.38 -505.12 241.38 -508.12 241.38 C-508.51 242.3 -508.51 242.3 -508.91 243.23 C-510.27 245.62 -511.2 246.31 -513.56 247.62 C-521.27 252.17 -528.37 257.69 -535.37 263.25 C-537.12 264.38 -537.12 264.38 -539.29 264.85 C-539.89 265.02 -540.5 265.2 -541.12 265.38 C-541.45 266.37 -541.79 267.36 -542.12 268.38 C-544.12 269.39 -546.12 270.39 -548.12 271.38 C-549.53 272.52 -550.94 273.67 -552.3 274.86 C-555.51 277.53 -558.94 279.89 -562.32 282.32 C-564.86 284.18 -567.34 286.1 -569.81 288.06 C-573.14 290.68 -576.55 292.94 -580.16 295.13 C-584.37 297.8 -588.26 300.93 -592.2 303.98 C-596.05 306.94 -599.77 309.2 -604.12 311.38 C-604.79 312.37 -605.44 313.36 -606.12 314.38 C-607.78 315.4 -609.44 316.4 -611.12 317.38 C-612.8 318.7 -614.47 320.03 -616.12 321.38 C-619.17 323.64 -622.21 325.85 -625.5 327.75 C-627.86 329.21 -629.9 330.76 -632.06 332.5 C-636.58 336.08 -641.34 339.16 -646.25 342.18 C-649.63 344.29 -652.39 346.49 -655.12 349.38 C-656.78 350.39 -658.45 351.39 -660.12 352.38 C-662.83 354.32 -665.48 356.35 -668.12 358.38 C-675.48 364 -675.48 364 -678.88 366 C-681.22 367.3 -681.22 367.3 -683.06 369.38 C-685.52 371.76 -688.06 372.87 -691.12 374.38 C-692.8 375.69 -694.47 377.03 -696.12 378.38 C-697.68 379.47 -699.24 380.56 -700.81 381.62 C-701.58 382.15 -702.35 382.67 -703.14 383.2 C-705.12 384.38 -705.12 384.38 -707.12 384.38 C-707.35 384.99 -707.58 385.61 -707.81 386.25 C-709.53 389.03 -711.12 389.19 -714.12 390.38 C-715.81 392.02 -717.48 393.69 -719.12 395.38 C-720.78 396.4 -722.44 397.4 -724.12 398.38 C-727.53 400.83 -730.85 403.39 -734.17 405.96 C-737.34 408.38 -740.45 410.63 -743.94 412.56 C-747.04 414.14 -747.04 414.14 -748.81 416.06 C-750.12 417.38 -750.12 417.38 -752.19 417.81 C-752.83 418 -753.47 418.18 -754.12 418.38 C-754.41 418.99 -754.7 419.61 -755 420.25 C-756.63 423.34 -758.99 423.81 -762.12 425.38 C-764.63 427.27 -767.04 429.26 -769.47 431.25 C-774.51 435.28 -779.86 438.88 -785.25 442.44 C-787.52 443.97 -789.7 445.54 -791.88 447.19 C-802.78 455.43 -802.78 455.43 -808.58 458.8 C-811.49 460.6 -814.01 462.67 -816.62 464.88 C-820 467.72 -823.31 470.15 -827.12 472.38 C-828.47 473.36 -829.81 474.35 -831.12 475.38 C-833.34 477.07 -835.47 478.58 -837.88 480 C-840.22 481.3 -840.22 481.3 -842.06 483.38 C-844.51 485.75 -847.07 486.88 -850.12 488.38 C-851.14 489.36 -852.15 490.35 -853.12 491.38 C-854.12 491.84 -854.12 491.84 -855.12 492.31 C-857.27 493.26 -857.27 493.26 -858.56 495.38 C-860.5 497.85 -862.22 498.29 -865.12 499.38 C-866.15 500.35 -867.15 501.35 -868.12 502.38 C-869.79 503.38 -871.46 504.38 -873.12 505.38 C-873.62 505.87 -874.12 506.37 -874.62 506.88 C-876.6 508.85 -878.68 510.02 -881.12 511.38 C-882.01 511.93 -882.01 511.93 -882.91 512.49 C-887.41 515.09 -890.78 515.93 -895.95 515.05 C-900.38 513.67 -903.75 511.17 -906.56 507.5 C-908.18 501.4 -907.07 496.73 -904.12 491.38 C-902.06 490.19 -902.06 490.19 -900.12 489.38 C-899.88 488.77 -899.63 488.17 -899.37 487.54 C-897.61 484.47 -895.34 483.54 -892.25 481.88 C-888.25 479.71 -885.25 477.67 -882.12 474.38 C-881.26 473.86 -880.39 473.34 -879.5 472.81 C-876.87 471.45 -876.87 471.45 -875.12 468.38 C-873.15 467.32 -871.15 466.33 -869.12 465.38 C-865.12 463.13 -861.54 460.46 -857.94 457.62 C-853.95 454.51 -849.93 451.49 -845.75 448.62 C-842.8 446.6 -840.05 444.51 -837.38 442.12 C-834.5 439.58 -831.57 438.1 -828.12 436.38 C-825.8 434.67 -823.55 432.88 -821.3 431.08 C-818.66 429.01 -815.93 427.2 -813.12 425.38 C-812.44 424.86 -811.76 424.34 -811.06 423.81 C-808.84 422.16 -806.51 420.79 -804.12 419.38 C-799.93 416.84 -799.93 416.84 -796.62 413.31 C-794.57 410.65 -792.14 409.88 -789.12 408.38 C-786.89 406.74 -784.73 405.01 -782.57 403.29 C-772.73 395.59 -772.73 395.59 -767.96 393.36 C-765.79 392.38 -765.79 392.38 -764.12 389.38 C-762.12 388.38 -760.12 387.38 -758.12 386.38 C-757.47 385.38 -756.81 384.39 -756.12 383.38 C-755.28 382.96 -754.43 382.55 -753.56 382.12 C-749.72 380.17 -746.66 377.76 -743.3 375.08 C-741.13 373.38 -741.13 373.38 -737.81 371.19 C-735.1 369.5 -735.1 369.5 -733.12 367.31 C-730.69 364.95 -728.16 363.89 -725.12 362.38 C-723.16 361.01 -721.28 359.56 -719.38 358.11 C-716.89 356.19 -714.36 354.34 -711.81 352.5 C-708.98 350.45 -706.15 348.39 -703.33 346.33 C-698.89 343.09 -694.44 339.89 -689.94 336.75 C-686.87 334.62 -683.85 332.44 -680.88 330.19 C-677.7 327.79 -674.45 325.57 -671.12 323.38 C-668.61 321.61 -666.1 319.84 -663.59 318.06 C-661.92 316.92 -660.21 315.84 -658.47 314.82 C-655.95 313.39 -655.95 313.39 -653.62 310.88 C-651.21 308.46 -649.05 307.1 -646.12 305.38 C-644.57 304.27 -643.03 303.14 -641.5 302 C-637.81 299.28 -634.09 296.66 -630.29 294.1 C-629.44 293.53 -628.59 292.96 -627.71 292.36 C-626.01 291.22 -624.3 290.08 -622.59 288.94 C-621.8 288.41 -621 287.88 -620.19 287.33 C-619.12 286.62 -619.12 286.62 -618.04 285.9 C-615.98 284.26 -614.69 282.47 -613.12 280.38 C-611.15 279.33 -609.15 278.33 -607.12 277.38 C-605.31 276.15 -603.51 274.87 -601.75 273.56 C-600.8 272.86 -599.85 272.16 -598.88 271.44 C-596.49 269.65 -594.12 267.86 -591.75 266.06 C-588.97 263.96 -586.13 262.15 -583.12 260.38 C-581.89 259.56 -580.66 258.72 -579.44 257.88 C-578.86 257.47 -578.27 257.07 -577.68 256.66 C-575.85 255.27 -575.85 255.27 -574.12 252.38 C-572.14 251.34 -570.14 250.35 -568.12 249.38 C-566.39 248.19 -564.68 246.95 -563 245.69 C-558.06 242.02 -553 238.59 -547.85 235.23 C-545.08 233.4 -545.08 233.4 -542.46 231.2 C-540.12 229.38 -540.12 229.38 -537.12 228.38 C-536.53 227.59 -535.93 226.81 -535.31 226 C-533.12 223.38 -533.12 223.38 -530.38 222 C-526.85 220.24 -523.99 218.12 -520.88 215.69 C-515.35 211.38 -515.35 211.38 -513.12 211.38 C-512.87 210.76 -512.61 210.15 -512.35 209.52 C-510.96 207.09 -509.92 206.36 -507.5 205 C-504.69 203.34 -502.07 201.63 -499.5 199.62 C-495.89 196.85 -492.1 194.42 -488.25 192 C-483.95 189.29 -479.87 186.49 -475.94 183.25 C-460.95 171.06 -460.95 171.06 -451.57 171.68 C-448.07 172.67 -446.54 174.4 -444.54 177.36 C-442.68 180.01 -440.44 182.11 -438.12 184.38 C-436.38 186.22 -434.65 188.07 -432.94 189.94 C-432.08 190.87 -431.22 191.8 -430.33 192.75 C-428.46 194.97 -427.32 196.78 -426.12 199.38 C-425.02 200.52 -423.9 201.65 -422.75 202.76 C-420.6 204.9 -418.55 207.13 -416.5 209.38 C-415.74 210.2 -414.99 211.02 -414.21 211.88 C-412.21 214.27 -410.7 216.69 -409.12 219.38 C-407.48 221.06 -405.81 222.73 -404.12 224.38 C-400.24 228.62 -396.57 233.04 -392.94 237.5 C-386.02 246 -378.92 254.36 -371.5 262.44 C-368.19 266.08 -365.15 269.88 -362.19 273.81 C-357.52 280.01 -352.4 285.69 -347.12 291.38 C-342.79 296.23 -338.58 301.14 -334.64 306.33 C-330.69 311.51 -326.5 316.35 -322.04 321.11 C-320.3 323.17 -319.28 324.98 -318.12 327.38 C-317.4 327.95 -316.68 328.53 -315.94 329.12 C-312.74 331.68 -310.29 334.54 -307.68 337.67 C-306.22 339.48 -306.22 339.48 -304.12 340.38 C-304.12 341.04 -304.12 341.69 -304.12 342.38 C-300.28 341.85 -298.76 341.13 -296.12 338.38 C-294.85 337.33 -293.56 336.32 -292.25 335.31 C-291.46 334.7 -290.66 334.09 -289.85 333.46 C-288.95 332.77 -288.05 332.08 -287.12 331.38 C-284.98 329.73 -282.83 328.08 -280.69 326.44 C-279.85 325.8 -279.85 325.8 -279 325.14 C-275.65 322.57 -272.34 319.96 -269.06 317.31 C-264.54 313.68 -259.92 310.2 -255.27 306.73 C-248.09 301.35 -240.98 295.89 -234 290.25 C-229.63 286.73 -225.12 283.45 -220.57 280.17 C-217.65 278.03 -214.91 275.7 -212.12 273.38 C-210.21 271.93 -208.3 270.49 -206.38 269.06 C-202.57 266.23 -198.81 263.36 -195.12 260.38 C-190.51 256.65 -185.77 253.09 -181.02 249.54 C-175.7 245.56 -170.44 241.55 -165.44 237.19 C-162.49 234.63 -159.38 232.53 -156.12 230.38 C-153.09 228.08 -150.11 225.73 -147.12 223.38 C-140.38 218.11 -133.6 212.89 -126.81 207.67 C-124.62 205.99 -122.43 204.3 -120.24 202.62 C-119.17 201.79 -118.09 200.96 -117.02 200.14 C-114.22 197.99 -111.42 195.83 -108.63 193.66 C-108.05 193.22 -107.48 192.77 -106.88 192.31 C-105.29 191.08 -103.69 189.84 -102.1 188.6 C-100.06 187.07 -97.97 185.61 -95.84 184.21 C-93.1 182.59 -93.1 182.59 -91.69 180.38 C-89.85 178.03 -87.8 177.02 -85.21 175.63 C-80.86 173.01 -77.05 169.59 -73.12 166.38 C-68.82 162.97 -64.47 159.64 -60.1 156.33 C-53.16 151.07 -46.37 145.83 -39.96 139.93 C-37.82 138.11 -35.5 136.8 -33.01 135.5 C-27.61 132.29 -22.74 127.99 -18.31 123.56 C-16.12 121.37 -16.12 121.37 -13.98 120.11 C-10.19 117.81 -6.72 115.17 -3.19 112.5 C-2.5 111.98 -1.81 111.47 -1.1 110.93 C5.94 105.73 5.94 105.73 12.38 99.81 C14.63 97.65 17.27 96.1 19.88 94.38 C21.23 93.36 22.59 92.34 23.94 91.31 C26.82 89.13 29.72 87.15 32.88 85.38 C31.69 75.59 21.01 67.31 14.47 60.36 C11.18 56.85 8.18 53.28 5.38 49.35 C3.42 46.78 1.25 44.44 -0.94 42.06 C-18.56 22.92 -18.56 22.92 -19.32 13.72 C-18.98 9.54 -17.05 6.32 -14.12 3.38 C-9.46 0.41 -5.4 -0.1 0 0 Z " fill="#000002" transform="translate(1040.125,105.625)"/>
<path d="M0 0 C1 -0.01 2.01 -0.02 3.04 -0.02 C4.15 -0.02 5.26 -0.02 6.41 -0.02 C7.58 -0.02 8.76 -0.03 9.97 -0.04 C13.24 -0.05 16.51 -0.06 19.78 -0.06 C23.3 -0.06 26.82 -0.08 30.34 -0.09 C38.05 -0.12 45.76 -0.13 53.47 -0.14 C58.28 -0.14 63.1 -0.15 67.91 -0.16 C81.24 -0.18 94.58 -0.21 107.91 -0.21 C108.76 -0.21 109.62 -0.21 110.5 -0.21 C111.78 -0.21 111.78 -0.21 113.09 -0.21 C114.82 -0.22 116.56 -0.22 118.29 -0.22 C119.58 -0.22 119.58 -0.22 120.9 -0.22 C134.82 -0.23 148.75 -0.26 162.67 -0.31 C176.97 -0.36 191.27 -0.38 205.57 -0.38 C213.59 -0.38 221.62 -0.4 229.65 -0.43 C236.49 -0.46 243.33 -0.47 250.16 -0.46 C253.65 -0.45 257.14 -0.45 260.63 -0.48 C264.41 -0.5 268.2 -0.49 271.99 -0.47 C273.08 -0.49 274.17 -0.5 275.3 -0.52 C284.5 -0.4 291.45 2.73 298.21 8.97 C306.16 19.25 308.36 26.1 307.27 39.26 C305.84 47.39 301.68 52.79 295.08 57.58 C294.16 58.13 293.23 58.69 292.27 59.26 C291.28 59.92 290.29 60.58 289.27 61.26 C282.53 63.53 275.66 63.55 268.62 63.52 C266.9 63.52 266.9 63.52 265.15 63.53 C261.33 63.53 257.51 63.53 253.69 63.52 C250.94 63.52 248.2 63.53 245.45 63.53 C238.78 63.54 232.11 63.54 225.43 63.53 C220.01 63.53 214.58 63.53 209.16 63.53 C208 63.53 208 63.53 206.81 63.53 C205.24 63.53 203.67 63.53 202.1 63.53 C187.38 63.54 172.66 63.53 157.94 63.52 C145.32 63.51 132.7 63.51 120.08 63.52 C105.42 63.53 90.75 63.54 76.08 63.53 C74.52 63.53 72.95 63.53 71.39 63.53 C70.23 63.53 70.23 63.53 69.05 63.53 C63.64 63.53 58.22 63.53 52.8 63.54 C46.2 63.54 39.59 63.54 32.99 63.53 C29.62 63.52 26.26 63.52 22.89 63.53 C19.23 63.53 15.58 63.53 11.92 63.52 C10.87 63.52 9.81 63.53 8.72 63.53 C0.42 63.49 -7.21 63.01 -14.04 57.89 C-15.24 57.01 -15.24 57.01 -16.47 56.11 C-23.82 50.09 -26.67 44.02 -27.79 34.58 C-28.17 25.81 -26.05 17.88 -20.89 10.71 C-16.65 6.13 -12.64 4.1 -6.73 2.26 C-4.23 -0.24 -3.45 0.01 0 0 Z " fill="#FBFBFB" transform="translate(917.7287893295288,626.7371444702148)"/>
<path d="M0 0 C1.32 0 1.32 0 2.66 0 C3.68 0 4.69 -0 5.73 -0 C6.85 0 7.98 0 9.13 0.01 C10.32 0.01 11.5 0.01 12.72 0.01 C16.02 0.01 19.32 0.01 22.62 0.02 C26.17 0.03 29.73 0.03 33.28 0.03 C41.87 0.03 50.46 0.05 59.06 0.06 C61.48 0.07 63.91 0.07 66.33 0.08 C81.39 0.1 96.45 0.13 111.51 0.17 C115 0.18 118.49 0.19 121.98 0.2 C123.29 0.2 123.29 0.2 124.61 0.21 C138.66 0.24 152.71 0.26 166.76 0.27 C181.18 0.27 195.6 0.3 210.02 0.34 C218.12 0.37 226.21 0.38 234.31 0.38 C241.21 0.38 248.11 0.39 255.01 0.42 C258.53 0.44 262.04 0.45 265.56 0.44 C269.38 0.42 273.2 0.45 277.02 0.48 C278.12 0.47 279.23 0.46 280.37 0.45 C287.28 0.54 291.62 1.77 297.02 6.12 C297.81 6.76 298.6 7.39 299.41 8.05 C304.09 12.65 306.76 16.98 309.02 23.12 C309.35 23.78 309.68 24.44 310.02 25.12 C310.73 35.44 310.52 44.16 303.83 52.37 C297.13 59.43 290.07 62.63 280.38 63.31 C277.4 63.38 274.43 63.39 271.45 63.38 C270.31 63.38 269.18 63.38 268.01 63.39 C264.22 63.39 260.43 63.39 256.64 63.38 C253.91 63.38 251.19 63.39 248.46 63.39 C241.84 63.4 235.22 63.4 228.6 63.39 C223.22 63.39 217.83 63.39 212.45 63.39 C211.68 63.39 210.91 63.39 210.12 63.39 C208.56 63.39 207 63.39 205.44 63.39 C190.84 63.4 176.23 63.39 161.62 63.38 C149.1 63.37 136.58 63.38 124.05 63.38 C109.5 63.39 94.94 63.4 80.39 63.39 C78.83 63.39 77.28 63.39 75.72 63.39 C74.58 63.39 74.58 63.39 73.41 63.39 C68.03 63.39 62.66 63.39 57.29 63.4 C50.73 63.4 44.18 63.4 37.62 63.39 C34.28 63.38 30.94 63.38 27.6 63.39 C23.97 63.39 20.34 63.39 16.72 63.38 C15.67 63.38 14.62 63.39 13.54 63.39 C3.16 63.34 -5.22 61.81 -13.98 56.12 C-14.91 55.53 -15.84 54.93 -16.79 54.31 C-23.16 47.94 -24.4 39.37 -25.36 30.75 C-24.41 21.62 -21.5 13.63 -14.32 7.76 C-10.74 5.09 -7.02 3.05 -2.98 1.12 C-1.98 0.12 -1.98 0.12 0 0 Z " fill="#FBFBFB" transform="translate(914.9808936715126,444.8764601945877)"/>
<path d="M0 0 C1.76 -0.01 1.76 -0.01 3.56 -0.02 C6.79 -0.03 10.01 -0.03 13.24 -0.01 C16.74 -0.01 20.23 -0.02 23.72 -0.03 C30.55 -0.05 37.39 -0.04 44.22 -0.03 C49.77 -0.02 55.33 -0.02 60.88 -0.03 C62.07 -0.03 62.07 -0.03 63.28 -0.03 C64.89 -0.03 66.5 -0.03 68.11 -0.03 C83.18 -0.04 98.25 -0.03 113.32 -0.01 C126.24 0.01 139.16 0 152.08 -0.01 C167.1 -0.03 182.12 -0.04 197.14 -0.03 C198.75 -0.03 200.35 -0.03 201.95 -0.03 C202.74 -0.03 203.53 -0.03 204.34 -0.03 C209.89 -0.02 215.43 -0.03 220.98 -0.04 C227.74 -0.05 234.5 -0.05 241.26 -0.02 C244.71 -0.01 248.15 -0.01 251.6 -0.02 C255.34 -0.03 259.08 -0.02 262.82 0 C263.9 -0.01 264.98 -0.02 266.1 -0.03 C273.12 0.05 278.54 1.44 284.85 4.51 C284.85 5.17 284.85 5.83 284.85 6.51 C285.84 6.84 286.83 7.17 287.85 7.51 C294.86 13.47 297.24 20.35 298.13 29.3 C298.46 38.62 296.36 46.59 290.47 53.89 C288.22 56.14 285.76 57.28 282.85 58.51 C282.17 59.31 282.17 59.31 281.47 60.13 C276.68 64.19 266.2 62.65 260.24 62.64 C259.09 62.64 257.94 62.65 256.75 62.65 C252.9 62.65 249.05 62.65 245.2 62.65 C242.43 62.66 239.67 62.66 236.9 62.66 C230.18 62.67 223.45 62.67 216.73 62.67 C211.26 62.68 205.79 62.68 200.32 62.68 C184.81 62.69 169.3 62.69 153.79 62.69 C152.95 62.69 152.12 62.69 151.26 62.69 C150.42 62.69 149.58 62.69 148.72 62.69 C135.16 62.69 121.6 62.7 108.04 62.72 C94.11 62.73 80.17 62.74 66.24 62.74 C58.42 62.74 50.6 62.74 42.78 62.75 C36.13 62.76 29.47 62.76 22.81 62.75 C19.42 62.75 16.03 62.75 12.63 62.76 C8.95 62.77 5.27 62.76 1.58 62.76 C0.52 62.76 -0.55 62.77 -1.65 62.77 C-11.12 62.73 -18.3 62.02 -25.53 55.63 C-27.02 54.34 -27.02 54.34 -28.55 53.02 C-34.7 47.09 -37.24 40.73 -37.59 32.2 C-37.19 21.54 -33.72 14.2 -26.27 6.66 C-18.14 1.04 -9.68 -0.08 0 0 Z " fill="#FBFBFB" transform="translate(506.15113830566406,1081.4920654296875)"/>
<path d="M0 0 C1.14 -0 2.28 -0.01 3.46 -0.01 C7.28 -0.03 11.1 -0.03 14.92 -0.04 C17.66 -0.05 20.4 -0.06 23.14 -0.06 C31.36 -0.09 39.57 -0.1 47.79 -0.12 C50.11 -0.12 52.44 -0.12 54.76 -0.13 C69.2 -0.15 83.64 -0.17 98.08 -0.19 C101.43 -0.19 104.77 -0.19 108.11 -0.2 C108.94 -0.2 109.77 -0.2 110.62 -0.2 C124.07 -0.21 137.52 -0.24 150.97 -0.29 C164.79 -0.33 178.61 -0.35 192.44 -0.36 C200.19 -0.36 207.94 -0.37 215.7 -0.41 C222.3 -0.43 228.91 -0.44 235.51 -0.43 C238.88 -0.43 242.24 -0.43 245.61 -0.46 C249.27 -0.48 252.92 -0.47 256.58 -0.45 C257.63 -0.47 258.68 -0.48 259.76 -0.5 C268.61 -0.4 276.56 2.01 283.61 7.48 C288.31 13.04 291.46 18.18 293.61 25.15 C293.94 26.14 294.27 27.13 294.61 28.15 C294.44 28.79 294.28 29.43 294.11 30.09 C293.43 32.12 293.43 32.12 294.18 33.94 C295.06 38.5 292.45 43.05 290.61 47.15 C288.61 50.09 288.61 50.09 286.61 52.15 C286.01 52.81 285.41 53.47 284.8 54.15 C283.02 55.78 281.25 57.35 279.36 58.84 C278.84 59.26 278.32 59.67 277.78 60.1 C271.38 63.2 262.94 62.3 256 62.29 C254.85 62.29 253.7 62.29 252.51 62.29 C248.66 62.3 244.81 62.3 240.96 62.3 C238.19 62.3 235.43 62.31 232.66 62.31 C225.94 62.32 219.21 62.32 212.49 62.32 C207.02 62.32 201.55 62.32 196.09 62.33 C180.57 62.34 165.06 62.34 149.55 62.34 C148.71 62.34 147.88 62.34 147.02 62.34 C146.18 62.34 145.34 62.34 144.48 62.34 C130.92 62.34 117.36 62.35 103.8 62.36 C89.87 62.38 75.93 62.38 62 62.38 C54.18 62.38 46.36 62.39 38.54 62.4 C31.89 62.41 25.23 62.41 18.57 62.4 C15.18 62.4 11.79 62.4 8.39 62.41 C4.71 62.41 1.03 62.41 -2.66 62.4 C-3.72 62.41 -4.79 62.41 -5.89 62.42 C-17.94 62.36 -25.26 59.74 -34.7 52.34 C-40.71 44.55 -41.77 35.83 -41.39 26.15 C-39.95 17.01 -35.83 10.64 -28.39 5.15 C-19.31 0.17 -10.11 0 0 0 Z " fill="#FBFBFB" transform="translate(931.3909149169922,808.8460998535156)"/>
<path d="M0 0 C1.01 -0.01 2.02 -0.01 3.05 -0.02 C4.17 -0.01 5.28 -0.01 6.43 -0.01 C7.61 -0.01 8.79 -0.01 10 -0.02 C13.28 -0.03 16.57 -0.03 19.85 -0.02 C23.38 -0.02 26.92 -0.03 30.45 -0.04 C37.38 -0.05 44.31 -0.05 51.24 -0.05 C56.87 -0.05 62.5 -0.05 68.13 -0.05 C68.93 -0.05 69.73 -0.05 70.56 -0.05 C72.18 -0.06 73.81 -0.06 75.43 -0.06 C90.69 -0.07 105.96 -0.07 121.22 -0.06 C135.18 -0.05 149.15 -0.07 163.12 -0.09 C177.45 -0.1 191.78 -0.11 206.11 -0.11 C214.17 -0.11 222.22 -0.11 230.27 -0.12 C237.12 -0.14 243.97 -0.14 250.83 -0.13 C254.33 -0.12 257.83 -0.12 261.32 -0.13 C265.11 -0.14 268.9 -0.13 272.7 -0.12 C274.36 -0.13 274.36 -0.13 276.05 -0.14 C285.04 -0.08 285.04 -0.08 289.25 3.25 C290.08 3.53 290.9 3.81 291.75 4.09 C295.11 5.65 297.1 8.05 299.38 10.88 C300.04 11.68 300.04 11.68 300.71 12.51 C306.26 19.49 308.96 27.33 308.25 36.25 C306.59 42.28 304.67 47.71 300.25 52.25 C299.47 53.1 298.69 53.95 297.88 54.82 C289.64 62.47 282.45 62.4 271.74 62.39 C270.57 62.4 269.4 62.4 268.2 62.4 C264.97 62.41 261.74 62.41 258.51 62.41 C255.02 62.42 251.54 62.42 248.05 62.43 C240.43 62.44 232.81 62.45 225.19 62.45 C220.43 62.46 215.67 62.46 210.91 62.47 C197.73 62.48 184.54 62.49 171.36 62.49 C170.52 62.49 169.67 62.49 168.8 62.49 C167.96 62.49 167.11 62.49 166.24 62.49 C164.53 62.49 162.82 62.49 161.1 62.49 C159.83 62.5 159.83 62.5 158.53 62.5 C144.76 62.5 130.99 62.52 117.23 62.54 C103.09 62.56 88.94 62.58 74.8 62.58 C66.86 62.58 58.93 62.58 50.99 62.6 C44.23 62.62 37.47 62.62 30.71 62.61 C27.27 62.61 23.82 62.61 20.38 62.63 C16.64 62.64 12.89 62.63 9.15 62.62 C7.53 62.63 7.53 62.63 5.87 62.65 C-5.64 62.57 -13.47 59.36 -21.75 51.25 C-27.12 44.11 -27.99 35.98 -27.75 27.25 C-25.84 17.61 -21.82 10.04 -13.75 4.25 C-11.34 3.19 -9.35 2.73 -6.75 2.25 C-4.24 -0.25 -3.46 0 0 0 Z " fill="#FBFBFB" transform="translate(917.7455492019653,717.7455244064331)"/>
<path d="M0 0 C1.18 -0.01 2.36 -0.01 3.58 -0.02 C6.83 -0.04 10.09 -0.03 13.34 -0.02 C16.86 -0.02 20.38 -0.03 23.9 -0.04 C30.79 -0.07 37.68 -0.07 44.56 -0.06 C50.16 -0.05 55.76 -0.05 61.36 -0.06 C62.16 -0.06 62.95 -0.06 63.78 -0.06 C65.4 -0.06 67.02 -0.07 68.64 -0.07 C83.83 -0.08 99.02 -0.08 114.21 -0.06 C128.1 -0.04 141.98 -0.06 155.87 -0.09 C170.14 -0.12 184.42 -0.13 198.69 -0.12 C200.3 -0.12 201.92 -0.12 203.53 -0.12 C204.33 -0.12 205.12 -0.11 205.94 -0.11 C211.53 -0.11 217.12 -0.12 222.71 -0.14 C229.53 -0.15 236.34 -0.15 243.16 -0.13 C246.63 -0.12 250.11 -0.12 253.58 -0.14 C257.35 -0.15 261.13 -0.14 264.9 -0.11 C265.99 -0.13 267.08 -0.14 268.2 -0.15 C276.77 -0.05 283.13 2.35 289.78 7.77 C295.96 14.75 301.03 22.51 301.58 32.08 C300.93 41.43 296.9 49.26 290.01 55.51 C287.14 57.39 287.14 57.39 285.01 58.51 C284.68 59.17 284.35 59.83 284.01 60.51 C277.02 62.84 269.6 62.81 262.31 62.82 C260.61 62.83 260.61 62.83 258.86 62.85 C255.07 62.87 251.28 62.88 247.49 62.9 C244.76 62.91 242.03 62.93 239.31 62.95 C232.68 62.99 226.05 63.02 219.42 63.04 C214.03 63.06 208.64 63.09 203.25 63.11 C187.94 63.19 172.63 63.25 157.32 63.3 C156.5 63.31 155.68 63.31 154.83 63.31 C154 63.32 153.18 63.32 152.33 63.32 C138.96 63.37 125.59 63.44 112.23 63.51 C98.48 63.59 84.73 63.66 70.98 63.7 C63.28 63.73 55.57 63.76 47.86 63.81 C41.29 63.86 34.73 63.88 28.17 63.89 C24.82 63.9 21.48 63.91 18.14 63.94 C-15.34 64.21 -15.34 64.21 -26.92 53.75 C-33.56 46.57 -34.68 39.63 -34.5 30.13 C-34.01 19.91 -30.92 13.79 -23.69 6.52 C-16.16 0.93 -9.22 -0.07 0 0 Z " fill="#FBFBFB" transform="translate(924.9865570068359,1081.485336303711)"/>
<path d="M0 0 C1 -0.01 2.01 -0.02 3.04 -0.02 C4.15 -0.02 5.26 -0.02 6.41 -0.02 C7.58 -0.02 8.76 -0.03 9.97 -0.04 C13.24 -0.05 16.51 -0.06 19.78 -0.06 C23.3 -0.06 26.82 -0.08 30.34 -0.09 C38.05 -0.12 45.76 -0.13 53.47 -0.14 C58.28 -0.14 63.1 -0.15 67.91 -0.16 C81.24 -0.18 94.58 -0.21 107.91 -0.21 C108.76 -0.21 109.62 -0.21 110.5 -0.21 C111.78 -0.21 111.78 -0.21 113.09 -0.21 C114.82 -0.22 116.56 -0.22 118.29 -0.22 C119.58 -0.22 119.58 -0.22 120.9 -0.22 C134.82 -0.23 148.75 -0.26 162.67 -0.31 C176.97 -0.36 191.27 -0.38 205.57 -0.38 C213.59 -0.38 221.62 -0.4 229.65 -0.43 C236.49 -0.46 243.33 -0.47 250.16 -0.46 C253.65 -0.45 257.14 -0.45 260.63 -0.48 C264.41 -0.5 268.2 -0.49 271.99 -0.47 C273.08 -0.49 274.17 -0.5 275.3 -0.52 C284.5 -0.4 291.45 2.73 298.21 8.97 C304.74 17.41 308.98 25.34 308.27 36.26 C306.07 46.26 306.07 46.26 302.27 49.26 C301.61 49.26 300.95 49.26 300.27 49.26 C300.11 49.96 299.94 50.67 299.77 51.39 C297.13 56.45 292.65 59.39 287.35 61.33 C282.18 62.74 276.96 62.54 271.63 62.52 C270.46 62.53 269.3 62.53 268.09 62.54 C264.87 62.54 261.64 62.54 258.41 62.54 C254.93 62.54 251.44 62.55 247.95 62.55 C241.13 62.57 234.3 62.57 227.48 62.57 C221.93 62.56 216.38 62.57 210.83 62.57 C209.65 62.57 209.65 62.57 208.44 62.57 C206.83 62.57 205.23 62.57 203.62 62.57 C188.57 62.59 173.52 62.58 158.47 62.58 C144.71 62.57 130.95 62.58 117.19 62.6 C103.05 62.62 88.91 62.63 74.78 62.63 C66.84 62.62 58.91 62.63 50.97 62.64 C44.22 62.65 37.47 62.65 30.71 62.64 C27.27 62.64 23.82 62.64 20.38 62.65 C16.64 62.66 12.9 62.65 9.16 62.64 C7.54 62.65 7.54 62.65 5.89 62.66 C-5.68 62.58 -13.39 59.34 -21.73 51.26 C-26.84 45.3 -27.29 37.33 -28.1 29.83 C-27.11 20.41 -24.14 13.46 -17.12 7.04 C-13.77 4.55 -10.71 3.45 -6.73 2.26 C-4.23 -0.24 -3.45 0.01 0 0 Z " fill="#FBFBFB" transform="translate(917.7287893295288,899.7371444702148)"/>
<path d="M0 0 C1.02 -0.01 2.04 -0.01 3.09 -0.02 C4.21 -0.02 5.32 -0.02 6.47 -0.02 C7.66 -0.03 8.85 -0.03 10.08 -0.04 C13.38 -0.05 16.67 -0.06 19.97 -0.06 C22.8 -0.07 25.63 -0.08 28.46 -0.09 C37.78 -0.12 47.11 -0.15 56.43 -0.16 C58.86 -0.17 61.28 -0.17 63.71 -0.18 C78.79 -0.21 93.88 -0.24 108.96 -0.25 C112.45 -0.26 115.94 -0.26 119.44 -0.27 C120.74 -0.27 120.74 -0.27 122.07 -0.27 C136.12 -0.29 150.18 -0.33 164.24 -0.38 C178.68 -0.43 193.12 -0.46 207.56 -0.47 C215.66 -0.47 223.77 -0.48 231.87 -0.53 C238.77 -0.56 245.67 -0.57 252.58 -0.56 C256.1 -0.55 259.61 -0.56 263.13 -0.59 C266.96 -0.62 270.78 -0.61 274.6 -0.59 C275.7 -0.61 276.81 -0.62 277.94 -0.64 C285.44 -0.55 291.08 1.18 296.85 6.14 C297.56 7.45 298.23 8.78 298.85 10.14 C299.68 10.86 300.5 11.58 301.35 12.33 C306.72 18.37 306.14 26.43 305.85 34.14 C306.84 34.47 307.83 34.8 308.85 35.14 C307.37 35.63 307.37 35.63 305.85 36.14 C305.85 36.99 305.85 36.99 305.84 37.86 C305.51 44.52 303.44 47.5 298.85 52.14 C298.38 52.86 297.9 53.58 297.41 54.33 C292.41 60.13 285.42 61.12 278.15 61.69 C266.83 62.44 255.48 62.29 244.14 62.29 C241.55 62.29 238.96 62.29 236.37 62.3 C230.09 62.3 223.81 62.31 217.53 62.31 C212.42 62.31 207.31 62.31 202.2 62.31 C187.69 62.32 173.17 62.33 158.65 62.33 C157.87 62.33 157.09 62.33 156.29 62.33 C155.51 62.33 154.73 62.33 153.92 62.32 C141.25 62.32 128.59 62.33 115.92 62.35 C102.88 62.36 89.84 62.37 76.8 62.37 C69.49 62.37 62.18 62.37 54.88 62.38 C48 62.39 41.13 62.39 34.26 62.38 C31.75 62.38 29.23 62.39 26.72 62.39 C-8.44 62.47 -8.44 62.47 -21.06 51.48 C-25.35 47.03 -26.71 42.04 -28.15 36.14 C-28.64 34.65 -28.64 34.65 -29.15 33.14 C-29.1 31.2 -29.1 31.2 -28.84 29.14 C-28.76 28.46 -28.68 27.78 -28.6 27.08 C-28.15 25.14 -28.15 25.14 -26.15 22.14 C-25.81 20.65 -25.52 19.15 -25.27 17.64 C-24.4 13.37 -24.4 13.37 -22.15 11.33 C-21.49 10.94 -20.83 10.54 -20.15 10.14 C-19.85 9.51 -19.56 8.88 -19.26 8.23 C-17.94 5.75 -16.72 4.9 -14.34 3.45 C-13.34 2.83 -13.34 2.83 -12.32 2.19 C-8.35 0.27 -4.36 0.01 0 0 Z " fill="#FBFBFB" transform="translate(497.1475782394409,625.8601922988892)"/>
<path d="M0 0 C1.28 -0.01 1.28 -0.01 2.59 -0.01 C3.52 -0.01 4.46 -0 5.43 0 C6.43 -0 7.42 -0 8.45 -0.01 C11.81 -0.01 15.16 -0 18.52 0.01 C20.92 0 23.32 0 25.72 0 C31.59 -0 37.46 0 43.32 0.01 C50.19 0.02 57.05 0.02 63.91 0.02 C76.2 0.02 88.49 0.03 100.78 0.04 C112.63 0.06 124.47 0.06 136.32 0.06 C137.04 0.06 137.77 0.06 138.51 0.06 C139.24 0.06 139.96 0.06 140.71 0.06 C154.26 0.06 167.82 0.07 181.37 0.08 C185.45 0.08 189.53 0.08 193.61 0.08 C209.97 0.08 226.33 0.12 242.69 0.23 C245.75 0.25 248.8 0.26 251.86 0.27 C256.38 0.3 260.9 0.34 265.42 0.41 C267 0.44 268.59 0.45 270.18 0.45 C280.56 0.49 288.71 1.61 296.64 8.79 C302.73 16.58 307.35 23.13 306.77 33.31 C305.52 42.81 303.16 49.76 295.83 56.25 C287.11 62.46 278.71 62.4 268.35 62.38 C266.63 62.39 266.63 62.39 264.87 62.39 C261.69 62.39 258.51 62.4 255.33 62.39 C251.89 62.39 248.46 62.4 245.02 62.4 C238.3 62.41 231.57 62.42 224.85 62.42 C219.38 62.42 213.91 62.42 208.44 62.42 C192.93 62.43 177.42 62.44 161.9 62.43 C161.07 62.43 160.23 62.43 159.37 62.43 C158.12 62.43 158.12 62.43 156.83 62.43 C143.28 62.43 129.72 62.44 116.16 62.46 C102.22 62.47 88.29 62.48 74.36 62.48 C66.54 62.48 58.72 62.48 50.9 62.49 C44.24 62.5 37.59 62.5 30.93 62.5 C27.54 62.49 24.14 62.49 20.75 62.5 C17.06 62.51 13.38 62.5 9.69 62.5 C8.1 62.5 8.1 62.5 6.47 62.51 C-5.67 62.46 -13.98 60.55 -23.17 52.25 C-28.32 46.59 -29.1 38.2 -29.2 30.83 C-28.57 22.16 -25.15 14.29 -19.24 7.94 C-16.23 5.49 -13.06 4.25 -9.4 3.04 C-0.8 -0 -0.8 -0 0 0 Z " fill="#FBFBFB" transform="translate(919.1673402786255,535.7511110305786)"/>
<path d="M0 0 C1.56 -0.01 1.56 -0.01 3.15 -0.02 C4.3 -0.02 5.44 -0.02 6.62 -0.02 C7.84 -0.02 9.05 -0.03 10.3 -0.03 C13.68 -0.04 17.06 -0.05 20.44 -0.05 C24.08 -0.06 27.72 -0.07 31.36 -0.08 C40.15 -0.11 48.94 -0.12 57.74 -0.13 C60.22 -0.14 62.7 -0.14 65.19 -0.14 C80.61 -0.17 96.02 -0.19 111.44 -0.2 C115.01 -0.21 118.59 -0.21 122.16 -0.21 C123.49 -0.21 123.49 -0.21 124.85 -0.22 C139.23 -0.23 153.61 -0.26 168 -0.3 C182.76 -0.35 197.52 -0.37 212.29 -0.37 C220.58 -0.38 228.87 -0.39 237.16 -0.42 C244.22 -0.45 251.28 -0.46 258.34 -0.45 C261.94 -0.44 265.54 -0.45 269.14 -0.47 C273.05 -0.5 276.96 -0.49 280.86 -0.47 C282 -0.48 283.14 -0.5 284.31 -0.51 C291.25 -0.44 294.81 0.45 300 5.14 C302.36 7.57 302.36 7.57 304.31 10.01 C305.29 11.21 305.29 11.21 306.3 12.44 C311.55 20.77 311.06 32.22 309.6 41.7 C307.53 48.34 302.33 54.25 296.36 57.63 C288.96 60.81 282.78 61.85 274.76 61.77 C273.01 61.78 273.01 61.78 271.21 61.79 C268 61.8 264.79 61.79 261.57 61.78 C258.09 61.76 254.61 61.78 251.13 61.79 C244.33 61.81 237.52 61.8 230.72 61.78 C225.19 61.77 219.65 61.76 214.12 61.77 C213.33 61.77 212.54 61.77 211.73 61.77 C210.13 61.77 208.52 61.77 206.92 61.77 C192.76 61.78 178.61 61.76 164.45 61.73 C150.73 61.71 137.01 61.7 123.28 61.71 C108.32 61.73 93.36 61.73 78.39 61.72 C76.8 61.71 75.2 61.71 73.6 61.71 C72.82 61.71 72.03 61.71 71.22 61.71 C65.7 61.7 60.18 61.71 54.65 61.71 C47.92 61.72 41.19 61.71 34.45 61.69 C31.02 61.68 27.59 61.67 24.16 61.68 C20.43 61.69 16.7 61.67 12.98 61.65 C11.9 61.66 10.82 61.67 9.72 61.68 C-0.25 61.57 -9.21 58.58 -16.59 51.64 C-20.71 47.28 -22.54 42.91 -24 37.14 C-24.23 36.29 -24.46 35.45 -24.69 34.57 C-25.15 31.03 -25.18 27.72 -25 24.14 C-24.34 23.48 -23.68 22.82 -23 22.14 C-22.51 20.1 -22.51 20.1 -22.19 17.82 C-21.27 13.26 -19.64 11.15 -16 8.14 C-15.49 7.58 -14.97 7.02 -14.44 6.45 C-12.77 4.93 -11.01 4.14 -9 3.14 C-8.67 2.48 -8.34 1.82 -8 1.14 C-5.04 0.15 -3.1 0.01 0 0 Z " fill="#FCFCFC" transform="translate(78.00356674194336,1080.862985610962)"/>
<path d="M0 0 C1 -0.01 2.01 -0.01 3.04 -0.02 C4.71 -0.02 4.71 -0.02 6.42 -0.02 C7.59 -0.02 8.76 -0.03 9.97 -0.03 C13.25 -0.04 16.52 -0.05 19.79 -0.05 C23.32 -0.06 26.84 -0.07 30.37 -0.08 C38.89 -0.11 47.42 -0.12 55.94 -0.13 C58.35 -0.14 60.75 -0.14 63.16 -0.14 C78.11 -0.17 93.05 -0.19 108 -0.2 C111.46 -0.21 114.93 -0.21 118.39 -0.21 C119.25 -0.21 120.11 -0.21 121 -0.22 C134.94 -0.23 148.88 -0.26 162.82 -0.3 C177.12 -0.35 191.43 -0.37 205.74 -0.37 C213.77 -0.38 221.81 -0.39 229.84 -0.42 C236.69 -0.45 243.53 -0.46 250.38 -0.45 C253.87 -0.44 257.36 -0.45 260.85 -0.47 C264.64 -0.5 268.43 -0.49 272.22 -0.47 C273.32 -0.48 274.41 -0.5 275.54 -0.51 C284.15 -0.42 290.55 1.95 297.2 7.46 C304.82 16.16 308.12 23.32 307.72 35.01 C307.18 40.22 306.47 45.37 302.33 48.89 C301.69 49.3 301.05 49.71 300.39 50.14 C300.11 50.92 299.83 51.7 299.54 52.51 C297.44 57.31 293.07 59.19 288.39 61.14 C284.26 61.93 280.27 61.94 276.07 61.88 C274.27 61.89 274.27 61.89 272.43 61.9 C269.11 61.91 265.79 61.9 262.48 61.88 C258.89 61.86 255.31 61.87 251.72 61.88 C244.7 61.9 237.69 61.88 230.68 61.85 C222.5 61.82 214.33 61.82 206.16 61.82 C191.58 61.83 176.99 61.8 162.41 61.75 C148.27 61.71 134.12 61.69 119.98 61.69 C118.67 61.69 118.67 61.69 117.34 61.69 C116.03 61.69 116.03 61.69 114.7 61.69 C98.59 61.7 82.47 61.68 66.36 61.65 C60.66 61.64 54.97 61.64 49.27 61.64 C42.33 61.64 35.4 61.62 28.46 61.59 C24.92 61.58 21.38 61.57 17.84 61.58 C14 61.58 10.16 61.56 6.33 61.54 C5.21 61.54 4.09 61.55 2.94 61.55 C-7.38 61.46 -14.02 58.19 -21.61 51.14 C-26.73 45.15 -27.16 37.24 -27.98 29.7 C-26.98 20.16 -23.96 13.26 -16.61 7.14 C-16.13 6.61 -15.65 6.09 -15.15 5.55 C-13.35 3.9 -11.8 3.29 -9.48 2.51 C-2.13 0.01 -2.13 0.01 0 0 Z " fill="#FBFBFB" transform="translate(917.6085348129272,990.8629856109619)"/>
<path d="M0 0 C2.92 -0.31 5.63 -0.41 8.56 -0.39 C9.45 -0.4 10.35 -0.41 11.27 -0.41 C14.3 -0.43 17.32 -0.42 20.34 -0.42 C22.5 -0.43 24.66 -0.44 26.82 -0.45 C32.7 -0.47 38.58 -0.47 44.47 -0.47 C49.38 -0.47 54.29 -0.48 59.2 -0.49 C70.79 -0.5 82.38 -0.51 93.97 -0.5 C105.92 -0.49 117.87 -0.52 129.82 -0.55 C140.07 -0.59 150.33 -0.6 160.59 -0.59 C166.72 -0.59 172.84 -0.6 178.97 -0.62 C184.74 -0.64 190.51 -0.64 196.28 -0.62 C198.39 -0.62 200.5 -0.62 202.62 -0.64 C225.64 -0.78 225.64 -0.78 234.14 6.95 C241.99 15.11 244.35 23.61 244.2 34.68 C243.7 42.83 240.86 47.78 235.52 53.86 C228.59 59.74 222.43 61.75 213.42 61.8 C212.42 61.83 211.42 61.85 210.39 61.88 C207.26 61.94 204.13 61.98 201 62 C199.08 62.03 197.17 62.05 195.25 62.08 C189.28 62.14 183.3 62.14 177.32 62.13 C175.06 62.13 172.79 62.13 170.52 62.13 C164.44 62.14 158.35 62.14 152.27 62.13 C145.84 62.13 139.42 62.13 132.99 62.14 C121.51 62.14 110.04 62.13 98.56 62.13 C88.22 62.12 77.89 62.13 67.55 62.13 C55.47 62.14 43.38 62.14 31.3 62.13 C24.93 62.13 18.57 62.13 12.2 62.14 C-3.2 62.14 -18.6 62.12 -34 62 C-35.33 61.99 -35.33 61.99 -36.69 61.98 C-41.4 61.94 -46.11 61.88 -50.82 61.78 C-52.77 61.74 -54.71 61.72 -56.66 61.7 C-64.18 61.49 -69.87 60.64 -75.71 55.49 C-77 54 -77 54 -77 52 C-76.29 51.83 -75.57 51.66 -74.84 51.48 C-68.29 49.85 -68.29 49.85 -62.25 46.94 C-59 45 -59 45 -55.19 43.94 C-51.73 43.29 -51.73 43.29 -50 40 C-48.12 39.41 -48.12 39.41 -46 39.06 C-43.86 38.64 -43.86 38.64 -42 38 C-40.83 36.08 -40.83 36.08 -40 34 C-38.01 32.98 -36.01 31.99 -34 31 C-31.69 29.32 -29.47 27.55 -27.24 25.77 C-25.28 24.22 -23.3 22.79 -21.25 21.38 C-16.88 18.28 -13.43 14.53 -10 10.44 C-7.58 7.56 -4.97 5.31 -2 3 C-1.34 2.01 -0.68 1.02 0 0 Z " fill="#FBFBFB" transform="translate(559,990)"/>
<path d="M0 0 C1.13 -0 2.27 -0.01 3.44 -0.01 C7.21 -0.02 10.99 -0.01 14.76 0 C17.48 0 20.2 -0 22.92 -0.01 C29.52 -0.02 36.11 -0.01 42.71 0 C50.4 0.01 58.09 0.01 65.78 0.01 C79.51 0.01 93.23 0.02 106.95 0.04 C120.26 0.06 133.56 0.06 146.87 0.06 C161.37 0.05 175.88 0.05 190.39 0.06 C191.94 0.07 193.48 0.07 195.03 0.07 C196.17 0.07 196.17 0.07 197.34 0.07 C202.69 0.07 208.05 0.07 213.41 0.07 C219.93 0.07 226.46 0.07 232.99 0.09 C236.32 0.1 239.65 0.1 242.98 0.1 C246.59 0.09 250.2 0.1 253.81 0.11 C254.86 0.11 255.91 0.11 256.98 0.1 C264.32 0.15 271.24 0.63 277.53 4.81 C278.16 5.22 278.8 5.63 279.45 6.06 C281.23 7.39 282.76 8.7 284.22 10.37 C284.22 11.03 284.22 11.69 284.22 12.37 C285.21 12.7 286.2 13.03 287.22 13.37 C288.35 15.05 288.35 15.05 289.34 17.12 C289.84 18.14 289.84 18.14 290.35 19.17 C293.59 27.4 293.3 37.69 290.44 45.99 C288.01 50.71 284.45 54.24 280.22 57.37 C279.37 58.01 279.37 58.01 278.5 58.65 C269.47 64.23 259.09 63.07 248.87 63.02 C246.7 63.03 244.53 63.04 242.36 63.05 C236.49 63.07 230.61 63.06 224.74 63.05 C218.59 63.03 212.44 63.04 206.28 63.05 C195.96 63.06 185.64 63.05 175.31 63.03 C163.38 63 151.44 63.01 139.5 63.04 C129.24 63.06 118.99 63.06 108.74 63.05 C102.61 63.04 96.49 63.04 90.37 63.06 C84.61 63.07 78.86 63.06 73.11 63.03 C71 63.02 68.89 63.03 66.78 63.04 C63.9 63.05 61.02 63.03 58.14 63.01 C57.3 63.02 56.46 63.03 55.6 63.04 C51.27 62.97 49.68 62.74 46.16 59.96 C44.22 57.37 44.22 57.37 44.22 55.37 C43.66 55.15 43.1 54.92 42.53 54.69 C38.53 52.42 35.68 49.76 34.22 45.37 C33.23 45.04 32.24 44.71 31.22 44.37 C31.22 43.71 31.22 43.05 31.22 42.37 C30.63 42.11 30.04 41.85 29.44 41.57 C27.14 40.33 25.55 38.98 23.65 37.19 C19.62 33.55 15.27 30.75 10.63 27.95 C8.22 26.37 8.22 26.37 6.78 24.86 C4.48 22.67 1.85 21.66 -1.03 20.37 C-2.19 19.85 -3.35 19.33 -4.54 18.8 C-7.01 17.71 -9.48 16.66 -11.97 15.62 C-14.78 14.37 -14.78 14.37 -16.78 12.37 C-18.27 11.82 -19.77 11.33 -21.28 10.87 C-24.25 9.99 -25.56 9.6 -27.78 7.37 C-20.49 0.08 -9.71 -0.07 0 0 Z " fill="#FBFBFB" transform="translate(510.7849578857422,715.6257781982422)"/>
<path d="M0 0 C0.89 -0.01 1.77 -0.02 2.68 -0.03 C5.64 -0.07 8.61 -0.1 11.57 -0.13 C13.69 -0.15 15.82 -0.18 17.95 -0.2 C37.34 -0.42 56.74 -0.54 76.13 -0.64 C89.17 -0.7 102.2 -0.8 115.23 -0.97 C126.61 -1.11 137.99 -1.2 149.37 -1.23 C155.39 -1.25 161.41 -1.29 167.43 -1.4 C173.09 -1.49 178.76 -1.52 184.43 -1.49 C186.5 -1.5 188.57 -1.52 190.64 -1.58 C207.05 -2 207.05 -2 213.39 3.54 C216.48 6.65 219.18 9.99 221.79 13.52 C226.21 19.27 232.52 23.35 238.45 27.39 C241.28 29.35 244.03 31.41 246.78 33.47 C250.79 36.41 254.49 38.42 259.1 40.22 C259.43 40.88 259.76 41.54 260.1 42.22 C262.05 43.09 264.03 43.86 266.03 44.6 C267.2 45.03 268.37 45.47 269.57 45.91 C270.74 46.34 271.9 46.78 273.1 47.22 C275.04 47.99 276.97 48.75 278.91 49.53 C279.72 49.86 280.53 50.19 281.37 50.52 C281.94 50.75 282.51 50.98 283.1 51.22 C283.1 51.88 283.1 52.54 283.1 53.22 C284.09 53.55 285.08 53.88 286.1 54.22 C283.39 58.03 281.54 59.81 277.1 61.22 C274.62 61.48 274.62 61.48 271.97 61.49 C270.45 61.5 270.45 61.5 268.9 61.52 C267.23 61.52 267.23 61.52 265.54 61.52 C264.35 61.52 263.17 61.53 261.95 61.54 C258.67 61.56 255.39 61.57 252.1 61.57 C248.56 61.58 245.02 61.6 241.48 61.62 C232.93 61.65 224.38 61.67 215.83 61.69 C211.8 61.7 207.77 61.71 203.74 61.72 C190.34 61.76 176.94 61.79 163.53 61.8 C160.06 61.8 156.58 61.81 153.1 61.81 C152.24 61.81 151.38 61.81 150.49 61.81 C136.5 61.83 122.51 61.88 108.52 61.95 C94.15 62.01 79.78 62.05 65.4 62.06 C57.34 62.06 49.28 62.08 41.21 62.13 C34.34 62.17 27.47 62.19 20.6 62.17 C17.1 62.16 13.6 62.16 10.1 62.2 C-16.96 62.45 -16.96 62.45 -26.9 53.22 C-27.58 52.6 -28.25 51.99 -28.95 51.35 C-32.96 47.38 -34.52 42.6 -35.9 37.22 C-36.09 36.54 -36.27 35.87 -36.46 35.17 C-37.4 31.02 -37.56 27.44 -35.53 23.66 C-34.99 22.85 -34.46 22.05 -33.9 21.22 C-33.64 20.29 -33.37 19.36 -33.09 18.41 C-30.09 10.35 -25.18 6.3 -17.68 2.35 C-11.95 0.02 -6.1 0.05 0 0 Z " fill="#FCFCFC" transform="translate(89.9034423828125,989.77880859375)"/>
<path d="M0 0 C4.35 2.93 6.36 7.13 8 12 C8.28 14.1 8.49 16.2 8.62 18.31 C8.74 19.92 8.74 19.92 8.85 21.55 C8.9 22.36 8.95 23.17 9 24 C9.61 24.21 10.21 24.42 10.84 24.63 C19.84 27.94 27.54 32.84 34 40 C34.53 40.53 35.06 41.05 35.61 41.59 C46.61 53.06 51.4 68.32 51.2 83.96 C50.83 87.74 49.29 90.08 46.67 92.71 C42.91 95.61 40.31 96.18 35.62 95.94 C30.81 95.23 27.31 93.62 24 90 C21.51 85.96 20.73 83.16 21.81 78.5 C22.2 77.67 22.6 76.85 23 76 C22.34 76 21.68 76 21 76 C19 73 19 73 18.44 69.88 C16.65 63.22 10.38 58.46 4.75 55 C-1.79 53.26 -9.53 51.55 -16 54.25 C-16.99 54.83 -17.98 55.4 -19 56 C-19.82 56.41 -20.65 56.83 -21.5 57.25 C-27.9 61.73 -33.34 67.15 -35 75 C-35.28 84.12 -34.96 92.23 -28.88 99.56 C-25.2 102.67 -21.27 104.82 -17 107 C-16.42 107.34 -15.83 107.68 -15.23 108.03 C-12.49 109.22 -10.11 109.45 -7.13 109.71 C-6 109.82 -4.87 109.93 -3.7 110.05 C-1.32 110.26 1.05 110.48 3.43 110.68 C9.8 111.32 14.02 111.9 19 116 C19.85 116.14 20.69 116.29 21.56 116.44 C25.1 117.25 26.55 119.37 29 122 C30.45 123.14 30.45 123.14 31.94 124.31 C42.32 132.92 49.46 147.47 50.84 160.72 C51.65 171.97 50.92 183.65 46 194 C45.34 194.33 44.68 194.66 44 195 C43.63 196.2 43.26 197.39 42.88 198.62 C40.99 203.97 37.34 206.59 33 210 C31.87 211.02 30.75 212.04 29.62 213.06 C23.39 218.37 16.93 221.94 9 224 C8.97 225.24 8.95 226.48 8.92 227.76 C8.87 229.4 8.81 231.05 8.75 232.69 C8.74 233.5 8.72 234.32 8.71 235.16 C8.45 241.42 6.92 244.24 2.32 248.58 C-0.63 250.8 -2.7 251.94 -6.38 252.69 C-12.22 251.58 -16.83 248.17 -21 244 C-21.32 242.03 -21.32 242.03 -21.41 239.65 C-21.45 238.8 -21.49 237.95 -21.53 237.07 C-21.56 236.18 -21.59 235.29 -21.62 234.38 C-21.68 233.03 -21.68 233.03 -21.74 231.66 C-21.84 229.44 -21.92 227.22 -22 225 C-22.66 225 -23.32 225 -24 225 C-24 224.34 -24 223.68 -24 223 C-25.22 222.67 -26.43 222.34 -27.69 222 C-36.55 219.05 -44.59 213.74 -51 207 C-51.87 206.22 -52.73 205.43 -53.62 204.62 C-56.35 201.61 -57.54 198.76 -59 195 C-59.66 194.01 -60.32 193.02 -61 192 C-67.26 170.6 -67.26 170.6 -64.08 162.73 C-61.57 158.22 -59.06 155.56 -54 154 C-49.66 153.45 -45.93 153.77 -41.69 154.81 C-36.88 158.72 -35.39 164.71 -34.68 170.73 C-34.62 171.59 -34.56 172.44 -34.5 173.31 C-34.01 179.86 -30.9 183.31 -26.19 187.62 C-18.81 193.82 -12.74 196.37 -3 195.81 C-1.8 195.76 -0.61 195.7 0.62 195.64 C4.53 194.9 6.12 193.67 9 191 C9.69 190.48 10.38 189.96 11.1 189.43 C16.56 185.11 19.56 180.87 21 174 C21.29 169.31 21.24 164.69 21 160 C20.34 160 19.68 160 19 160 C18.61 158.8 18.22 157.61 17.81 156.38 C15.33 149.8 11.19 145.33 5 142 C0.24 140.38 -4.7 139.91 -9.68 139.36 C-24.16 137.73 -37.91 134.24 -48 123 C-48.8 122.28 -49.61 121.56 -50.44 120.81 C-53.45 117.51 -55.49 114 -57.67 110.11 C-58.83 107.87 -58.83 107.87 -61 107 C-66.63 88.56 -66.95 70.28 -58.39 52.7 C-54.74 46.65 -50.24 41.7 -45 37 C-44.46 36.51 -43.92 36.01 -43.37 35.5 C-40.16 32.68 -36.86 30.8 -33 29 C-32.01 28.34 -31.02 27.68 -30 27 C-27.67 26.32 -25.34 25.65 -23 25 C-21.58 23.81 -21.58 23.81 -21.96 20.43 C-21.97 19.7 -21.97 18.97 -21.97 18.22 C-21.82 6.55 -21.82 6.55 -17.75 2.44 C-12.35 -1.18 -6.21 -1.43 0 0 Z " fill="#010103" transform="translate(436,758)"/>
<path d="M0 0 C26.07 -0.09 52.14 -0.16 78.21 -0.21 C90.31 -0.23 102.42 -0.26 114.52 -0.3 C125.07 -0.34 135.62 -0.37 146.17 -0.38 C151.76 -0.38 157.34 -0.39 162.93 -0.42 C168.19 -0.45 173.45 -0.46 178.71 -0.45 C180.64 -0.45 182.57 -0.46 184.49 -0.48 C187.13 -0.5 189.77 -0.49 192.41 -0.48 C193.55 -0.5 193.55 -0.5 194.71 -0.52 C201.72 -0.44 206.76 2.04 212 6.62 C214 9 214 9 214 11 C214.6 11.19 215.2 11.37 215.81 11.56 C220.28 14.5 221.51 20.95 222.65 25.97 C224.05 34.08 222.86 41.86 218.15 48.68 C212.34 55.59 206.34 60.34 197.17 61.47 C192.48 61.73 187.79 61.71 183.1 61.69 C181.3 61.7 179.5 61.72 177.69 61.73 C172.83 61.77 167.96 61.78 163.1 61.77 C158 61.78 152.91 61.81 147.81 61.84 C139.26 61.88 130.72 61.9 122.17 61.91 C112.28 61.93 102.39 61.96 92.5 62.02 C81.97 62.07 71.44 62.11 60.91 62.14 C57.87 62.15 54.83 62.17 51.8 62.18 C47.04 62.2 42.28 62.21 37.51 62.21 C35.76 62.21 34.01 62.22 32.26 62.23 C29.88 62.24 27.5 62.24 25.12 62.24 C24.42 62.24 23.72 62.25 23 62.26 C18.23 62.23 18.23 62.23 16 60 C15.36 57.84 15.36 57.84 14.82 55.16 C14.61 54.18 14.41 53.2 14.19 52.19 C13.99 51.15 13.78 50.12 13.56 49.06 C11.39 38.45 8.98 28.09 5 18 C4.48 16.58 3.96 15.17 3.44 13.75 C2.67 11.66 1.9 9.82 0.81 7.88 C-0.33 5.24 -0.05 2.84 0 0 Z " fill="#FCFCFC" transform="translate(581,808)"/>
<path d="M0 0 C1.79 -0 3.58 -0 5.37 -0.01 C10.21 -0.01 15.04 0.01 19.88 0.04 C24.94 0.07 30.01 0.07 35.07 0.07 C43.57 0.08 52.06 0.11 60.55 0.15 C72.55 0.21 84.54 0.23 96.53 0.25 C104.83 0.26 113.14 0.28 121.44 0.3 C123.46 0.31 125.47 0.31 127.48 0.32 C133.22 0.33 138.95 0.35 144.69 0.38 C146.42 0.39 148.16 0.39 149.9 0.4 C152.27 0.4 154.63 0.42 157 0.43 C157.69 0.43 158.39 0.43 159.11 0.43 C163.85 0.47 163.85 0.47 166.08 1.58 C166.66 4.12 167.12 6.58 167.51 9.15 C167.77 10.69 168.03 12.24 168.29 13.79 C168.55 15.39 168.81 16.98 169.08 18.58 C169.56 21.52 170.06 24.46 170.58 27.4 C170.79 28.68 171.01 29.97 171.23 31.29 C172.08 34.59 173.06 35.95 175.08 38.58 C175.94 41.83 176.53 45.09 177.13 48.39 C177.88 51.7 177.88 51.7 180.24 54.18 C180.84 54.97 181.45 55.77 182.08 56.58 C181.69 59.23 181.69 59.23 181.08 61.58 C155.34 61.72 129.6 61.83 103.86 61.89 C91.91 61.93 79.95 61.97 68 62.04 C57.58 62.1 47.16 62.13 36.74 62.15 C31.23 62.16 25.71 62.17 20.2 62.22 C15 62.26 9.8 62.27 4.61 62.26 C2.71 62.26 0.81 62.28 -1.1 62.3 C-13.65 62.44 -22.77 61.29 -32.96 53.16 C-39 46.23 -42.76 39.25 -42.26 29.77 C-40.75 19.93 -36.9 11.78 -28.92 5.58 C-19.67 -0.23 -10.52 -0.11 0 0 Z " fill="#FCFCFC" transform="translate(95.924072265625,898.41650390625)"/>
<path d="M0 0 C0.7 0 1.4 0.01 2.13 0.01 C2.87 0.01 3.61 0.01 4.37 0.01 C6.88 0.01 9.38 0.02 11.88 0.03 C13.67 0.03 15.46 0.03 17.24 0.03 C23.13 0.04 29.02 0.05 34.91 0.07 C36.93 0.08 38.96 0.08 40.98 0.09 C49.41 0.11 57.84 0.14 66.27 0.18 C78.35 0.23 90.44 0.26 102.52 0.27 C111.01 0.28 119.5 0.3 127.99 0.35 C133.07 0.37 138.14 0.39 143.21 0.38 C147.99 0.38 152.77 0.4 157.54 0.44 C159.29 0.45 161.04 0.45 162.79 0.44 C173.62 0.4 182.15 1.08 190.75 8.34 C199.4 18.65 200.72 27.32 200 40.56 C199.01 47.65 194.54 52.69 189.13 57.13 C180.13 63.71 170.25 62.8 159.63 62.69 C157.66 62.69 155.69 62.69 153.72 62.7 C148.39 62.7 143.06 62.67 137.73 62.63 C132.15 62.6 126.57 62.6 120.99 62.59 C110.44 62.58 99.88 62.54 89.33 62.49 C77.31 62.43 65.29 62.4 53.27 62.38 C28.56 62.33 3.84 62.24 -20.87 62.13 C-21.27 59.8 -21.6 57.47 -21.87 55.13 C-20.56 53.66 -20.56 53.66 -18.87 52.13 C-18.08 49.59 -17.4 47.14 -16.81 44.56 C-15.13 37.38 -15.13 37.38 -12.87 35.13 C-12.16 32.78 -12.16 32.78 -11.65 30.03 C-11.44 29 -11.23 27.97 -11.02 26.91 C-10.8 25.82 -10.59 24.74 -10.37 23.63 C-10.16 22.57 -9.95 21.52 -9.73 20.44 C-8.9 16.35 -8.09 12.25 -7.31 8.15 C-7.04 6.79 -7.04 6.79 -6.78 5.41 C-6.63 4.6 -6.48 3.8 -6.32 2.97 C-5.43 -0.71 -3.41 0.01 0 0 Z " fill="#FCFCFC" transform="translate(602.8721403479576,897.8737813234329)"/>
<path d="M0 0 C10.06 -0.31 20.02 0.25 30.06 0.94 C31.34 1.02 32.61 1.11 33.92 1.2 C43.21 1.87 43.21 1.87 47.09 2.52 C49.76 2.96 52.3 3.17 55 3.25 C56.36 3.3 56.36 3.3 57.75 3.35 C59.63 3.41 61.51 3.46 63.39 3.52 C64.75 3.57 64.75 3.57 66.13 3.62 C66.94 3.65 67.76 3.67 68.6 3.7 C71.32 4.04 73.51 4.89 76 6 C76.22 17.36 75.54 28.5 74.56 39.81 C74.29 43.03 74.02 46.24 73.75 49.46 C73.66 50.63 73.66 50.63 73.55 51.83 C73.02 58.32 72.65 64.81 72.36 71.31 C72.21 74.43 71.99 77.02 71 80 C65.77 77.76 62.68 73.71 59.25 69.31 C55.94 65.13 52.5 61.11 48.93 57.14 C47.14 55.15 45.38 53.14 43.62 51.12 C40.84 47.93 37.99 44.81 35.12 41.69 C31.09 37.26 27.27 32.71 23.51 28.05 C21.57 25.69 19.6 23.38 17.58 21.08 C16.99 20.4 16.4 19.73 15.79 19.03 C14.61 17.7 13.44 16.37 12.25 15.04 C11.72 14.43 11.18 13.82 10.62 13.19 C10.14 12.64 9.66 12.1 9.16 11.54 C8 10 8 10 7 7 C6.01 6.67 5.02 6.34 4 6 C3.3 4.35 2.63 2.68 2 1 C1.34 0.67 0.68 0.34 0 0 Z " fill="#FBFBFB" transform="translate(1071,138)"/>
<path d="M0 0 C4.91 -0.07 9.82 -0.13 14.73 -0.16 C16.4 -0.18 18.07 -0.2 19.74 -0.23 C22.15 -0.26 24.55 -0.28 26.95 -0.29 C27.7 -0.31 28.44 -0.32 29.21 -0.34 C33.93 -0.34 35.02 0.01 39 3 C25.47 3 11.94 3 -2 3 C-1.34 2.67 -0.68 2.34 0 2 C0 1.34 0 0.68 0 0 Z " fill="#D9D9D9" transform="translate(410,1061)"/>
<path d="M0 0 C5.12 1.46 7.81 4.54 11.25 8.38 C11.79 8.95 12.33 9.53 12.89 10.12 C15.57 13.06 17.25 15.01 18 19 C13.48 15.28 9.23 11.36 5.06 7.25 C4.32 6.52 4.32 6.52 3.56 5.78 C2.33 4.56 1.16 3.28 0 2 C0 1.34 0 0.68 0 0 Z " fill="#D9D9D9" transform="translate(326,969)"/>
<path d="M0 0 C4.04 1.57 6.47 4.44 9.25 7.62 C9.71 8.14 10.17 8.66 10.64 9.19 C11.77 10.45 12.88 11.73 14 13 C13.01 13.5 13.01 13.5 12 14 C2.09 5.43 2.09 5.43 0 3 C0 2.01 0 1.02 0 0 Z " fill="#D9D9D9" transform="translate(1081,141)"/>
<path d="M0 0 C0.66 0.33 1.32 0.66 2 1 C-0.28 3.34 -2.58 5.67 -4.88 8 C-5.85 9 -5.85 9 -6.85 10.02 C-7.47 10.66 -8.1 11.29 -8.74 11.94 C-9.32 12.52 -9.89 13.11 -10.49 13.71 C-12 15 -12 15 -14 15 C-12.42 11.15 -9.95 8.71 -7 5.81 C-6.11 4.93 -5.23 4.05 -4.31 3.14 C-2 1 -2 1 0 0 Z " fill="#D9D9D9" transform="translate(531,969)"/>
<path d="M0 0 C0.66 0.33 1.32 0.66 2 1 C-2.33 6.18 -6.77 10.73 -12 15 C-12 12 -12 12 -10.62 10.31 C-9 9 -9 9 -7 9 C-6.77 8.44 -6.55 7.89 -6.31 7.31 C-4.64 4.37 -2.45 2.32 0 0 Z " fill="#D9D9D9" transform="translate(343,782)"/>
<path d="M0 0 C4.32 0.47 6.34 3.03 9.25 6.06 C10.14 6.98 11.03 7.9 11.95 8.85 C12.63 9.56 13.3 10.27 14 11 C13.01 11.33 12.02 11.66 11 12 C9.16 10.38 7.33 8.76 5.5 7.12 C4.98 6.66 4.45 6.2 3.91 5.73 C2.57 4.53 1.28 3.27 0 2 C0 1.34 0 0.68 0 0 Z " fill="#D9D9D9" transform="translate(696,395)"/>
<path d="M0 0 C3.26 0.58 4.91 1.53 7.23 3.87 C7.81 4.45 8.38 5.02 8.97 5.61 C9.56 6.21 10.15 6.82 10.75 7.44 C11.35 8.04 11.95 8.64 12.57 9.25 C17 13.73 17 13.73 17 16 C12.98 14.42 10.76 11.76 7.94 8.56 C4.08 4.18 4.08 4.18 0 0 Z " fill="#D9D9D9" transform="translate(1116,184)"/>
<path d="M0 0 C4.28 0.48 6.16 2.95 9 6 C9.93 6.93 10.86 7.86 11.81 8.81 C12.53 9.53 13.26 10.26 14 11 C13.67 11.66 13.34 12.32 13 13 C12.4 12.46 11.79 11.91 11.17 11.36 C10.37 10.64 9.57 9.92 8.75 9.19 C7.96 8.48 7.17 7.77 6.36 7.04 C4.07 4.99 4.07 4.99 1.7 3.36 C1.14 2.91 0.58 2.46 0 2 C0 1.34 0 0.68 0 0 Z " fill="#D9D9D9" transform="translate(633,321)"/>
<path d="M0 0 C5.65 1.37 8.51 5.68 12 10 C8.07 10 7.18 8.72 4.31 6.12 C3.5 5.41 2.7 4.69 1.86 3.95 C0 2 0 2 0 0 Z " fill="#D9D9D9" transform="translate(664,357)"/>
<path d="M0 0 C4.95 0 9.9 0 15 0 C15 0.66 15 1.32 15 2 C13.4 2.17 11.79 2.33 10.19 2.5 C9.29 2.59 8.4 2.69 7.48 2.78 C5 3 5 3 2 3 C2 2.34 2 1.68 2 1 C1.34 0.67 0.68 0.34 0 0 Z " fill="#E6E6E6" transform="translate(1071,138)"/>
<path d="M0 0 C0.66 0 1.32 0 2 0 C2.66 2.31 3.32 4.62 4 7 C3.01 6.67 2.02 6.34 1 6 C0.67 6.99 0.34 7.98 0 9 C-0.33 9 -0.66 9 -1 9 C-1.1 2.85 -1.1 2.85 -1 1 C-0.67 0.67 -0.34 0.34 0 0 Z " fill="#7B7B7D" transform="translate(803,652)"/>
</svg>
