<?xml version="1.0" encoding="UTF-8"?>
<!-- Generator: visioncortex VTracer 0.6.3 -->
<svg version="1.1" xmlns="http://www.w3.org/2000/svg" width="1280" height="1280">
<path d="M0 0 C422.4 0 844.8 0 1280 0 C1280 422.4 1280 844.8 1280 1280 C857.6 1280 435.2 1280 0 1280 C0 857.6 0 435.2 0 0 Z " fill="#FAFCFC" transform="translate(0,0)"/>
<path d="M0 0 C49.22 24.19 107.59 20.56 158.17 3.85 C163.19 2.04 168.05 -0.19 172.79 -2.64 C181.11 -6.74 189.41 -5.38 198.21 -3.51 C199.07 -3.33 199.92 -3.15 200.81 -2.97 C220.69 1.32 239.87 7.64 258.01 16.91 C259.86 17.85 261.72 18.76 263.58 19.66 C284.55 29.86 304.25 42.08 321.16 58.27 C323.31 60.31 325.49 62.26 327.73 64.2 C338.01 73.14 347.78 82.91 355.9 93.87 C356.91 95.16 356.91 95.16 357.95 96.47 C387.19 134.12 404.79 179.18 412.9 225.87 C413.13 227.13 413.37 228.4 413.61 229.71 C416.2 244.78 416.06 260.23 416.12 275.48 C416.13 277.38 416.15 279.28 416.16 281.18 C416.19 287.35 416.22 293.52 416.24 299.69 C416.25 300.75 416.25 301.8 416.25 302.89 C416.29 312.86 416.32 322.84 416.34 332.81 C416.37 345.5 416.42 358.19 416.5 370.88 C416.56 379.85 416.59 388.81 416.6 397.78 C416.6 403.12 416.62 408.46 416.67 413.79 C416.71 418.81 416.72 423.83 416.71 428.85 C416.71 430.68 416.72 432.51 416.75 434.34 C416.91 446.86 415.57 457.08 407.09 466.98 C401.68 472.21 393.12 475.99 385.62 476 C384.74 476 383.86 476 382.95 476.01 C381.49 476.01 381.49 476.01 380.01 476 C378.46 476.01 378.46 476.01 376.88 476.01 C373.38 476.02 369.89 476.02 366.39 476.02 C363.87 476.03 361.36 476.03 358.84 476.03 C352.62 476.05 346.41 476.05 340.19 476.06 C332.75 476.06 325.3 476.07 317.86 476.08 C299.87 476.11 281.87 476.12 263.88 476.14 C257.92 476.14 251.96 476.14 246 476.15 C214.31 476.17 182.63 476.2 150.94 476.21 C143.6 476.21 136.25 476.21 128.91 476.22 C127.54 476.22 127.54 476.22 126.15 476.22 C96.57 476.23 67 476.26 37.43 476.3 C7.03 476.35 -23.37 476.37 -53.77 476.38 C-58.06 476.38 -62.36 476.38 -66.65 476.38 C-67.92 476.38 -67.92 476.38 -69.21 476.38 C-82.81 476.38 -96.41 476.4 -110 476.43 C-123.68 476.46 -137.35 476.47 -151.02 476.45 C-159.14 476.45 -167.26 476.46 -175.38 476.48 C-181.45 476.5 -187.52 476.5 -193.58 476.48 C-196.04 476.48 -198.49 476.48 -200.94 476.5 C-224.56 476.63 -224.56 476.63 -235.1 470.87 C-235.9 470.43 -236.7 470 -237.53 469.55 C-243.97 465.76 -247.15 458.87 -249.1 451.87 C-250.13 445.5 -249.87 439.02 -249.8 432.59 C-249.8 430.68 -249.8 428.77 -249.81 426.85 C-249.81 421.69 -249.78 416.53 -249.74 411.36 C-249.71 405.93 -249.71 400.5 -249.7 395.07 C-249.69 385.95 -249.66 376.83 -249.61 367.71 C-249.54 354.9 -249.51 342.09 -249.49 329.28 C-249.47 319.27 -249.44 309.27 -249.41 299.26 C-249.41 298.2 -249.4 297.14 -249.4 296.04 C-249.38 289.9 -249.36 283.77 -249.32 277.63 C-249.32 275.78 -249.31 273.93 -249.3 272.08 C-249.25 256.27 -249.19 240.42 -246.1 224.87 C-245.83 223.4 -245.56 221.93 -245.29 220.46 C-243.07 208.58 -240.16 196.96 -236.81 185.35 C-236.19 183.18 -235.6 181.01 -235.03 178.84 C-231.27 165.55 -225.11 153.25 -219.1 140.87 C-218.71 140.05 -218.32 139.23 -217.91 138.39 C-209.9 121.85 -199.37 106.26 -187.3 92.4 C-185.09 89.85 -183.03 87.23 -180.98 84.55 C-178.05 80.87 -174.98 77.85 -171.37 74.84 C-167.96 71.87 -164.82 68.63 -161.67 65.39 C-138.33 41.65 -109.35 25.13 -79.1 11.87 C-78.48 11.58 -77.85 11.29 -77.21 10.99 C-67.27 6.41 -57.3 2.85 -46.73 -0.01 C-45.67 -0.29 -44.61 -0.58 -43.53 -0.87 C-27.47 -5.04 -15.04 -7.48 0 0 Z " fill="#6CB1DF" transform="translate(556.1015625,726.1328125)"/>
<path d="M0 0 C0.89 0.13 1.77 0.26 2.69 0.39 C46.05 6.99 85.69 31.42 111.84 66.46 C120.11 78.02 126.95 90.17 133 103 C133.45 103.95 133.9 104.9 134.37 105.88 C140.48 119.62 145.28 135.05 147 150 C147.09 150.74 147.18 151.47 147.27 152.23 C148.28 161.64 148.16 171.06 148.17 180.51 C148.17 182.4 148.17 184.3 148.18 186.19 C148.18 190.15 148.19 194.11 148.19 198.07 C148.19 203.09 148.2 208.12 148.22 213.14 C148.23 217.05 148.23 220.96 148.23 224.88 C148.23 226.73 148.23 228.58 148.24 230.43 C148.43 280.05 130.57 324.24 95.67 359.57 C94.81 360.43 93.95 361.3 93.06 362.19 C91.78 363.5 91.78 363.5 90.47 364.84 C85.63 369.72 80.96 373.61 75 377 C73.41 378.11 71.82 379.23 70.25 380.38 C40.24 401.38 4.36 410.77 -32.01 410.04 C-33.9 410 -35.8 409.99 -37.69 409.98 C-70.9 409.01 -107.18 394 -133.15 373.45 C-134.34 372.52 -135.55 371.61 -136.78 370.72 C-142.34 366.72 -147.18 362.17 -152 357.31 C-153.19 356.11 -153.19 356.11 -154.41 354.89 C-159.94 349.25 -164.74 343.67 -169 337 C-169.72 335.94 -170.44 334.88 -171.18 333.79 C-182.84 316.46 -191.85 296.85 -196.88 276.56 C-197.07 275.81 -197.26 275.07 -197.45 274.3 C-201.11 258.28 -201.31 241.49 -201.27 225.14 C-201.27 223.32 -201.27 221.51 -201.27 219.69 C-201.27 215.93 -201.27 212.17 -201.26 208.41 C-201.25 203.63 -201.26 198.86 -201.27 194.08 C-201.28 190.35 -201.27 186.62 -201.27 182.88 C-201.27 181.12 -201.27 179.37 -201.27 177.61 C-201.3 166.56 -200.64 155.93 -199 145 C-198.8 143.56 -198.8 143.56 -198.59 142.09 C-194.89 116.71 -183.32 91.4 -168 71 C-167.48 70.29 -166.97 69.58 -166.43 68.85 C-161.54 62.31 -155.99 56.38 -150.37 50.46 C-149.24 49.25 -148.12 48.04 -147.01 46.81 C-137.17 36.33 -124.42 28.09 -112 21 C-111.38 20.64 -110.75 20.28 -110.11 19.9 C-99.56 13.84 -88.83 9.4 -77.25 5.72 C-75.31 5.1 -73.39 4.45 -71.46 3.79 C-48.77 -3.52 -23.37 -3.76 0 0 Z " fill="#6CB1DF" transform="translate(666,286)"/>
<path d="M0 0 C3.53 0.97 7.03 1.8 10.64 2.47 C41.7 8.58 72.97 22.26 98.86 40.36 C102.89 43.16 107.05 45.71 111.25 48.25 C111.87 48.7 112.49 49.16 113.12 49.62 C113.12 50.28 113.12 50.95 113.12 51.62 C113.87 51.89 114.61 52.16 115.38 52.44 C118.02 53.58 119.98 54.72 122.12 56.62 C122.12 57.28 122.12 57.95 122.12 58.62 C122.89 58.89 123.65 59.16 124.44 59.44 C127.01 60.58 128.39 61.44 130.12 63.62 C130.12 64.28 130.12 64.94 130.12 65.62 C130.68 65.85 131.24 66.08 131.81 66.31 C134.79 68 136.85 70.09 139.12 72.62 C139.12 73.28 139.12 73.94 139.12 74.62 C139.68 74.84 140.23 75.06 140.8 75.28 C143.93 77.09 145.96 79.44 148.38 82.12 C148.83 82.62 149.29 83.12 149.77 83.64 C153.12 87.37 153.12 87.37 153.12 89.62 C153.79 89.62 154.44 89.62 155.12 89.62 C155.79 91.27 156.44 92.92 157.12 94.62 C157.79 94.62 158.44 94.62 159.12 94.62 C159.45 95.94 159.79 97.26 160.12 98.62 C160.79 98.62 161.44 98.62 162.12 98.62 C165.12 102.09 165.12 102.09 165.12 104.62 C165.79 104.62 166.44 104.62 167.12 104.62 C168.6 106.73 169.94 108.8 171.25 111 C171.62 111.6 172 112.21 172.38 112.83 C175.12 117.35 175.12 117.35 175.12 119.62 C175.79 119.62 176.44 119.62 177.12 119.62 C177.46 120.21 177.79 120.79 178.13 121.39 C179.67 124.1 181.21 126.8 182.75 129.5 C183.27 130.42 183.79 131.34 184.33 132.28 C184.85 133.2 185.38 134.11 185.91 135.05 C186.45 135.99 186.98 136.92 187.53 137.88 C189.03 140.46 190.6 142.99 192.18 145.52 C195.62 151.23 198.1 157.25 200.56 163.44 C201.04 164.62 201.51 165.81 202 167.03 C210.48 188.39 216.88 209.73 219.88 232.56 C219.99 233.43 220.11 234.3 220.23 235.19 C223.16 259.96 222.32 285.23 222.36 310.14 C222.37 312.17 222.37 314.21 222.38 316.25 C222.39 325.8 222.41 335.35 222.42 344.9 C222.43 355.87 222.45 366.84 222.49 377.8 C222.52 386.33 222.54 394.86 222.54 403.39 C222.54 408.47 222.55 413.54 222.58 418.61 C222.6 423.37 222.61 428.14 222.6 432.9 C222.6 434.64 222.6 436.37 222.62 438.11 C222.71 450.58 222.26 462.46 213.05 471.94 C206.5 477.67 199.7 480.87 190.89 480.88 C189.66 480.88 188.43 480.89 187.16 480.9 C185.81 480.89 184.46 480.89 183.1 480.88 C181.67 480.89 180.24 480.89 178.81 480.89 C174.93 480.9 171.05 480.9 167.17 480.89 C163.1 480.89 159.04 480.89 154.98 480.9 C148.16 480.9 141.33 480.9 134.51 480.89 C126.63 480.87 118.74 480.88 110.86 480.89 C104.08 480.9 97.31 480.9 90.54 480.89 C86.49 480.89 82.45 480.89 78.4 480.9 C74.6 480.9 70.8 480.9 67 480.89 C65.61 480.89 64.21 480.89 62.82 480.89 C60.91 480.9 59.01 480.89 57.11 480.88 C56.04 480.88 54.98 480.88 53.88 480.88 C51.12 480.62 49.47 480.05 47.12 478.62 C47.14 476.78 47.14 476.78 47.16 474.9 C47.17 473.27 47.18 471.63 47.19 470 C47.2 469.19 47.2 468.38 47.21 467.55 C47.22 466.76 47.22 465.97 47.22 465.15 C47.23 464.43 47.23 463.7 47.24 462.96 C47.17 460.53 47.17 460.53 46.65 457.81 C46.06 454.25 45.86 450.78 45.69 447.18 C43.84 414.58 35.84 382 22.33 352.3 C21.16 349.71 20.03 347.1 18.91 344.48 C8.92 321.31 -3.63 299.06 -19.58 279.45 C-20.88 277.62 -20.88 277.62 -20.88 275.62 C-21.53 275.62 -22.19 275.62 -22.88 275.62 C-24.23 273.64 -25.56 271.64 -26.88 269.62 C-27.62 268.88 -28.36 268.14 -29.12 267.38 C-29.99 266.51 -29.99 266.51 -30.88 265.62 C-30.88 264.96 -30.88 264.31 -30.88 263.62 C-31.53 263.62 -32.19 263.62 -32.88 263.62 C-35.05 260.66 -36.71 258.12 -37.88 254.62 C-38.47 254.33 -39.06 254.03 -39.67 253.73 C-42.54 252.29 -44.05 250.38 -46.12 247.94 C-49.56 244.01 -53.1 240.53 -57.08 237.16 C-59.5 235.09 -61.73 232.97 -63.88 230.62 C-63.88 229.97 -63.88 229.31 -63.88 228.62 C-64.43 228.38 -64.99 228.13 -65.56 227.88 C-68.29 226.4 -70.49 224.6 -72.88 222.62 C-73.8 221.92 -74.73 221.22 -75.69 220.5 C-76.77 219.57 -76.77 219.57 -77.88 218.62 C-77.88 217.97 -77.88 217.31 -77.88 216.62 C-78.41 216.38 -78.95 216.13 -79.5 215.88 C-82.46 214.32 -85.17 212.59 -87.88 210.62 C-87.88 209.97 -87.88 209.31 -87.88 208.62 C-88.61 208.36 -89.34 208.1 -90.09 207.82 C-92.88 206.62 -94.96 205.25 -97.38 203.44 C-103.24 199.22 -109.46 195.93 -115.88 192.62 C-115.88 191.97 -115.88 191.31 -115.88 190.62 C-116.75 190.36 -117.62 190.09 -118.52 189.81 C-121.75 188.67 -124.56 187.32 -127.56 185.68 C-128.64 185.1 -129.72 184.52 -130.84 183.93 C-132.56 183 -132.56 183 -134.31 182.06 C-144.3 176.75 -154.33 172.17 -164.98 168.29 C-165.87 167.96 -166.77 167.63 -167.7 167.3 C-168.88 166.88 -168.88 166.88 -170.08 166.46 C-171.88 165.62 -171.88 165.62 -172.88 163.62 C-172.37 163.22 -171.87 162.81 -171.35 162.39 C-166.26 158.13 -162.34 153.69 -158.56 148.25 C-158.01 147.47 -157.46 146.68 -156.89 145.87 C-155.2 143.47 -153.54 141.05 -151.88 138.62 C-151.38 137.9 -150.88 137.18 -150.36 136.44 C-143.4 126.36 -137.88 115.98 -132.88 104.81 C-131.98 102.85 -131.03 100.92 -130.04 99 C-121.15 81.33 -113.85 59.57 -113.88 39.62 C-113.57 38.55 -113.26 37.48 -112.94 36.38 C-111.64 31.8 -111.24 27.35 -110.88 22.62 C-104.95 21.27 -99.39 20.52 -93.3 20.68 C-86.23 20.73 -79.57 19.96 -72.62 18.69 C-71.43 18.47 -70.23 18.25 -68.99 18.03 C-51.88 14.7 -35.25 8.82 -19.65 1.01 C-12.93 -2.24 -7.23 -2.02 0 0 Z " fill="#6ED457" transform="translate(979.875,514.375)"/>
<path d="M0 0 C3.02 1.16 5.94 2.51 8.88 3.88 C14.52 6.47 20.15 8.89 26 11 C27.08 11.41 27.08 11.41 28.19 11.82 C49.86 19.91 72.05 22.39 95 24 C96.04 27.9 96.45 31.81 96.88 35.81 C101.58 77.46 118.64 127.04 149.72 156.64 C151 158 151 158 151 160 C151.62 160.23 152.24 160.45 152.88 160.69 C155.62 162.38 155.93 164.03 157 167 C156.01 167.4 156.01 167.4 155.01 167.81 C151.66 169.19 148.33 170.59 145 172 C144.37 172.26 143.75 172.53 143.1 172.8 C132.84 177.12 122.89 182 113 187.12 C111.87 187.71 110.73 188.3 109.57 188.9 C100.87 193.44 92.3 198.1 84.44 204 C81.18 206.42 77.91 208.74 74.5 210.94 C69.01 214.57 64.02 218.75 59 223 C58.2 223.66 58.2 223.66 57.38 224.34 C48.88 231.39 40.9 238.9 33.06 246.69 C32.19 247.55 31.31 248.42 30.41 249.31 C24.84 254.91 19.84 260.76 15 267 C13.52 268.79 12.05 270.59 10.56 272.38 C-4.81 291.21 -17.18 311.25 -28 333 C-28.44 333.87 -28.88 334.73 -29.33 335.63 C-43.16 362.94 -53.77 392.54 -57.73 422.99 C-58.12 425.92 -58.6 428.83 -59.06 431.75 C-59.38 433.83 -59.69 435.92 -60 438 C-60.18 439.1 -60.35 440.19 -60.53 441.32 C-61.86 450.24 -62.36 459.05 -62.57 468.06 C-62.6 469 -62.63 469.94 -62.66 470.91 C-62.67 471.75 -62.69 472.58 -62.71 473.45 C-63.05 476.48 -64 479.12 -65 482 C-84.27 481.96 -103.54 481.9 -122.82 481.82 C-131.76 481.78 -140.71 481.74 -149.66 481.73 C-157.46 481.72 -165.27 481.69 -173.07 481.65 C-177.2 481.62 -181.33 481.61 -185.45 481.61 C-189.35 481.61 -193.24 481.59 -197.13 481.56 C-198.55 481.55 -199.97 481.55 -201.4 481.55 C-213.05 481.59 -220.99 479.38 -230.05 471.98 C-237.28 464.62 -237.16 454.08 -237.13 444.38 C-237.13 443.54 -237.13 442.71 -237.13 441.86 C-237.14 439.09 -237.13 436.33 -237.13 433.56 C-237.13 431.58 -237.13 429.59 -237.13 427.6 C-237.14 422.21 -237.14 416.82 -237.13 411.43 C-237.13 405.8 -237.13 400.16 -237.14 394.52 C-237.14 385.06 -237.14 375.61 -237.13 366.15 C-237.12 355.2 -237.13 344.25 -237.13 333.3 C-237.14 323.91 -237.14 314.51 -237.13 305.11 C-237.13 299.5 -237.13 293.88 -237.14 288.27 C-237.14 283 -237.14 277.73 -237.13 272.46 C-237.13 270.52 -237.13 268.58 -237.13 266.64 C-237.14 264.01 -237.13 261.37 -237.13 258.74 C-237.13 257.96 -237.13 257.18 -237.13 256.38 C-237.11 251.11 -237.11 251.11 -236 250 C-235.77 248.15 -235.6 246.29 -235.46 244.44 C-231.05 192.93 -211.12 137.94 -176 99 C-174.86 97.72 -174.86 97.72 -173.7 96.41 C-172.25 94.79 -170.8 93.18 -169.34 91.58 C-167.45 89.49 -165.6 87.38 -163.76 85.25 C-148.5 67.79 -131.58 53.95 -112.19 41.42 C-110.17 40.11 -108.17 38.78 -106.18 37.44 C-77.66 18.63 -44.61 7.72 -11.39 0.76 C-3.91 -0.92 -3.91 -0.92 0 0 Z " fill="#EE5730" transform="translate(314,513)"/>
<path d="M0 0 C1.11 -0.01 1.11 -0.01 2.23 -0.01 C7.75 -0 7.75 -0 10 1.12 C11.78 1.3 13.57 1.47 15.36 1.62 C44.38 4.11 74.81 14.32 98.29 31.85 C99.98 33.19 99.98 33.19 102 34.12 C102 34.78 102 35.44 102 36.12 C102.78 36.43 103.57 36.74 104.38 37.06 C107 38.12 107 38.12 109 39.12 C109 39.78 109 40.44 109 41.12 C109.72 41.36 110.44 41.59 111.18 41.82 C114.54 43.38 116.49 45.29 119.06 47.94 C120.32 49.22 120.32 49.22 121.6 50.52 C128 57.46 128 57.46 128 60.12 C128.64 60.37 129.28 60.62 129.94 60.88 C132 62.12 132 62.12 132.75 64.25 C132.83 64.87 132.91 65.49 133 66.12 C133.66 66.12 134.32 66.12 135 66.12 C136.2 67.56 136.2 67.56 137.54 69.57 C138.28 70.68 138.28 70.68 139.04 71.81 C139.82 73.02 139.82 73.02 140.62 74.25 C141.16 75.07 141.7 75.89 142.26 76.73 C159.38 103 169.64 130.63 172.77 161.88 C172.92 163.31 173.08 164.74 173.25 166.17 C174.18 174.06 174.16 181.95 174.17 189.89 C174.17 191.41 174.17 192.93 174.18 194.44 C174.18 197.62 174.19 200.79 174.19 203.96 C174.19 207.99 174.2 212.01 174.22 216.03 C174.23 219.17 174.23 222.3 174.23 225.44 C174.23 226.92 174.23 228.4 174.24 229.88 C174.36 254.41 174.36 254.41 171 261.12 C171.03 262.09 171.06 263.05 171.1 264.05 C171.16 269.33 169.74 274.29 168.44 279.38 C168.17 280.43 167.9 281.49 167.62 282.58 C162.28 302.95 153.87 320.75 142 338.12 C141.31 339.14 140.62 340.15 139.91 341.2 C128.79 356.5 114.54 370.36 99 381.12 C97.88 381.94 96.76 382.76 95.65 383.59 C80.15 394.72 62.19 401.69 44 407.12 C42.75 407.51 41.51 407.89 40.22 408.28 C36.7 409.2 33.63 409.12 30 409.12 C29.17 409.45 28.35 409.79 27.5 410.12 C24.27 411.42 21.45 411.19 18 411.12 C17.67 411.45 17.34 411.79 17 412.12 C14.35 412.39 11.72 412.59 9.06 412.75 C7.95 412.83 7.95 412.83 6.81 412.91 C1.25 413.25 1.25 413.25 -1 412.12 C-1.01 411.56 -1.02 411 -1.02 410.42 C-1.11 404.48 -1.21 398.55 -1.32 392.61 C-1.36 390.4 -1.39 388.2 -1.42 385.99 C-1.67 368.99 -2.18 352.12 -6.12 335.5 C-6.34 334.6 -6.55 333.7 -6.76 332.77 C-14.12 302.48 -26.95 275.36 -44.58 249.75 C-45.16 248.91 -45.73 248.07 -46.32 247.21 C-46.84 246.47 -47.36 245.73 -47.89 244.96 C-49 243.12 -49 243.12 -49 241.12 C-49.66 241.12 -50.32 241.12 -51 241.12 C-51.25 240.34 -51.5 239.56 -51.75 238.75 C-53.21 235.68 -54.02 235.48 -57 234.12 C-60 230.7 -60 230.7 -60 228.12 C-60.58 227.87 -61.17 227.61 -61.77 227.34 C-64.16 226.04 -65.75 224.63 -67.67 222.72 C-68.34 222.06 -69 221.4 -69.68 220.71 C-70.37 220.03 -71.05 219.34 -71.75 218.62 C-72.45 217.94 -73.14 217.25 -73.86 216.54 C-74.52 215.87 -75.18 215.21 -75.86 214.53 C-76.46 213.93 -77.07 213.32 -77.69 212.7 C-79 211.12 -79 211.12 -79 209.12 C-79.56 208.87 -80.12 208.61 -80.7 208.34 C-83.27 206.98 -85.45 205.4 -87.75 203.62 C-88.55 203.02 -89.35 202.41 -90.17 201.78 C-91.08 200.96 -91.08 200.96 -92 200.12 C-92 199.47 -92 198.81 -92 198.12 C-92.72 197.87 -93.44 197.61 -94.18 197.34 C-97.16 196.06 -99.53 194.5 -102.19 192.62 C-110.15 187.23 -118.52 182.65 -127 178.12 C-128.05 177.57 -128.05 177.57 -129.11 177 C-144.15 169.05 -159.65 163.7 -176 159.12 C-170.22 111.66 -146.78 68.43 -109.5 38.25 C-102.71 32.95 -95.4 28.51 -88 24.12 C-87.12 23.59 -87.12 23.59 -86.22 23.05 C-74.25 15.88 -61.19 11.5 -48 7.12 C-47.15 6.84 -46.31 6.55 -45.44 6.26 C-34.9 2.76 -25.03 1.48 -13.94 1.27 C-9.18 1.1 -4.9 -0.03 0 0 Z " fill="#6ED457" transform="translate(871,75.875)"/>
<path d="M0 0 C0.93 -0 1.86 -0.01 2.82 -0.01 C26.47 -0 48.16 4.34 69.66 14.32 C72.15 15.43 74.63 16.38 77.19 17.31 C88.68 21.85 100.2 29.38 109.44 37.56 C109.77 38.55 110.1 39.54 110.44 40.56 C111.75 41.27 113.09 41.93 114.44 42.56 C116.13 43.99 116.13 43.99 117.79 45.65 C118.41 46.27 119.03 46.88 119.67 47.51 C120.31 48.17 120.96 48.82 121.62 49.5 C122.3 50.18 122.97 50.85 123.66 51.55 C128.95 56.96 133.85 62.54 138.44 68.56 C139.55 69.92 139.55 69.92 140.68 71.3 C155.53 90.46 165.38 114.01 170.44 137.56 C170.63 138.44 170.82 139.32 171.01 140.22 C174.24 155.55 174.24 155.55 172.44 158.56 C170 159.5 167.77 160.15 165.25 160.75 C147.3 165.55 130.6 173.49 114.44 182.56 C113.49 183.09 112.54 183.63 111.56 184.18 C106.46 187.15 101.55 190.43 96.62 193.69 C95.99 194.11 95.35 194.53 94.7 194.96 C89.09 198.71 84.19 202.75 79.44 207.56 C77.57 209.28 75.7 210.99 73.81 212.69 C64.29 221.38 55.31 230.32 47.44 240.56 C46.67 241.55 45.9 242.54 45.11 243.56 C17.98 279.51 0.73 326.42 0.16 371.56 C0.12 373.85 0.08 376.14 0.04 378.43 C-0.01 382.02 -0.06 385.61 -0.11 389.19 C-0.17 392.67 -0.22 396.15 -0.28 399.62 C-0.29 400.71 -0.31 401.79 -0.32 402.9 C-0.34 403.9 -0.36 404.89 -0.37 405.91 C-0.39 406.79 -0.4 407.66 -0.41 408.57 C-0.56 410.56 -0.56 410.56 -1.56 411.56 C-36.07 411.38 -71.76 400.01 -99.56 379.56 C-100.53 378.86 -101.5 378.16 -102.5 377.43 C-108.4 373.11 -113.95 368.58 -119.32 363.62 C-121.25 361.85 -123.23 360.16 -125.25 358.5 C-146.02 340.78 -160.23 313.42 -167.56 287.56 C-168.03 286.01 -168.03 286.01 -168.51 284.43 C-175.8 259.49 -174.86 232.93 -174.76 207.22 C-174.75 203.84 -174.75 200.45 -174.75 197.07 C-174.75 193.76 -174.74 190.45 -174.74 187.14 C-174.73 185.58 -174.73 184.03 -174.73 182.47 C-174.71 162.58 -173.43 143.7 -167.56 124.56 C-167.08 122.9 -167.08 122.9 -166.59 121.21 C-159.61 97.53 -147.61 76.33 -130.56 58.56 C-128.3 56.06 -126.07 53.54 -123.83 51.01 C-118.39 45.13 -112.93 40.1 -106.31 35.56 C-105.56 35.04 -104.81 34.52 -104.04 33.99 C-101.89 32.5 -99.73 31.03 -97.56 29.56 C-96.59 28.9 -95.61 28.23 -94.61 27.55 C-80.49 18.26 -65.75 11.38 -49.56 6.56 C-48.63 6.27 -47.71 5.98 -46.75 5.68 C-31.17 0.95 -16.17 0 0 0 Z " fill="#EE5730" transform="translate(409.5625,77.4375)"/>
</svg>
